{"glyphs":{"0":{"ha":653,"x_min":83,"x_max":569,"o":"m 328 939 q 509 822 449 939 q 569 461 569 706 q 509 101 569 217 q 328 -15 449 -15 q 145 102 207 -15 q 83 463 83 219 q 144 822 83 706 q 328 939 206 939 m 328 874 q 205 778 246 874 q 164 463 164 682 q 204 147 164 243 q 328 50 244 50 q 449 146 410 50 q 489 461 489 242 q 449 778 489 682 q 328 874 410 874 z "},"1":{"ha":474,"x_min":38,"x_max":335,"o":"m 335 924 l 335 0 l 258 0 l 258 836 l 75 699 l 38 753 l 268 924 l 335 924 z "},"2":{"ha":536,"x_min":22,"x_max":479,"o":"m 243 939 q 401 874 343 939 q 458 706 458 810 q 428 537 458 617 q 330 358 397 457 q 119 69 263 258 l 479 69 l 468 0 l 35 0 l 35 65 q 253 365 183 261 q 351 544 324 469 q 379 703 379 619 q 342 828 379 783 q 240 872 304 872 q 150 847 189 872 q 74 769 111 822 l 22 807 q 122 907 68 875 q 243 939 175 939 z "},"3":{"ha":558,"x_min":21,"x_max":490,"o":"m 253 939 q 410 874 351 939 q 468 708 468 808 q 424 564 468 618 q 301 492 381 510 q 439 426 388 483 q 490 263 490 368 q 460 119 490 182 q 374 20 429 56 q 246 -15 319 -15 q 122 14 175 -15 q 21 104 68 43 l 71 143 q 151 72 113 93 q 244 50 190 50 q 367 107 321 50 q 413 263 413 164 q 229 457 413 457 l 178 457 l 188 518 l 225 518 q 345 566 296 518 q 394 706 394 614 q 355 831 394 786 q 247 875 315 875 q 163 856 201 875 q 85 794 125 836 l 40 835 q 140 913 88 888 q 253 939 192 939 z "},"4":{"ha":596,"x_min":50,"x_max":557,"o":"m 557 308 l 557 243 l 457 243 l 457 0 l 382 0 l 382 243 l 50 243 l 50 303 l 279 939 l 346 915 l 129 308 l 382 308 l 392 581 l 457 581 l 457 308 l 557 308 z "},"5":{"ha":563,"x_min":38,"x_max":507,"o":"m 469 858 l 164 858 l 164 542 q 225 574 194 563 q 293 585 256 585 q 449 509 390 585 q 507 297 507 433 q 476 134 507 206 q 388 24 444 63 q 257 -15 332 -15 q 135 13 188 -15 q 38 96 83 40 l 88 139 q 164 73 125 94 q 256 51 203 51 q 381 116 336 51 q 426 299 426 181 q 274 521 426 521 q 209 510 238 521 q 147 476 181 500 l 90 476 l 90 924 l 481 924 l 469 858 z "},"6":{"ha":619,"x_min":83,"x_max":557,"o":"m 353 601 q 499 528 442 601 q 557 311 557 454 q 494 69 557 153 q 329 -15 432 -15 q 142 99 201 -15 q 83 415 83 213 q 158 802 83 665 q 364 939 232 939 q 508 885 443 939 l 475 833 q 364 874 422 874 q 219 767 272 874 q 161 472 167 661 q 246 567 197 533 q 353 601 294 601 m 329 50 q 442 117 403 50 q 481 308 481 185 q 443 482 481 426 q 342 538 406 538 q 242 497 288 538 q 161 385 196 457 q 203 132 164 214 q 329 50 243 50 z "},"7":{"ha":501,"x_min":33,"x_max":464,"o":"m 464 924 l 464 863 l 165 -11 l 96 13 l 386 857 l 33 857 l 33 924 l 464 924 z "},"8":{"ha":621,"x_min":60,"x_max":561,"o":"m 386 489 q 519 388 478 446 q 561 239 561 329 q 492 53 561 121 q 308 -15 424 -15 q 127 53 194 -15 q 60 238 60 122 q 232 496 60 421 q 124 583 157 535 q 92 708 92 632 q 155 878 92 818 q 311 939 218 939 q 467 881 403 939 q 531 710 531 822 q 497 585 531 636 q 386 489 463 533 m 168 707 q 197 603 168 640 q 303 528 226 565 l 338 511 q 427 598 400 553 q 454 707 454 643 q 416 836 454 794 q 311 878 378 878 q 207 836 246 878 q 168 707 168 794 m 310 49 q 438 95 392 49 q 483 239 483 142 q 448 367 483 322 q 319 453 413 411 l 281 471 q 172 378 206 435 q 138 238 138 322 q 184 95 138 142 q 310 49 231 49 z "},"9":{"ha":601,"x_min":57,"x_max":529,"o":"m 293 939 q 529 567 529 939 q 486 274 529 388 q 359 92 443 160 q 138 -26 275 24 l 119 33 q 358 190 276 92 q 449 464 439 288 q 371 377 417 408 q 269 346 325 346 q 163 381 211 346 q 85 481 114 415 q 57 636 57 547 q 122 860 57 782 q 293 939 188 939 m 282 410 q 374 444 333 410 q 451 549 415 479 q 415 799 451 722 q 294 875 379 875 q 178 816 219 875 q 136 635 136 757 q 175 467 136 525 q 282 410 214 410 z "},"\r":{"ha":313,"x_min":0,"x_max":0,"o":""}," ":{"ha":313,"x_min":0,"x_max":0,"o":""},"A":{"ha":664,"x_min":24,"x_max":640,"o":"m 558 0 l 492 261 l 169 261 l 103 0 l 24 0 l 282 951 l 382 951 l 640 0 l 558 0 m 188 328 l 474 328 l 331 885 l 188 328 z "},"Á":{"ha":664,"x_min":24,"x_max":640,"o":"m 558 0 l 492 261 l 169 261 l 103 0 l 24 0 l 282 951 l 382 951 l 640 0 l 558 0 m 188 328 l 474 328 l 331 885 l 188 328 m 425 1228 l 460 1160 l 231 1053 l 208 1097 l 425 1228 z "},"Ă":{"ha":664,"x_min":24,"x_max":640,"o":"m 558 0 l 492 261 l 169 261 l 103 0 l 24 0 l 282 951 l 382 951 l 640 0 l 558 0 m 188 328 l 474 328 l 331 885 l 188 328 m 332 1063 q 229 1099 271 1063 q 181 1200 188 1136 l 231 1213 q 267 1149 242 1172 q 332 1126 293 1126 q 398 1149 371 1126 q 436 1213 425 1172 l 486 1200 q 437 1099 479 1136 q 332 1063 394 1063 z "},"Ắ":{"ha":664,"x_min":24,"x_max":640,"o":"m 558 0 l 492 261 l 169 261 l 103 0 l 24 0 l 282 951 l 382 951 l 640 0 l 558 0 m 188 328 l 474 328 l 331 885 l 188 328 m 331 1025 q 228 1062 269 1025 q 179 1163 186 1099 l 229 1175 q 266 1112 240 1135 q 331 1089 292 1089 q 397 1112 369 1089 q 435 1175 424 1135 l 485 1163 q 435 1062 478 1099 q 331 1025 393 1025 m 433 1411 l 489 1367 l 340 1194 l 304 1225 l 433 1411 z "},"Ặ":{"ha":664,"x_min":24,"x_max":640,"o":"m 558 0 l 492 261 l 169 261 l 103 0 l 24 0 l 282 951 l 382 951 l 640 0 l 558 0 m 188 328 l 474 328 l 331 885 l 188 328 m 332 1063 q 229 1099 271 1063 q 181 1200 188 1136 l 231 1213 q 267 1149 242 1172 q 332 1126 293 1126 q 398 1149 371 1126 q 436 1213 425 1172 l 486 1200 q 437 1099 479 1136 q 332 1063 394 1063 m 333 -235 q 293 -218 308 -235 q 278 -176 278 -201 q 293 -137 278 -154 q 333 -121 308 -121 q 373 -137 357 -121 q 389 -176 389 -154 q 374 -218 389 -201 q 333 -235 358 -235 z "},"Ằ":{"ha":664,"x_min":24,"x_max":640,"o":"m 558 0 l 492 261 l 169 261 l 103 0 l 24 0 l 282 951 l 382 951 l 640 0 l 558 0 m 188 328 l 474 328 l 331 885 l 188 328 m 329 1025 q 226 1062 268 1025 q 178 1163 185 1099 l 228 1175 q 265 1112 239 1135 q 329 1089 290 1089 q 395 1112 368 1089 q 433 1175 422 1135 l 483 1163 q 434 1062 476 1099 q 329 1025 392 1025 m 239 1411 l 368 1225 l 332 1194 l 183 1367 l 239 1411 z "},"Ẳ":{"ha":664,"x_min":24,"x_max":640,"o":"m 558 0 l 492 261 l 169 261 l 103 0 l 24 0 l 282 951 l 382 951 l 640 0 l 558 0 m 188 328 l 474 328 l 331 885 l 188 328 m 332 1025 q 229 1062 271 1025 q 181 1163 188 1099 l 231 1175 q 267 1112 242 1135 q 332 1089 293 1089 q 398 1112 371 1089 q 436 1175 425 1135 l 486 1163 q 437 1062 479 1099 q 332 1025 394 1025 m 296 1265 q 356 1283 336 1268 q 375 1331 375 1297 q 361 1373 375 1358 q 322 1388 347 1388 q 290 1383 304 1388 q 258 1369 276 1379 l 238 1415 q 333 1446 279 1446 q 413 1416 383 1446 q 442 1336 442 1386 q 356 1229 442 1243 l 356 1164 l 296 1164 l 296 1265 z "},"Ẵ":{"ha":664,"x_min":24,"x_max":640,"o":"m 558 0 l 492 261 l 169 261 l 103 0 l 24 0 l 282 951 l 382 951 l 640 0 l 558 0 m 188 328 l 474 328 l 331 885 l 188 328 m 335 1025 q 232 1062 274 1025 q 183 1163 190 1099 l 233 1175 q 270 1112 244 1135 q 335 1089 296 1089 q 401 1112 374 1089 q 439 1175 428 1135 l 489 1163 q 440 1062 482 1099 q 335 1025 397 1025 m 404 1240 q 365 1249 382 1240 q 322 1275 347 1258 q 268 1301 288 1301 q 236 1289 250 1301 q 204 1246 222 1276 l 160 1268 q 267 1360 203 1360 q 304 1351 286 1360 q 343 1326 322 1342 q 376 1305 364 1311 q 401 1299 388 1299 q 434 1313 419 1299 q 465 1358 449 1326 l 510 1338 q 404 1240 472 1240 z "},"Ǎ":{"ha":664,"x_min":24,"x_max":640,"o":"m 558 0 l 492 261 l 169 261 l 103 0 l 24 0 l 282 951 l 382 951 l 640 0 l 558 0 m 188 328 l 474 328 l 331 885 l 188 328 m 474 1229 l 506 1194 l 357 1050 l 308 1050 l 160 1194 l 192 1229 l 333 1118 l 474 1229 z "},"Â":{"ha":664,"x_min":24,"x_max":640,"o":"m 558 0 l 492 261 l 169 261 l 103 0 l 24 0 l 282 951 l 382 951 l 640 0 l 558 0 m 188 328 l 474 328 l 331 885 l 188 328 m 193 1061 l 160 1096 l 308 1239 l 357 1239 l 506 1096 l 471 1061 l 332 1171 l 193 1061 z "},"Ấ":{"ha":664,"x_min":24,"x_max":640,"o":"m 558 0 l 492 261 l 169 261 l 103 0 l 24 0 l 282 951 l 382 951 l 640 0 l 558 0 m 188 328 l 474 328 l 331 885 l 188 328 m 197 1014 l 164 1049 l 313 1192 l 361 1192 l 510 1049 l 475 1014 l 336 1124 l 197 1014 m 567 1372 l 622 1328 l 474 1156 l 438 1186 l 567 1372 z "},"Ậ":{"ha":664,"x_min":24,"x_max":640,"o":"m 558 0 l 492 261 l 169 261 l 103 0 l 24 0 l 282 951 l 382 951 l 640 0 l 558 0 m 188 328 l 474 328 l 331 885 l 188 328 m 193 1061 l 160 1096 l 308 1239 l 357 1239 l 506 1096 l 471 1061 l 332 1171 l 193 1061 m 333 -235 q 293 -218 308 -235 q 278 -176 278 -201 q 293 -137 278 -154 q 333 -121 308 -121 q 373 -137 357 -121 q 389 -176 389 -154 q 374 -218 389 -201 q 333 -235 358 -235 z "},"Ầ":{"ha":664,"x_min":24,"x_max":640,"o":"m 558 0 l 492 261 l 169 261 l 103 0 l 24 0 l 282 951 l 382 951 l 640 0 l 558 0 m 188 328 l 474 328 l 331 885 l 188 328 m 193 1014 l 160 1049 l 308 1192 l 357 1192 l 506 1049 l 471 1014 l 332 1124 l 193 1014 m 108 1372 l 238 1186 l 201 1156 l 53 1328 l 108 1372 z "},"Ẩ":{"ha":664,"x_min":24,"x_max":640,"o":"m 558 0 l 492 261 l 169 261 l 103 0 l 24 0 l 282 951 l 382 951 l 640 0 l 558 0 m 188 328 l 474 328 l 331 885 l 188 328 m 193 1014 l 160 1049 l 308 1192 l 357 1192 l 506 1049 l 471 1014 l 332 1124 l 193 1014 m 453 1229 q 513 1247 493 1232 q 532 1294 532 1261 q 518 1337 532 1322 q 479 1351 504 1351 q 447 1347 461 1351 q 415 1333 433 1343 l 394 1379 q 490 1410 436 1410 q 569 1380 540 1410 q 599 1300 599 1350 q 513 1193 599 1207 l 513 1128 l 453 1128 l 453 1229 z "},"Ẫ":{"ha":664,"x_min":24,"x_max":640,"o":"m 558 0 l 492 261 l 169 261 l 103 0 l 24 0 l 282 951 l 382 951 l 640 0 l 558 0 m 188 328 l 474 328 l 331 885 l 188 328 m 192 1014 l 158 1049 l 307 1192 l 356 1192 l 504 1049 l 469 1014 l 331 1124 l 192 1014 m 400 1249 q 360 1258 378 1249 q 318 1283 343 1267 q 264 1310 283 1310 q 232 1297 246 1310 q 200 1254 218 1285 l 156 1276 q 263 1368 199 1368 q 300 1359 282 1368 q 339 1335 318 1350 q 372 1313 360 1319 q 397 1307 383 1307 q 430 1321 415 1307 q 461 1367 444 1335 l 506 1346 q 400 1249 468 1249 z "},"Ȁ":{"ha":664,"x_min":24,"x_max":640,"o":"m 558 0 l 492 261 l 169 261 l 103 0 l 24 0 l 282 951 l 382 951 l 640 0 l 558 0 m 188 328 l 474 328 l 331 885 l 188 328 m 193 1299 l 283 1089 l 238 1068 l 129 1264 l 193 1299 m 344 1297 l 426 1094 l 381 1074 l 281 1264 l 344 1297 z "},"Ä":{"ha":664,"x_min":24,"x_max":640,"o":"m 558 0 l 492 261 l 169 261 l 103 0 l 24 0 l 282 951 l 382 951 l 640 0 l 558 0 m 188 328 l 474 328 l 331 885 l 188 328 m 231 1203 q 269 1188 254 1203 q 283 1150 283 1172 q 269 1111 283 1126 q 231 1096 254 1096 q 194 1111 208 1096 q 179 1150 179 1126 q 194 1188 179 1172 q 231 1203 208 1203 m 450 1203 q 488 1188 474 1203 q 503 1150 503 1172 q 488 1111 503 1126 q 450 1096 474 1096 q 413 1111 428 1096 q 399 1150 399 1126 q 413 1188 399 1172 q 450 1203 428 1203 z "},"Ǟ":{"ha":664,"x_min":24,"x_max":640,"o":"m 558 0 l 492 261 l 169 261 l 103 0 l 24 0 l 282 951 l 382 951 l 640 0 l 558 0 m 188 328 l 474 328 l 331 885 l 188 328 m 224 1140 q 262 1125 247 1140 q 276 1088 276 1110 q 262 1049 276 1064 q 224 1033 247 1033 q 187 1049 201 1033 q 172 1088 172 1064 q 187 1125 172 1110 q 224 1140 201 1140 m 443 1140 q 481 1125 467 1140 q 496 1088 496 1110 q 481 1049 496 1064 q 443 1033 467 1033 q 406 1049 421 1033 q 392 1088 392 1064 q 406 1125 392 1110 q 443 1140 421 1140 m 475 1221 l 194 1221 l 194 1282 l 475 1282 l 475 1221 z "},"Ȧ":{"ha":664,"x_min":24,"x_max":640,"o":"m 558 0 l 492 261 l 169 261 l 103 0 l 24 0 l 282 951 l 382 951 l 640 0 l 558 0 m 188 328 l 474 328 l 331 885 l 188 328 m 333 1219 q 374 1203 358 1219 q 389 1161 389 1186 q 374 1122 389 1139 q 333 1106 358 1106 q 294 1122 310 1106 q 278 1161 278 1139 q 293 1203 278 1186 q 333 1219 308 1219 z "},"Ạ":{"ha":664,"x_min":24,"x_max":640,"o":"m 558 0 l 492 261 l 169 261 l 103 0 l 24 0 l 282 951 l 382 951 l 640 0 l 558 0 m 188 328 l 474 328 l 331 885 l 188 328 m 333 -235 q 293 -218 308 -235 q 278 -176 278 -201 q 293 -137 278 -154 q 333 -121 308 -121 q 373 -137 357 -121 q 389 -176 389 -154 q 374 -218 389 -201 q 333 -235 358 -235 z "},"Ǡ":{"ha":664,"x_min":24,"x_max":640,"o":"m 558 0 l 492 261 l 169 261 l 103 0 l 24 0 l 282 951 l 382 951 l 640 0 l 558 0 m 188 328 l 474 328 l 331 885 l 188 328 m 333 1146 q 374 1129 358 1146 q 389 1088 389 1113 q 374 1049 389 1065 q 333 1032 358 1032 q 294 1049 310 1032 q 278 1088 278 1065 q 293 1129 278 1113 q 333 1146 308 1146 m 474 1221 l 193 1221 l 193 1282 l 474 1282 l 474 1221 z "},"À":{"ha":664,"x_min":24,"x_max":640,"o":"m 558 0 l 492 261 l 169 261 l 103 0 l 24 0 l 282 951 l 382 951 l 640 0 l 558 0 m 188 328 l 474 328 l 331 885 l 188 328 m 239 1226 l 454 1097 l 431 1053 l 203 1158 l 239 1226 z "},"Ả":{"ha":664,"x_min":24,"x_max":640,"o":"m 558 0 l 492 261 l 169 261 l 103 0 l 24 0 l 282 951 l 382 951 l 640 0 l 558 0 m 188 328 l 474 328 l 331 885 l 188 328 m 303 1176 q 363 1194 343 1179 q 382 1242 382 1208 q 368 1284 382 1269 q 329 1299 354 1299 q 297 1294 311 1299 q 265 1281 283 1290 l 244 1326 q 340 1357 286 1357 q 419 1327 390 1357 q 449 1247 449 1297 q 363 1140 449 1154 l 363 1075 l 303 1075 l 303 1176 z "},"Ȃ":{"ha":664,"x_min":24,"x_max":640,"o":"m 558 0 l 492 261 l 169 261 l 103 0 l 24 0 l 282 951 l 382 951 l 640 0 l 558 0 m 188 328 l 474 328 l 331 885 l 188 328 m 332 1256 q 438 1215 396 1256 q 486 1103 479 1175 l 435 1092 q 332 1193 414 1193 q 231 1092 253 1193 l 181 1103 q 228 1215 188 1175 q 332 1256 269 1256 z "},"Ɑ":{"ha":774,"x_min":74,"x_max":701,"o":"m 647 140 q 659 85 647 104 q 701 51 671 67 l 676 -11 q 603 29 629 4 q 571 92 578 54 q 485 13 533 40 q 372 -15 438 -15 q 156 102 239 -15 q 74 457 74 219 q 113 741 74 626 q 222 911 153 856 q 376 967 290 967 q 569 868 497 967 l 578 951 l 647 951 l 647 140 m 379 54 q 567 171 492 54 l 567 788 q 386 897 499 897 q 220 792 282 897 q 158 457 158 686 q 218 149 158 244 q 379 54 278 54 z "},"Ā":{"ha":664,"x_min":24,"x_max":640,"o":"m 558 0 l 492 261 l 169 261 l 103 0 l 24 0 l 282 951 l 382 951 l 640 0 l 558 0 m 188 328 l 474 328 l 331 885 l 188 328 m 474 1115 l 193 1115 l 193 1176 l 474 1176 l 474 1115 z "},"Ą":{"ha":664,"x_min":24,"x_max":640,"o":"m 613 0 q 506 -78 536 -42 q 475 -167 475 -115 q 546 -237 475 -237 q 611 -229 574 -237 l 604 -292 q 538 -301 565 -301 q 441 -267 475 -301 q 407 -175 407 -232 q 443 -70 407 -115 q 554 14 479 -25 l 492 261 l 169 261 l 103 0 l 24 0 l 282 951 l 382 951 l 640 0 l 613 0 m 188 328 l 474 328 l 331 885 l 188 328 z "},"Å":{"ha":664,"x_min":24,"x_max":640,"o":"m 558 0 l 492 261 l 169 261 l 103 0 l 24 0 l 282 951 l 382 951 l 640 0 l 558 0 m 188 328 l 474 328 l 331 885 l 188 328 m 333 1314 q 418 1280 386 1314 q 450 1185 450 1246 q 418 1088 450 1122 q 333 1054 386 1054 q 249 1088 281 1054 q 217 1185 217 1122 q 249 1280 217 1246 q 333 1314 281 1314 m 333 1267 q 288 1248 303 1267 q 272 1185 272 1229 q 288 1121 272 1140 q 333 1101 303 1101 q 380 1121 364 1101 q 396 1185 396 1140 q 380 1248 396 1229 q 333 1267 364 1267 z "},"Ǻ":{"ha":664,"x_min":24,"x_max":640,"o":"m 558 0 l 492 261 l 169 261 l 103 0 l 24 0 l 282 951 l 382 951 l 640 0 l 558 0 m 188 328 l 474 328 l 331 885 l 188 328 m 338 1271 q 422 1237 390 1271 q 454 1142 454 1203 q 422 1045 454 1079 q 338 1011 390 1011 q 253 1045 285 1011 q 221 1142 221 1079 q 253 1237 221 1203 q 338 1271 285 1271 m 338 1224 q 292 1205 307 1224 q 276 1142 276 1186 q 292 1078 276 1097 q 338 1058 307 1058 q 384 1078 368 1058 q 400 1142 400 1097 q 384 1205 400 1186 q 338 1224 368 1224 m 429 1463 l 464 1394 l 235 1288 l 213 1332 l 429 1463 z "},"Ⱥ":{"ha":664,"x_min":24,"x_max":640,"o":"m 558 0 l 492 261 l 326 261 l 249 -97 l 206 -87 l 281 261 l 168 261 l 101 0 l 24 0 l 282 951 l 382 951 l 410 851 l 449 1033 l 492 1024 l 435 758 l 640 0 l 558 0 m 186 328 l 296 328 l 378 707 l 331 892 l 186 328 m 340 328 l 475 328 l 403 611 l 340 328 z "},"Ã":{"ha":664,"x_min":24,"x_max":640,"o":"m 558 0 l 492 261 l 169 261 l 103 0 l 24 0 l 282 951 l 382 951 l 640 0 l 558 0 m 188 328 l 474 328 l 331 885 l 188 328 m 403 1104 q 363 1113 381 1104 q 321 1139 346 1122 q 267 1165 286 1165 q 235 1153 249 1165 q 203 1110 221 1140 l 158 1132 q 265 1224 201 1224 q 303 1215 285 1224 q 342 1190 321 1206 q 374 1169 363 1175 q 400 1163 386 1163 q 433 1176 418 1163 q 464 1222 447 1190 l 508 1201 q 403 1104 471 1104 z "},"Æ":{"ha":900,"x_min":-3,"x_max":849,"o":"m 589 68 l 849 68 l 849 0 l 524 0 l 474 256 l 156 256 l 78 0 l -3 0 l 304 951 l 796 951 l 786 883 l 424 883 l 496 526 l 786 526 l 786 460 l 510 460 l 589 68 m 176 324 l 460 324 l 350 888 l 176 324 z "},"Ǽ":{"ha":900,"x_min":-3,"x_max":849,"o":"m 589 68 l 849 68 l 849 0 l 524 0 l 474 256 l 156 256 l 78 0 l -3 0 l 304 951 l 796 951 l 786 883 l 424 883 l 496 526 l 786 526 l 786 460 l 510 460 l 589 68 m 176 324 l 460 324 l 350 888 l 176 324 m 614 1228 l 649 1160 l 419 1053 l 397 1097 l 614 1228 z "},"Ǣ":{"ha":900,"x_min":-3,"x_max":849,"o":"m 589 68 l 849 68 l 849 0 l 524 0 l 474 256 l 156 256 l 78 0 l -3 0 l 304 951 l 796 951 l 786 883 l 424 883 l 496 526 l 786 526 l 786 460 l 510 460 l 589 68 m 176 324 l 460 324 l 350 888 l 176 324 m 663 1115 l 382 1115 l 382 1176 l 663 1176 l 663 1115 z "},"B":{"ha":683,"x_min":122,"x_max":626,"o":"m 424 504 q 626 263 626 472 q 548 67 626 135 q 329 0 469 0 l 122 0 l 122 951 l 292 951 q 513 890 436 951 q 590 714 590 828 q 424 504 590 546 m 201 885 l 201 533 l 324 533 q 460 580 414 533 q 507 708 507 626 q 300 885 507 885 l 201 885 m 331 68 q 543 263 543 68 q 490 418 543 368 q 332 468 438 468 l 201 468 l 201 68 l 331 68 z "},"Ḃ":{"ha":683,"x_min":122,"x_max":626,"o":"m 424 504 q 626 263 626 472 q 548 67 626 135 q 329 0 469 0 l 122 0 l 122 951 l 292 951 q 513 890 436 951 q 590 714 590 828 q 424 504 590 546 m 201 885 l 201 533 l 324 533 q 460 580 414 533 q 507 708 507 626 q 300 885 507 885 l 201 885 m 331 68 q 543 263 543 68 q 490 418 543 368 q 332 468 438 468 l 201 468 l 201 68 l 331 68 m 338 1219 q 378 1203 363 1219 q 393 1161 393 1186 q 378 1122 393 1139 q 338 1106 363 1106 q 298 1122 314 1106 q 282 1161 282 1139 q 297 1203 282 1186 q 338 1219 313 1219 z "},"Ḅ":{"ha":683,"x_min":122,"x_max":626,"o":"m 424 504 q 626 263 626 472 q 548 67 626 135 q 329 0 469 0 l 122 0 l 122 951 l 292 951 q 513 890 436 951 q 590 714 590 828 q 424 504 590 546 m 201 885 l 201 533 l 324 533 q 460 580 414 533 q 507 708 507 626 q 300 885 507 885 l 201 885 m 331 68 q 543 263 543 68 q 490 418 543 368 q 332 468 438 468 l 201 468 l 201 68 l 331 68 m 354 -235 q 314 -218 329 -235 q 299 -176 299 -201 q 314 -137 299 -154 q 354 -121 329 -121 q 394 -137 378 -121 q 410 -176 410 -154 q 394 -218 410 -201 q 354 -235 379 -235 z "},"Ꞵ":{"ha":683,"x_min":122,"x_max":626,"o":"m 424 504 q 626 271 626 472 q 552 70 626 140 q 356 0 478 0 q 201 29 276 0 l 201 -274 l 122 -274 l 122 951 l 292 951 q 513 890 436 951 q 590 714 590 828 q 424 504 590 546 m 351 68 q 492 117 440 68 q 543 271 543 167 q 332 468 543 468 l 286 468 l 294 533 l 331 533 q 461 580 415 533 q 507 708 507 626 q 300 885 507 885 l 201 885 l 201 93 q 351 68 268 68 z "},"Ɓ":{"ha":761,"x_min":17,"x_max":703,"o":"m 500 504 q 703 263 703 472 q 624 67 703 135 q 406 0 546 0 l 199 0 l 199 885 l 172 885 q 88 797 88 885 q 117 690 88 746 l 61 663 q 28 727 40 696 q 17 803 17 758 q 56 910 17 869 q 174 951 96 951 l 368 951 q 590 890 513 951 q 667 714 667 828 q 500 504 667 546 m 278 885 l 278 533 l 400 533 q 537 580 490 533 q 583 708 583 626 q 376 885 583 885 l 278 885 m 407 68 q 619 263 619 68 q 567 418 619 368 q 408 468 514 468 l 278 468 l 278 68 l 407 68 z "},"Ƀ":{"ha":690,"x_min":28,"x_max":633,"o":"m 431 504 q 633 263 633 472 q 555 67 633 135 q 336 0 476 0 l 129 0 l 129 243 l 28 243 l 28 307 l 129 307 l 129 951 l 299 951 q 520 890 443 951 q 597 714 597 828 q 431 504 597 546 m 208 885 l 208 533 l 331 533 q 467 580 421 533 q 514 708 514 626 q 307 885 514 885 l 208 885 m 338 68 q 550 263 550 68 q 497 418 550 368 q 339 468 444 468 l 208 468 l 208 307 l 400 307 l 400 243 l 208 243 l 208 68 l 338 68 z "},"Ƃ":{"ha":656,"x_min":122,"x_max":606,"o":"m 314 579 q 530 509 454 579 q 606 299 606 439 q 527 73 606 146 q 306 0 449 0 l 122 0 l 122 951 l 526 951 l 515 883 l 201 883 l 201 579 l 314 579 m 315 68 q 469 122 418 68 q 521 299 521 175 q 469 461 521 410 q 313 513 417 513 l 201 513 l 201 68 l 315 68 z "},"C":{"ha":632,"x_min":74,"x_max":608,"o":"m 394 967 q 505 945 457 967 q 600 879 553 924 l 557 829 q 480 881 517 865 q 397 897 443 897 q 224 799 289 897 q 158 476 158 700 q 223 157 158 258 q 397 56 288 56 q 486 75 450 56 q 563 131 522 94 l 608 81 q 396 -15 518 -15 q 162 108 250 -15 q 74 476 74 232 q 116 751 74 642 q 231 914 158 861 q 394 967 303 967 z "},"Ć":{"ha":632,"x_min":74,"x_max":608,"o":"m 394 967 q 505 945 457 967 q 600 879 553 924 l 557 829 q 480 881 517 865 q 397 897 443 897 q 224 799 289 897 q 158 476 158 700 q 223 157 158 258 q 397 56 288 56 q 486 75 450 56 q 563 131 522 94 l 608 81 q 396 -15 518 -15 q 162 108 250 -15 q 74 476 74 232 q 116 751 74 642 q 231 914 158 861 q 394 967 303 967 m 488 1228 l 522 1160 l 293 1053 l 271 1097 l 488 1228 z "},"Č":{"ha":632,"x_min":74,"x_max":608,"o":"m 394 967 q 505 945 457 967 q 600 879 553 924 l 557 829 q 480 881 517 865 q 397 897 443 897 q 224 799 289 897 q 158 476 158 700 q 223 157 158 258 q 397 56 288 56 q 486 75 450 56 q 563 131 522 94 l 608 81 q 396 -15 518 -15 q 162 108 250 -15 q 74 476 74 232 q 116 751 74 642 q 231 914 158 861 q 394 967 303 967 m 536 1229 l 568 1194 l 419 1050 l 371 1050 l 222 1194 l 254 1229 l 396 1118 l 536 1229 z "},"Ç":{"ha":632,"x_min":74,"x_max":608,"o":"m 608 81 q 414 -15 525 -8 l 414 -92 q 519 -197 519 -106 q 484 -283 519 -253 q 396 -314 449 -314 q 300 -286 343 -314 l 326 -240 q 392 -258 357 -258 q 437 -243 419 -258 q 454 -197 454 -228 q 430 -149 454 -164 q 351 -133 406 -133 l 361 -14 q 151 124 229 1 q 74 476 74 247 q 116 751 74 642 q 231 914 158 861 q 394 967 303 967 q 505 945 457 967 q 600 879 553 924 l 557 829 q 480 881 517 865 q 397 897 443 897 q 224 799 289 897 q 158 476 158 700 q 223 157 158 258 q 397 56 288 56 q 486 75 450 56 q 563 131 522 94 l 608 81 z "},"Ĉ":{"ha":632,"x_min":74,"x_max":608,"o":"m 394 967 q 505 945 457 967 q 600 879 553 924 l 557 829 q 480 881 517 865 q 397 897 443 897 q 224 799 289 897 q 158 476 158 700 q 223 157 158 258 q 397 56 288 56 q 486 75 450 56 q 563 131 522 94 l 608 81 q 396 -15 518 -15 q 162 108 250 -15 q 74 476 74 232 q 116 751 74 642 q 231 914 158 861 q 394 967 303 967 m 256 1061 l 222 1096 l 371 1239 l 419 1239 l 568 1096 l 533 1061 l 394 1171 l 256 1061 z "},"Ċ":{"ha":632,"x_min":74,"x_max":608,"o":"m 394 967 q 505 945 457 967 q 600 879 553 924 l 557 829 q 480 881 517 865 q 397 897 443 897 q 224 799 289 897 q 158 476 158 700 q 223 157 158 258 q 397 56 288 56 q 486 75 450 56 q 563 131 522 94 l 608 81 q 396 -15 518 -15 q 162 108 250 -15 q 74 476 74 232 q 116 751 74 642 q 231 914 158 861 q 394 967 303 967 m 396 1219 q 436 1203 421 1219 q 451 1161 451 1186 q 436 1122 451 1139 q 396 1106 421 1106 q 356 1122 372 1106 q 340 1161 340 1139 q 356 1203 340 1186 q 396 1219 371 1219 z "},"Ꭓ":{"ha":583,"x_min":10,"x_max":574,"o":"m 338 440 l 574 -158 l 483 -158 l 288 386 l 96 -158 l 10 -158 l 239 438 l 32 951 l 122 951 l 290 489 l 457 951 l 543 951 l 338 440 z "},"Ƈ":{"ha":632,"x_min":74,"x_max":790,"o":"m 668 1144 q 790 1099 736 1144 l 757 1049 q 717 1072 736 1064 q 675 1081 699 1081 q 600 979 600 1081 l 600 879 l 558 833 q 480 882 517 867 q 397 897 443 897 q 224 799 289 897 q 158 476 158 700 q 223 157 158 258 q 397 56 288 56 q 486 75 450 56 q 563 131 522 94 l 608 81 q 396 -15 518 -15 q 162 108 250 -15 q 74 476 74 232 q 116 751 74 642 q 231 914 158 861 q 393 967 303 967 q 525 925 468 967 l 525 976 q 564 1101 525 1057 q 668 1144 603 1144 z "},"Ȼ":{"ha":632,"x_min":74,"x_max":608,"o":"m 608 81 q 396 -15 518 -15 q 293 3 339 -15 l 271 -97 l 229 -87 l 253 22 q 121 185 168 71 q 74 476 74 299 q 116 751 74 642 q 231 914 158 861 q 394 967 303 967 q 457 961 418 967 l 472 1033 l 514 1024 l 497 949 q 600 879 550 928 l 557 829 q 483 881 519 863 l 308 75 q 397 56 351 56 q 486 75 450 56 q 563 131 522 94 l 608 81 m 158 476 q 269 101 158 197 l 442 893 q 397 897 421 897 q 224 799 289 897 q 158 476 158 700 z "},"D":{"ha":725,"x_min":122,"x_max":651,"o":"m 283 951 q 551 851 450 951 q 651 483 651 751 q 550 107 651 214 q 296 0 449 0 l 122 0 l 122 951 l 283 951 m 201 883 l 201 67 l 301 67 q 493 157 419 67 q 567 483 567 247 q 528 737 567 649 q 432 854 490 825 q 294 883 374 883 l 201 883 z "},"Ǳ":{"ha":1278,"x_min":122,"x_max":1229,"o":"m 283 951 q 551 851 450 951 q 651 483 651 751 q 550 107 651 214 q 296 0 449 0 l 122 0 l 122 951 l 283 951 m 201 883 l 201 67 l 301 67 q 493 157 419 67 q 567 483 567 247 q 528 737 567 649 q 432 854 490 825 q 294 883 374 883 l 201 883 m 1229 951 l 1229 885 l 813 72 l 1224 72 l 1214 0 l 729 0 l 729 67 l 1146 882 l 769 882 l 769 951 l 1229 951 z "},"Ǆ":{"ha":1278,"x_min":122,"x_max":1229,"o":"m 283 951 q 551 851 450 951 q 651 483 651 751 q 550 107 651 214 q 296 0 449 0 l 122 0 l 122 951 l 283 951 m 201 883 l 201 67 l 301 67 q 493 157 419 67 q 567 483 567 247 q 528 737 567 649 q 432 854 490 825 q 294 883 374 883 l 201 883 m 1229 951 l 1229 885 l 813 72 l 1224 72 l 1214 0 l 729 0 l 729 67 l 1146 882 l 769 882 l 769 951 l 1229 951 m 1131 1229 l 1163 1194 l 1014 1050 l 965 1050 l 817 1194 l 849 1229 l 990 1118 l 1131 1229 z "},"Ɖ":{"ha":735,"x_min":28,"x_max":661,"o":"m 293 951 q 560 851 460 951 q 661 483 661 751 q 560 107 661 214 q 306 0 458 0 l 132 0 l 132 457 l 28 457 l 28 522 l 132 522 l 132 951 l 293 951 m 311 67 q 503 157 429 67 q 576 483 576 247 q 538 737 576 649 q 442 854 500 825 q 304 883 383 883 l 211 883 l 211 522 l 399 522 l 399 457 l 211 457 l 211 67 l 311 67 z "},"Ð":{"ha":735,"x_min":28,"x_max":661,"o":"m 293 951 q 560 851 460 951 q 661 483 661 751 q 560 107 661 214 q 306 0 458 0 l 132 0 l 132 457 l 28 457 l 28 522 l 132 522 l 132 951 l 293 951 m 311 67 q 503 157 429 67 q 576 483 576 247 q 538 737 576 649 q 442 854 500 825 q 304 883 383 883 l 211 883 l 211 522 l 399 522 l 399 457 l 211 457 l 211 67 l 311 67 z "},"Ď":{"ha":725,"x_min":122,"x_max":651,"o":"m 283 951 q 551 851 450 951 q 651 483 651 751 q 550 107 651 214 q 296 0 449 0 l 122 0 l 122 951 l 283 951 m 201 883 l 201 67 l 301 67 q 493 157 419 67 q 567 483 567 247 q 528 737 567 649 q 432 854 490 825 q 294 883 374 883 l 201 883 m 482 1229 l 514 1194 l 365 1050 l 317 1050 l 168 1194 l 200 1229 l 342 1118 l 482 1229 z "},"Ḓ":{"ha":725,"x_min":122,"x_max":651,"o":"m 283 951 q 551 851 450 951 q 651 483 651 751 q 550 107 651 214 q 296 0 449 0 l 122 0 l 122 951 l 283 951 m 201 883 l 201 67 l 301 67 q 493 157 419 67 q 567 483 567 247 q 528 737 567 649 q 432 854 490 825 q 294 883 374 883 l 201 883 m 204 -282 l 171 -247 l 319 -97 l 368 -97 l 517 -247 l 482 -282 l 343 -164 l 204 -282 z "},"Đ":{"ha":735,"x_min":28,"x_max":661,"o":"m 293 951 q 560 851 460 951 q 661 483 661 751 q 560 107 661 214 q 306 0 458 0 l 132 0 l 132 457 l 28 457 l 28 522 l 132 522 l 132 951 l 293 951 m 311 67 q 503 157 429 67 q 576 483 576 247 q 538 737 576 649 q 442 854 500 825 q 304 883 383 883 l 211 883 l 211 522 l 399 522 l 399 457 l 211 457 l 211 67 l 311 67 z "},"Ḋ":{"ha":725,"x_min":122,"x_max":651,"o":"m 283 951 q 551 851 450 951 q 651 483 651 751 q 550 107 651 214 q 296 0 449 0 l 122 0 l 122 951 l 283 951 m 201 883 l 201 67 l 301 67 q 493 157 419 67 q 567 483 567 247 q 528 737 567 649 q 432 854 490 825 q 294 883 374 883 l 201 883 m 342 1219 q 382 1203 367 1219 q 397 1161 397 1186 q 382 1122 397 1139 q 342 1106 367 1106 q 302 1122 318 1106 q 286 1161 286 1139 q 301 1203 286 1186 q 342 1219 317 1219 z "},"Ḍ":{"ha":725,"x_min":122,"x_max":651,"o":"m 283 951 q 551 851 450 951 q 651 483 651 751 q 550 107 651 214 q 296 0 449 0 l 122 0 l 122 951 l 283 951 m 201 883 l 201 67 l 301 67 q 493 157 419 67 q 567 483 567 247 q 528 737 567 649 q 432 854 490 825 q 294 883 374 883 l 201 883 m 343 -235 q 303 -218 318 -235 q 288 -176 288 -201 q 303 -137 288 -154 q 343 -121 318 -121 q 383 -137 367 -121 q 399 -176 399 -154 q 383 -218 399 -201 q 343 -235 368 -235 z "},"Ɗ":{"ha":803,"x_min":17,"x_max":728,"o":"m 360 951 q 627 851 526 951 q 728 483 728 751 q 626 107 728 214 q 372 0 525 0 l 199 0 l 199 885 l 172 885 q 88 797 88 885 q 117 690 88 746 l 61 663 q 28 727 40 696 q 17 803 17 758 q 56 910 17 869 q 174 951 96 951 l 360 951 m 378 67 q 569 157 496 67 q 643 483 643 247 q 605 737 643 649 q 508 854 567 825 q 371 883 450 883 l 278 883 l 278 67 l 378 67 z "},"Ḏ":{"ha":725,"x_min":122,"x_max":651,"o":"m 283 951 q 551 851 450 951 q 651 483 651 751 q 550 107 651 214 q 296 0 449 0 l 122 0 l 122 951 l 283 951 m 201 883 l 201 67 l 301 67 q 493 157 419 67 q 567 483 567 247 q 528 737 567 649 q 432 854 490 825 q 294 883 374 883 l 201 883 m 485 -218 l 204 -218 l 204 -157 l 485 -157 l 485 -218 z "},"Ƌ":{"ha":656,"x_min":50,"x_max":533,"o":"m 533 0 l 350 0 q 128 70 207 0 q 50 286 50 140 q 129 504 50 429 q 357 579 208 579 l 453 579 l 453 883 l 133 883 l 133 951 l 533 951 l 533 0 m 453 68 l 453 513 l 358 513 q 190 458 244 513 q 135 286 135 403 q 189 118 135 168 q 356 68 243 68 l 453 68 z "},"ǲ":{"ha":1196,"x_min":122,"x_max":1160,"o":"m 283 951 q 551 851 450 951 q 651 483 651 751 q 550 107 651 214 q 296 0 449 0 l 122 0 l 122 951 l 283 951 m 201 883 l 201 67 l 301 67 q 493 157 419 67 q 567 483 567 247 q 528 737 567 649 q 432 854 490 825 q 294 883 374 883 l 201 883 m 1160 726 l 1160 665 l 824 68 l 1157 68 l 1150 0 l 740 0 l 740 60 l 1076 658 l 768 658 l 768 726 l 1160 726 z "},"ǅ":{"ha":1196,"x_min":122,"x_max":1160,"o":"m 283 951 q 551 851 450 951 q 651 483 651 751 q 550 107 651 214 q 296 0 449 0 l 122 0 l 122 951 l 283 951 m 201 883 l 201 67 l 301 67 q 493 157 419 67 q 567 483 567 247 q 528 737 567 649 q 432 854 490 825 q 294 883 374 883 l 201 883 m 1160 726 l 1160 665 l 824 68 l 1157 68 l 1150 0 l 740 0 l 740 60 l 1076 658 l 768 658 l 768 726 l 1160 726 m 1099 1065 l 1132 1029 l 983 881 l 935 881 l 786 1029 l 819 1065 l 960 944 l 1099 1065 z "},"E":{"ha":583,"x_min":122,"x_max":533,"o":"m 526 951 l 518 883 l 201 883 l 201 526 l 475 526 l 475 460 l 201 460 l 201 68 l 533 68 l 533 0 l 122 0 l 122 951 l 526 951 z "},"É":{"ha":583,"x_min":122,"x_max":533,"o":"m 526 951 l 518 883 l 201 883 l 201 526 l 475 526 l 475 460 l 201 460 l 201 68 l 533 68 l 533 0 l 122 0 l 122 951 l 526 951 m 421 1228 l 456 1160 l 226 1053 l 204 1097 l 421 1228 z "},"Ĕ":{"ha":583,"x_min":122,"x_max":533,"o":"m 526 951 l 518 883 l 201 883 l 201 526 l 475 526 l 475 460 l 201 460 l 201 68 l 533 68 l 533 0 l 122 0 l 122 951 l 526 951 m 328 1063 q 225 1099 267 1063 q 176 1200 183 1136 l 226 1213 q 263 1149 238 1172 q 328 1126 289 1126 q 394 1149 367 1126 q 432 1213 421 1172 l 482 1200 q 433 1099 475 1136 q 328 1063 390 1063 z "},"Ě":{"ha":583,"x_min":122,"x_max":533,"o":"m 526 951 l 518 883 l 201 883 l 201 526 l 475 526 l 475 460 l 201 460 l 201 68 l 533 68 l 533 0 l 122 0 l 122 951 l 526 951 m 469 1229 l 501 1194 l 353 1050 l 304 1050 l 156 1194 l 188 1229 l 329 1118 l 469 1229 z "},"Ȩ":{"ha":583,"x_min":122,"x_max":533,"o":"m 346 0 l 346 -92 q 451 -197 451 -106 q 416 -283 451 -253 q 328 -314 381 -314 q 232 -286 275 -314 l 258 -240 q 324 -258 289 -258 q 369 -243 351 -258 q 386 -197 386 -228 q 362 -149 386 -164 q 283 -133 338 -133 l 294 0 l 122 0 l 122 951 l 526 951 l 518 883 l 201 883 l 201 526 l 475 526 l 475 460 l 201 460 l 201 68 l 533 68 l 533 0 l 346 0 z "},"Ê":{"ha":583,"x_min":122,"x_max":533,"o":"m 526 951 l 518 883 l 201 883 l 201 526 l 475 526 l 475 460 l 201 460 l 201 68 l 533 68 l 533 0 l 122 0 l 122 951 l 526 951 m 189 1061 l 156 1096 l 304 1239 l 353 1239 l 501 1096 l 467 1061 l 328 1171 l 189 1061 z "},"Ế":{"ha":583,"x_min":122,"x_max":618,"o":"m 526 951 l 518 883 l 201 883 l 201 526 l 475 526 l 475 460 l 201 460 l 201 68 l 533 68 l 533 0 l 122 0 l 122 951 l 526 951 m 193 1014 l 160 1049 l 308 1192 l 357 1192 l 506 1049 l 471 1014 l 332 1124 l 193 1014 m 563 1372 l 618 1328 l 469 1156 l 433 1186 l 563 1372 z "},"Ệ":{"ha":583,"x_min":122,"x_max":533,"o":"m 526 951 l 518 883 l 201 883 l 201 526 l 475 526 l 475 460 l 201 460 l 201 68 l 533 68 l 533 0 l 122 0 l 122 951 l 526 951 m 189 1061 l 156 1096 l 304 1239 l 353 1239 l 501 1096 l 467 1061 l 328 1171 l 189 1061 m 325 -235 q 285 -218 300 -235 q 269 -176 269 -201 q 285 -137 269 -154 q 325 -121 300 -121 q 365 -137 349 -121 q 381 -176 381 -154 q 365 -218 381 -201 q 325 -235 350 -235 z "},"Ề":{"ha":583,"x_min":49,"x_max":533,"o":"m 526 951 l 518 883 l 201 883 l 201 526 l 475 526 l 475 460 l 201 460 l 201 68 l 533 68 l 533 0 l 122 0 l 122 951 l 526 951 m 189 1014 l 156 1049 l 304 1192 l 353 1192 l 501 1049 l 467 1014 l 328 1124 l 189 1014 m 104 1372 l 233 1186 l 197 1156 l 49 1328 l 104 1372 z "},"Ể":{"ha":583,"x_min":122,"x_max":594,"o":"m 526 951 l 518 883 l 201 883 l 201 526 l 475 526 l 475 460 l 201 460 l 201 68 l 533 68 l 533 0 l 122 0 l 122 951 l 526 951 m 189 1014 l 156 1049 l 304 1192 l 353 1192 l 501 1049 l 467 1014 l 328 1124 l 189 1014 m 449 1229 q 508 1247 489 1232 q 528 1294 528 1261 q 514 1337 528 1322 q 475 1351 500 1351 q 443 1347 457 1351 q 411 1333 429 1343 l 390 1379 q 486 1410 432 1410 q 565 1380 536 1410 q 594 1300 594 1350 q 508 1193 594 1207 l 508 1128 l 449 1128 l 449 1229 z "},"Ễ":{"ha":583,"x_min":122,"x_max":533,"o":"m 526 951 l 518 883 l 201 883 l 201 526 l 475 526 l 475 460 l 201 460 l 201 68 l 533 68 l 533 0 l 122 0 l 122 951 l 526 951 m 188 1014 l 154 1049 l 303 1192 l 351 1192 l 500 1049 l 465 1014 l 326 1124 l 188 1014 m 396 1249 q 356 1258 374 1249 q 314 1283 339 1267 q 260 1310 279 1310 q 228 1297 242 1310 q 196 1254 214 1285 l 151 1276 q 258 1368 194 1368 q 296 1359 278 1368 q 335 1335 314 1350 q 367 1313 356 1319 q 393 1307 379 1307 q 426 1321 411 1307 q 457 1367 440 1335 l 501 1346 q 396 1249 464 1249 z "},"Ȅ":{"ha":583,"x_min":122,"x_max":533,"o":"m 526 951 l 518 883 l 201 883 l 201 526 l 475 526 l 475 460 l 201 460 l 201 68 l 533 68 l 533 0 l 122 0 l 122 951 l 526 951 m 189 1299 l 279 1089 l 233 1068 l 125 1264 l 189 1299 m 340 1297 l 422 1094 l 376 1074 l 276 1264 l 340 1297 z "},"Ë":{"ha":583,"x_min":122,"x_max":533,"o":"m 526 951 l 518 883 l 201 883 l 201 526 l 475 526 l 475 460 l 201 460 l 201 68 l 533 68 l 533 0 l 122 0 l 122 951 l 526 951 m 226 1203 q 265 1188 250 1203 q 279 1150 279 1172 q 265 1111 279 1126 q 226 1096 250 1096 q 190 1111 204 1096 q 175 1150 175 1126 q 190 1188 175 1172 q 226 1203 204 1203 m 446 1203 q 484 1188 469 1203 q 499 1150 499 1172 q 484 1111 499 1126 q 446 1096 469 1096 q 409 1111 424 1096 q 394 1150 394 1126 q 409 1188 394 1172 q 446 1203 424 1203 z "},"Ė":{"ha":583,"x_min":122,"x_max":533,"o":"m 526 951 l 518 883 l 201 883 l 201 526 l 475 526 l 475 460 l 201 460 l 201 68 l 533 68 l 533 0 l 122 0 l 122 951 l 526 951 m 329 1219 q 369 1203 354 1219 q 385 1161 385 1186 q 369 1122 385 1139 q 329 1106 354 1106 q 290 1122 306 1106 q 274 1161 274 1139 q 289 1203 274 1186 q 329 1219 304 1219 z "},"Ẹ":{"ha":583,"x_min":122,"x_max":533,"o":"m 526 951 l 518 883 l 201 883 l 201 526 l 475 526 l 475 460 l 201 460 l 201 68 l 533 68 l 533 0 l 122 0 l 122 951 l 526 951 m 325 -235 q 285 -218 300 -235 q 269 -176 269 -201 q 285 -137 269 -154 q 325 -121 300 -121 q 365 -137 349 -121 q 381 -176 381 -154 q 365 -218 381 -201 q 325 -235 350 -235 z "},"È":{"ha":583,"x_min":122,"x_max":533,"o":"m 526 951 l 518 883 l 201 883 l 201 526 l 475 526 l 475 460 l 201 460 l 201 68 l 533 68 l 533 0 l 122 0 l 122 951 l 526 951 m 235 1226 l 450 1097 l 426 1053 l 199 1158 l 235 1226 z "},"Ẻ":{"ha":583,"x_min":122,"x_max":533,"o":"m 526 951 l 518 883 l 201 883 l 201 526 l 475 526 l 475 460 l 201 460 l 201 68 l 533 68 l 533 0 l 122 0 l 122 951 l 526 951 m 299 1176 q 358 1194 339 1179 q 378 1242 378 1208 q 364 1284 378 1269 q 325 1299 350 1299 q 293 1294 307 1299 q 261 1281 279 1290 l 240 1326 q 336 1357 282 1357 q 415 1327 386 1357 q 444 1247 444 1297 q 358 1140 444 1154 l 358 1075 l 299 1075 l 299 1176 z "},"Ȇ":{"ha":583,"x_min":122,"x_max":533,"o":"m 526 951 l 518 883 l 201 883 l 201 526 l 475 526 l 475 460 l 201 460 l 201 68 l 533 68 l 533 0 l 122 0 l 122 951 l 526 951 m 328 1256 q 433 1215 392 1256 q 482 1103 475 1175 l 431 1092 q 328 1193 410 1193 q 226 1092 249 1193 l 176 1103 q 224 1215 183 1175 q 328 1256 265 1256 z "},"Ē":{"ha":583,"x_min":122,"x_max":533,"o":"m 526 951 l 518 883 l 201 883 l 201 526 l 475 526 l 475 460 l 201 460 l 201 68 l 533 68 l 533 0 l 122 0 l 122 951 l 526 951 m 469 1115 l 189 1115 l 189 1176 l 469 1176 l 469 1115 z "},"Ę":{"ha":583,"x_min":122,"x_max":533,"o":"m 533 68 l 533 0 l 496 0 q 389 -78 419 -42 q 358 -167 358 -115 q 429 -237 358 -237 q 494 -229 457 -237 l 488 -292 q 421 -301 449 -301 q 324 -267 358 -301 q 290 -175 290 -232 q 321 -77 290 -119 q 413 0 351 -35 l 122 0 l 122 951 l 526 951 l 518 883 l 201 883 l 201 526 l 475 526 l 475 460 l 201 460 l 201 68 l 533 68 z "},"Ɛ":{"ha":596,"x_min":57,"x_max":574,"o":"m 315 967 q 442 938 385 967 q 551 850 499 908 l 506 804 q 321 897 421 897 q 206 850 247 897 q 165 726 165 803 q 211 592 165 640 q 333 544 257 544 l 404 544 l 394 475 l 332 475 q 191 424 240 476 q 142 272 142 371 q 192 111 142 167 q 329 56 242 56 q 435 81 389 56 q 524 156 482 106 l 574 114 q 328 -15 474 -15 q 188 19 250 -15 q 92 118 126 53 q 57 272 57 183 q 108 440 57 379 q 235 514 158 501 q 123 585 164 532 q 82 728 82 639 q 145 900 82 833 q 315 967 208 967 z "},"Ǝ":{"ha":583,"x_min":50,"x_max":463,"o":"m 58 951 l 463 951 l 463 0 l 50 0 l 50 68 l 382 68 l 382 460 l 108 460 l 108 526 l 382 526 l 382 883 l 58 883 l 58 951 z "},"Ʃ":{"ha":564,"x_min":50,"x_max":515,"o":"m 515 951 l 515 883 l 143 883 l 383 494 l 383 449 l 140 69 l 515 69 l 515 0 l 50 0 l 50 58 l 313 471 l 50 893 l 50 951 l 515 951 z "},"Ɇ":{"ha":583,"x_min":122,"x_max":533,"o":"m 533 68 l 533 0 l 258 0 l 238 -97 l 196 -89 l 215 0 l 122 0 l 122 951 l 421 951 l 439 1033 l 478 1025 l 463 951 l 526 951 l 518 883 l 447 883 l 371 526 l 475 526 l 475 460 l 357 460 l 272 68 l 533 68 m 201 883 l 201 526 l 329 526 l 407 883 l 201 883 m 201 68 l 229 68 l 315 460 l 201 460 l 201 68 z "},"Ẽ":{"ha":583,"x_min":122,"x_max":533,"o":"m 526 951 l 518 883 l 201 883 l 201 526 l 475 526 l 475 460 l 201 460 l 201 68 l 533 68 l 533 0 l 122 0 l 122 951 l 526 951 m 399 1104 q 359 1113 376 1104 q 317 1139 342 1122 q 263 1165 282 1165 q 231 1153 244 1165 q 199 1110 217 1140 l 154 1132 q 261 1224 197 1224 q 299 1215 281 1224 q 338 1190 317 1206 q 370 1169 358 1175 q 396 1163 382 1163 q 428 1176 414 1163 q 460 1222 443 1190 l 504 1201 q 399 1104 467 1104 z "},"Ʒ":{"ha":564,"x_min":15,"x_max":514,"o":"m 244 535 q 514 263 514 535 q 444 62 514 139 q 256 -15 375 -15 q 117 15 176 -15 q 15 104 58 44 l 65 146 q 149 75 107 96 q 251 54 192 54 q 385 110 339 54 q 432 264 432 167 q 383 423 432 375 q 236 471 333 471 l 143 471 l 143 533 l 399 883 l 43 883 l 43 951 l 485 951 l 485 886 l 228 535 l 244 535 z "},"Ǯ":{"ha":564,"x_min":15,"x_max":514,"o":"m 244 535 q 514 263 514 535 q 444 62 514 139 q 256 -15 375 -15 q 117 15 176 -15 q 15 104 58 44 l 65 146 q 149 75 107 96 q 251 54 192 54 q 385 110 339 54 q 432 264 432 167 q 383 423 432 375 q 236 471 333 471 l 143 471 l 143 533 l 399 883 l 43 883 l 43 951 l 485 951 l 485 886 l 228 535 l 244 535 m 404 1229 l 436 1194 l 288 1050 l 239 1050 l 90 1194 l 122 1229 l 264 1118 l 404 1229 z "},"Ƹ":{"ha":564,"x_min":49,"x_max":549,"o":"m 549 104 q 442 15 500 44 q 306 -15 383 -15 q 117 58 186 -15 q 49 258 49 132 q 116 465 49 394 q 318 535 183 535 l 336 535 l 78 886 l 78 951 l 521 951 l 521 883 l 164 883 l 419 533 l 419 471 l 326 471 q 181 420 229 471 q 132 258 132 369 q 176 107 132 160 q 307 54 221 54 q 408 75 365 54 q 497 146 451 96 l 549 104 z "},"F":{"ha":549,"x_min":122,"x_max":519,"o":"m 122 0 l 122 951 l 519 951 l 510 883 l 201 883 l 201 510 l 468 510 l 468 443 l 201 443 l 201 0 l 122 0 z "},"Ḟ":{"ha":549,"x_min":122,"x_max":519,"o":"m 122 0 l 122 951 l 519 951 l 510 883 l 201 883 l 201 510 l 468 510 l 468 443 l 201 443 l 201 0 l 122 0 m 332 1219 q 372 1203 357 1219 q 388 1161 388 1186 q 372 1122 388 1139 q 332 1106 357 1106 q 292 1122 308 1106 q 276 1161 276 1139 q 292 1203 276 1186 q 332 1219 307 1219 z "},"Ƒ":{"ha":549,"x_min":-69,"x_max":519,"o":"m 201 883 l 201 510 l 468 510 l 468 443 l 201 443 l 201 1 l 203 1 l 203 -124 q 161 -243 203 -201 q 54 -285 119 -285 q -69 -237 -14 -285 l -33 -187 q 50 -218 7 -218 q 122 -125 122 -218 l 122 951 l 519 951 l 510 883 l 201 883 z "},"G":{"ha":713,"x_min":74,"x_max":636,"o":"m 407 967 q 522 944 472 967 q 624 872 572 921 l 579 825 q 496 881 535 864 q 407 897 457 897 q 229 800 300 897 q 158 479 158 703 q 221 153 158 253 q 401 54 283 54 q 485 66 447 54 q 558 103 522 78 l 558 444 l 411 444 l 403 513 l 636 513 l 636 63 q 403 -15 528 -15 q 160 106 246 -15 q 74 479 74 226 q 119 754 74 644 q 241 915 165 864 q 407 967 317 967 z "},"Ǵ":{"ha":713,"x_min":74,"x_max":636,"o":"m 407 967 q 522 944 472 967 q 624 872 572 921 l 579 825 q 496 881 535 864 q 407 897 457 897 q 229 800 300 897 q 158 479 158 703 q 221 153 158 253 q 401 54 283 54 q 485 66 447 54 q 558 103 522 78 l 558 444 l 411 444 l 403 513 l 636 513 l 636 63 q 403 -15 528 -15 q 160 106 246 -15 q 74 479 74 226 q 119 754 74 644 q 241 915 165 864 q 407 967 317 967 m 494 1228 l 529 1160 l 300 1053 l 278 1097 l 494 1228 z "},"Ɣ":{"ha":642,"x_min":24,"x_max":618,"o":"m 368 82 q 421 -62 406 -12 q 436 -164 436 -112 q 407 -253 436 -221 q 322 -285 378 -285 q 237 -253 267 -285 q 207 -165 207 -222 q 222 -69 207 -119 q 275 82 236 -19 l 24 951 l 106 951 l 322 140 l 539 951 l 618 951 l 368 82 m 365 -160 q 356 -85 365 -124 q 322 28 346 -46 q 288 -83 297 -44 q 278 -160 278 -122 q 322 -219 278 -219 q 365 -160 365 -219 z "},"Ğ":{"ha":713,"x_min":74,"x_max":636,"o":"m 407 967 q 522 944 472 967 q 624 872 572 921 l 579 825 q 496 881 535 864 q 407 897 457 897 q 229 800 300 897 q 158 479 158 703 q 221 153 158 253 q 401 54 283 54 q 485 66 447 54 q 558 103 522 78 l 558 444 l 411 444 l 403 513 l 636 513 l 636 63 q 403 -15 528 -15 q 160 106 246 -15 q 74 479 74 226 q 119 754 74 644 q 241 915 165 864 q 407 967 317 967 m 401 1063 q 299 1099 340 1063 q 250 1200 257 1136 l 300 1213 q 337 1149 311 1172 q 401 1126 363 1126 q 467 1149 440 1126 q 506 1213 494 1172 l 556 1200 q 506 1099 549 1136 q 401 1063 464 1063 z "},"Ǧ":{"ha":713,"x_min":74,"x_max":636,"o":"m 407 967 q 522 944 472 967 q 624 872 572 921 l 579 825 q 496 881 535 864 q 407 897 457 897 q 229 800 300 897 q 158 479 158 703 q 221 153 158 253 q 401 54 283 54 q 485 66 447 54 q 558 103 522 78 l 558 444 l 411 444 l 403 513 l 636 513 l 636 63 q 403 -15 528 -15 q 160 106 246 -15 q 74 479 74 226 q 119 754 74 644 q 241 915 165 864 q 407 967 317 967 m 543 1229 l 575 1194 l 426 1050 l 378 1050 l 229 1194 l 261 1229 l 403 1118 l 543 1229 z "},"Ĝ":{"ha":713,"x_min":74,"x_max":636,"o":"m 407 967 q 522 944 472 967 q 624 872 572 921 l 579 825 q 496 881 535 864 q 407 897 457 897 q 229 800 300 897 q 158 479 158 703 q 221 153 158 253 q 401 54 283 54 q 485 66 447 54 q 558 103 522 78 l 558 444 l 411 444 l 403 513 l 636 513 l 636 63 q 403 -15 528 -15 q 160 106 246 -15 q 74 479 74 226 q 119 754 74 644 q 241 915 165 864 q 407 967 317 967 m 263 1061 l 229 1096 l 378 1239 l 426 1239 l 575 1096 l 540 1061 l 401 1171 l 263 1061 z "},"Ģ":{"ha":713,"x_min":74,"x_max":636,"o":"m 407 967 q 522 944 472 967 q 624 872 572 921 l 579 825 q 496 881 535 864 q 407 897 457 897 q 229 800 300 897 q 158 479 158 703 q 221 153 158 253 q 401 54 283 54 q 485 66 447 54 q 558 103 522 78 l 558 444 l 411 444 l 403 513 l 636 513 l 636 63 q 403 -15 528 -15 q 160 106 246 -15 q 74 479 74 226 q 119 754 74 644 q 241 915 165 864 q 407 967 317 967 m 389 -118 q 429 -134 414 -118 q 444 -175 444 -150 q 438 -213 444 -192 q 418 -267 431 -235 l 372 -386 l 326 -386 l 367 -228 q 333 -175 333 -210 q 349 -134 333 -150 q 389 -118 364 -118 z "},"Ġ":{"ha":713,"x_min":74,"x_max":636,"o":"m 407 967 q 522 944 472 967 q 624 872 572 921 l 579 825 q 496 881 535 864 q 407 897 457 897 q 229 800 300 897 q 158 479 158 703 q 221 153 158 253 q 401 54 283 54 q 485 66 447 54 q 558 103 522 78 l 558 444 l 411 444 l 403 513 l 636 513 l 636 63 q 403 -15 528 -15 q 160 106 246 -15 q 74 479 74 226 q 119 754 74 644 q 241 915 165 864 q 407 967 317 967 m 403 1219 q 443 1203 428 1219 q 458 1161 458 1186 q 443 1122 458 1139 q 403 1106 428 1106 q 363 1122 379 1106 q 347 1161 347 1139 q 363 1203 347 1186 q 403 1219 378 1219 z "},"Ɠ":{"ha":657,"x_min":74,"x_max":815,"o":"m 693 1144 q 815 1099 761 1144 l 782 1049 q 742 1072 761 1064 q 700 1081 724 1081 q 624 979 624 1081 l 624 872 l 583 829 q 497 881 536 865 q 407 897 457 897 q 229 800 300 897 q 158 479 158 703 q 221 153 158 253 q 401 54 283 54 q 485 66 447 54 q 558 103 522 78 l 558 444 l 411 444 l 403 513 l 636 513 l 636 63 q 403 -15 528 -15 q 160 106 246 -15 q 74 479 74 226 q 119 754 74 644 q 240 915 165 864 q 406 967 315 967 q 550 922 486 967 l 550 976 q 589 1101 550 1057 q 693 1144 628 1144 z "},"Ɂ":{"ha":524,"x_min":11,"x_max":492,"o":"m 172 422 l 253 447 q 369 524 331 472 q 408 681 408 576 q 365 838 408 779 q 243 897 321 897 q 146 874 190 897 q 56 804 101 850 l 11 850 q 122 938 65 910 q 247 967 178 967 q 425 888 358 967 q 492 683 492 808 q 439 488 492 550 q 292 396 386 425 l 253 382 l 253 0 l 172 0 l 172 422 z "},"Ǥ":{"ha":726,"x_min":74,"x_max":719,"o":"m 719 268 l 636 268 l 636 63 q 400 -15 528 -15 q 160 108 246 -15 q 74 479 74 231 q 119 751 74 642 q 241 914 165 861 q 406 967 317 967 q 524 944 474 967 q 624 872 575 921 l 578 822 q 497 880 538 863 q 407 897 457 897 q 284 856 340 897 q 193 722 228 815 q 158 479 158 629 q 401 54 158 54 q 485 66 447 54 q 560 104 524 78 l 560 268 l 413 268 l 413 335 l 560 335 l 560 444 l 411 444 l 403 513 l 636 513 l 636 335 l 719 335 l 719 268 z "},"Ȝ":{"ha":572,"x_min":21,"x_max":515,"o":"m 258 967 q 428 898 365 967 q 490 719 490 829 q 328 500 490 540 q 465 435 414 490 q 515 279 515 379 q 413 33 515 132 q 76 -124 310 -67 l 69 -54 q 285 28 206 -18 q 397 136 364 75 q 431 278 431 197 q 381 415 431 368 q 238 461 332 463 l 168 461 l 179 531 l 236 531 q 362 578 315 531 q 408 717 408 626 q 369 849 408 800 q 254 897 329 897 q 157 874 201 897 q 65 804 113 850 l 21 850 q 133 938 76 908 q 258 967 190 967 z "},"H":{"ha":764,"x_min":122,"x_max":642,"o":"m 561 0 l 561 467 l 201 467 l 201 0 l 122 0 l 122 951 l 201 951 l 201 535 l 561 535 l 561 951 l 642 951 l 642 0 l 561 0 z "},"Ħ":{"ha":767,"x_min":50,"x_max":717,"o":"m 717 774 l 717 714 l 644 714 l 644 0 l 564 0 l 564 467 l 204 467 l 204 0 l 125 0 l 125 714 l 50 714 l 50 774 l 125 774 l 125 951 l 204 951 l 204 774 l 564 774 l 564 951 l 644 951 l 644 774 l 717 774 m 564 535 l 564 714 l 204 714 l 204 535 l 564 535 z "},"Ȟ":{"ha":764,"x_min":122,"x_max":642,"o":"m 561 0 l 561 467 l 201 467 l 201 0 l 122 0 l 122 951 l 201 951 l 201 535 l 561 535 l 561 951 l 642 951 l 642 0 l 561 0 m 521 1229 l 553 1194 l 404 1050 l 356 1050 l 207 1194 l 239 1229 l 381 1118 l 521 1229 z "},"Ĥ":{"ha":764,"x_min":122,"x_max":642,"o":"m 561 0 l 561 467 l 201 467 l 201 0 l 122 0 l 122 951 l 201 951 l 201 535 l 561 535 l 561 951 l 642 951 l 642 0 l 561 0 m 240 1061 l 207 1096 l 356 1239 l 404 1239 l 553 1096 l 518 1061 l 379 1171 l 240 1061 z "},"Ḥ":{"ha":764,"x_min":122,"x_max":642,"o":"m 561 0 l 561 467 l 201 467 l 201 0 l 122 0 l 122 951 l 201 951 l 201 535 l 561 535 l 561 951 l 642 951 l 642 0 l 561 0 m 382 -235 q 342 -218 357 -235 q 326 -176 326 -201 q 342 -137 326 -154 q 382 -121 357 -121 q 422 -137 406 -121 q 438 -176 438 -154 q 422 -218 438 -201 q 382 -235 407 -235 z "},"Ɦ":{"ha":840,"x_min":17,"x_max":718,"o":"m 718 951 l 718 0 l 638 0 l 638 467 l 278 467 l 278 0 l 199 0 l 199 885 l 172 885 q 88 797 88 885 q 117 690 88 746 l 61 663 q 28 727 40 696 q 17 803 17 758 q 56 910 17 869 q 174 951 96 951 l 278 951 l 278 535 l 638 535 l 638 951 l 718 951 z "},"Ɥ":{"ha":681,"x_min":50,"x_max":558,"o":"m 558 951 l 558 0 l 478 0 l 478 410 q 385 336 435 361 q 274 311 336 311 q 113 375 175 311 q 50 554 50 439 l 50 951 l 129 951 l 129 557 q 170 424 129 468 q 286 381 211 381 q 394 409 344 381 q 478 485 443 438 l 478 951 l 558 951 z "},"Ƕ":{"ha":1100,"x_min":122,"x_max":1008,"o":"m 978 726 q 1008 358 1008 521 q 938 76 1008 168 q 758 -15 868 -15 q 617 40 674 -15 q 561 193 561 94 l 561 467 l 201 467 l 201 0 l 122 0 l 122 951 l 201 951 l 201 535 l 561 535 l 561 951 l 642 951 l 642 199 q 674 88 642 125 q 760 50 706 50 q 883 121 835 50 q 931 360 931 192 q 900 726 931 526 l 978 726 z "},"I":{"ha":324,"x_min":122,"x_max":201,"o":"m 201 951 l 201 0 l 122 0 l 122 951 l 201 951 z "},"Ĳ":{"ha":657,"x_min":122,"x_max":542,"o":"m 201 951 l 201 0 l 122 0 l 122 951 l 201 951 m 542 126 q 522 -8 542 44 q 464 -97 503 -61 q 357 -164 425 -132 l 335 -107 q 415 -47 388 -76 q 451 22 442 -18 q 461 131 461 63 l 461 951 l 542 951 l 542 126 z "},"Í":{"ha":324,"x_min":36,"x_max":288,"o":"m 201 951 l 201 0 l 122 0 l 122 951 l 201 951 m 253 1228 l 288 1160 l 58 1053 l 36 1097 l 253 1228 z "},"Ĭ":{"ha":324,"x_min":8,"x_max":314,"o":"m 201 951 l 201 0 l 122 0 l 122 951 l 201 951 m 160 1063 q 57 1099 99 1063 q 8 1200 15 1136 l 58 1213 q 95 1149 69 1172 q 160 1126 121 1126 q 226 1149 199 1126 q 264 1213 253 1172 l 314 1200 q 265 1099 307 1136 q 160 1063 222 1063 z "},"Ǐ":{"ha":324,"x_min":-12,"x_max":333,"o":"m 201 951 l 201 0 l 122 0 l 122 951 l 201 951 m 301 1229 l 333 1194 l 185 1050 l 136 1050 l -12 1194 l 19 1229 l 161 1118 l 301 1229 z "},"Î":{"ha":324,"x_min":-12,"x_max":333,"o":"m 201 951 l 201 0 l 122 0 l 122 951 l 201 951 m 21 1061 l -12 1096 l 136 1239 l 185 1239 l 333 1096 l 299 1061 l 160 1171 l 21 1061 z "},"Ȉ":{"ha":324,"x_min":-43,"x_max":254,"o":"m 201 951 l 201 0 l 122 0 l 122 951 l 201 951 m 21 1299 l 111 1089 l 65 1068 l -43 1264 l 21 1299 m 172 1297 l 254 1094 l 208 1074 l 108 1264 l 172 1297 z "},"Ï":{"ha":324,"x_min":7,"x_max":331,"o":"m 201 951 l 201 0 l 122 0 l 122 951 l 201 951 m 58 1203 q 97 1188 82 1203 q 111 1150 111 1172 q 97 1111 111 1126 q 58 1096 82 1096 q 22 1111 36 1096 q 7 1150 7 1126 q 22 1188 7 1172 q 58 1203 36 1203 m 278 1203 q 316 1188 301 1203 q 331 1150 331 1172 q 316 1111 331 1126 q 278 1096 301 1096 q 241 1111 256 1096 q 226 1150 226 1126 q 241 1188 226 1172 q 278 1203 256 1203 z "},"Ḯ":{"ha":324,"x_min":0,"x_max":324,"o":"m 201 951 l 201 0 l 122 0 l 122 951 l 201 951 m 260 1346 l 315 1301 l 167 1129 l 131 1160 l 260 1346 m 51 1140 q 90 1125 75 1140 q 104 1086 104 1110 q 90 1049 104 1064 q 51 1033 75 1033 q 15 1049 29 1033 q 0 1086 0 1064 q 15 1125 0 1110 q 51 1140 29 1140 m 271 1140 q 309 1125 294 1140 q 324 1086 324 1110 q 309 1049 324 1064 q 271 1033 294 1033 q 234 1049 249 1033 q 219 1086 219 1064 q 234 1125 219 1110 q 271 1140 249 1140 z "},"İ":{"ha":324,"x_min":106,"x_max":217,"o":"m 201 951 l 201 0 l 122 0 l 122 951 l 201 951 m 161 1219 q 201 1203 186 1219 q 217 1161 217 1186 q 201 1122 217 1139 q 161 1106 186 1106 q 122 1122 138 1106 q 106 1161 106 1139 q 121 1203 106 1186 q 161 1219 136 1219 z "},"Ị":{"ha":324,"x_min":107,"x_max":218,"o":"m 201 951 l 201 0 l 122 0 l 122 951 l 201 951 m 163 -235 q 122 -218 138 -235 q 107 -176 107 -201 q 122 -137 107 -154 q 163 -121 138 -121 q 202 -137 186 -121 q 218 -176 218 -154 q 203 -218 218 -201 q 163 -235 188 -235 z "},"Ì":{"ha":324,"x_min":31,"x_max":282,"o":"m 201 951 l 201 0 l 122 0 l 122 951 l 201 951 m 67 1226 l 282 1097 l 258 1053 l 31 1158 l 67 1226 z "},"Ỉ":{"ha":324,"x_min":72,"x_max":276,"o":"m 201 951 l 201 0 l 122 0 l 122 951 l 201 951 m 131 1176 q 190 1194 171 1179 q 210 1242 210 1208 q 196 1284 210 1269 q 157 1299 182 1299 q 125 1294 139 1299 q 93 1281 111 1290 l 72 1326 q 168 1357 114 1357 q 247 1327 218 1357 q 276 1247 276 1297 q 190 1140 276 1154 l 190 1075 l 131 1075 l 131 1176 z "},"Ȋ":{"ha":324,"x_min":8,"x_max":314,"o":"m 201 951 l 201 0 l 122 0 l 122 951 l 201 951 m 160 1256 q 265 1215 224 1256 q 314 1103 307 1175 l 263 1092 q 160 1193 242 1193 q 58 1092 81 1193 l 8 1103 q 56 1215 15 1175 q 160 1256 97 1256 z "},"Ī":{"ha":324,"x_min":21,"x_max":301,"o":"m 201 951 l 201 0 l 122 0 l 122 951 l 201 951 m 301 1115 l 21 1115 l 21 1176 l 301 1176 l 301 1115 z "},"Į":{"ha":324,"x_min":-15,"x_max":201,"o":"m 201 951 l 201 0 l 190 0 q 83 -78 114 -42 q 53 -167 53 -115 q 124 -237 53 -237 q 189 -229 151 -237 l 182 -292 q 115 -301 143 -301 q 19 -267 53 -301 q -15 -175 -15 -232 q 19 -73 -15 -117 q 122 8 53 -29 l 122 951 l 201 951 z "},"Ɩ":{"ha":394,"x_min":107,"x_max":379,"o":"m 379 32 q 256 -15 324 -15 q 149 26 190 -15 q 107 146 107 68 l 107 271 l 108 271 l 108 951 l 188 951 l 188 144 q 260 51 188 51 q 343 82 303 51 l 379 32 z "},"Ɨ":{"ha":358,"x_min":26,"x_max":333,"o":"m 333 532 l 333 468 l 218 468 l 218 0 l 139 0 l 139 468 l 26 468 l 26 532 l 139 532 l 139 951 l 218 951 l 218 532 l 333 532 z "},"Ĩ":{"ha":324,"x_min":-14,"x_max":336,"o":"m 201 951 l 201 0 l 122 0 l 122 951 l 201 951 m 231 1104 q 191 1113 208 1104 q 149 1139 174 1122 q 94 1165 114 1165 q 63 1153 76 1165 q 31 1110 49 1140 l -14 1132 q 93 1224 29 1224 q 131 1215 113 1224 q 169 1190 149 1206 q 202 1169 190 1175 q 228 1163 214 1163 q 260 1176 246 1163 q 292 1222 275 1190 l 336 1201 q 231 1104 299 1104 z "},"J":{"ha":333,"x_min":11,"x_max":218,"o":"m 218 126 q 199 -8 218 44 q 140 -97 179 -61 q 33 -164 101 -132 l 11 -107 q 91 -47 64 -76 q 128 22 118 -18 q 138 131 138 63 l 138 951 l 218 951 l 218 126 z "},"Ĵ":{"ha":333,"x_min":3,"x_max":349,"o":"m 218 126 q 199 -8 218 44 q 140 -97 179 -61 q 33 -164 101 -132 l 11 -107 q 91 -47 64 -76 q 128 22 118 -18 q 138 131 138 63 l 138 951 l 218 951 l 218 126 m 36 1061 l 3 1096 l 151 1239 l 200 1239 l 349 1096 l 314 1061 l 175 1171 l 36 1061 z "},"Ʝ":{"ha":357,"x_min":-92,"x_max":356,"o":"m 333 -122 q 236 -81 290 -99 q 186 -231 233 -178 q 51 -285 139 -285 q -53 -248 -15 -285 q -92 -149 -92 -211 q -46 -42 -92 -81 q 78 -4 0 -4 q 156 -10 117 -4 l 156 951 l 236 951 l 236 -24 q 356 -78 306 -47 l 333 -122 m 51 -226 q 131 -189 107 -226 q 156 -74 156 -151 l 156 -65 q 78 -57 129 -57 q -26 -146 -26 -57 q 51 -226 -26 -226 z "},"Ɉ":{"ha":357,"x_min":11,"x_max":332,"o":"m 332 443 l 218 443 l 218 126 q 199 -8 218 44 q 140 -97 179 -61 q 33 -164 101 -132 l 11 -107 q 91 -47 64 -76 q 128 22 118 -18 q 138 131 138 63 l 138 443 l 25 443 l 25 510 l 138 510 l 138 951 l 218 951 l 218 510 l 332 510 l 332 443 z "},"K":{"ha":643,"x_min":122,"x_max":636,"o":"m 201 951 l 201 0 l 122 0 l 122 951 l 201 951 m 615 951 l 296 514 l 636 0 l 544 0 l 207 510 l 529 951 l 615 951 z "},"Ǩ":{"ha":643,"x_min":122,"x_max":636,"o":"m 201 951 l 201 0 l 122 0 l 122 951 l 201 951 m 615 951 l 296 514 l 636 0 l 544 0 l 207 510 l 529 951 l 615 951 m 492 1229 l 524 1194 l 375 1050 l 326 1050 l 178 1194 l 210 1229 l 351 1118 l 492 1229 z "},"Ķ":{"ha":643,"x_min":122,"x_max":636,"o":"m 201 951 l 201 0 l 122 0 l 122 951 l 201 951 m 615 951 l 296 514 l 636 0 l 544 0 l 207 510 l 529 951 l 615 951 m 351 -118 q 392 -134 376 -118 q 407 -175 407 -150 q 400 -213 407 -192 q 381 -267 393 -235 l 335 -386 l 289 -386 l 329 -228 q 296 -175 296 -210 q 311 -134 296 -150 q 351 -118 326 -118 z "},"Ƙ":{"ha":675,"x_min":122,"x_max":667,"o":"m 207 510 l 406 856 q 472 940 438 913 q 556 967 507 967 q 667 915 618 967 l 635 871 q 600 895 615 888 q 563 903 585 903 q 515 887 535 903 q 474 829 496 871 l 293 514 l 636 0 l 544 0 l 207 510 m 201 951 l 201 0 l 122 0 l 122 951 l 201 951 z "},"L":{"ha":544,"x_min":122,"x_max":525,"o":"m 201 951 l 201 72 l 525 72 l 515 0 l 122 0 l 122 951 l 201 951 z "},"Ǉ":{"ha":854,"x_min":122,"x_max":739,"o":"m 201 951 l 201 72 l 525 72 l 515 0 l 122 0 l 122 951 l 201 951 m 739 126 q 719 -8 739 44 q 661 -97 700 -61 q 554 -164 622 -132 l 532 -107 q 612 -47 585 -76 q 649 22 639 -18 q 658 131 658 63 l 658 951 l 739 951 l 739 126 z "},"Ĺ":{"ha":544,"x_min":38,"x_max":525,"o":"m 201 951 l 201 72 l 525 72 l 515 0 l 122 0 l 122 951 l 201 951 m 254 1228 l 289 1160 l 60 1053 l 38 1097 l 254 1228 z "},"Ƚ":{"ha":561,"x_min":26,"x_max":542,"o":"m 218 72 l 542 72 l 532 0 l 139 0 l 139 471 l 26 471 l 26 538 l 139 538 l 139 951 l 218 951 l 218 538 l 333 538 l 333 471 l 218 471 l 218 72 z "},"Ɬ":{"ha":596,"x_min":18,"x_max":578,"o":"m 578 72 l 568 0 l 175 0 l 175 374 l 174 374 q 58 410 99 375 q 18 511 18 446 q 53 605 18 571 q 139 639 88 639 q 175 636 156 639 l 175 951 l 254 951 l 254 435 q 386 453 313 436 l 397 397 q 254 376 322 378 l 254 72 l 578 72 m 175 435 l 175 582 q 143 583 165 583 q 99 565 115 583 q 83 513 83 547 q 174 435 83 435 l 175 435 z "},"Ľ":{"ha":544,"x_min":122,"x_max":525,"o":"m 201 951 l 201 72 l 525 72 l 515 0 l 122 0 l 122 951 l 201 951 m 318 725 l 364 950 l 294 960 l 272 732 l 318 725 z "},"Ḽ":{"ha":544,"x_min":122,"x_max":525,"o":"m 201 951 l 201 72 l 525 72 l 515 0 l 122 0 l 122 951 l 201 951 m 182 -282 l 149 -247 l 297 -97 l 346 -97 l 494 -247 l 460 -282 l 321 -164 l 182 -282 z "},"Ļ":{"ha":544,"x_min":122,"x_max":525,"o":"m 201 951 l 201 72 l 525 72 l 515 0 l 122 0 l 122 951 l 201 951 m 319 -118 q 360 -134 344 -118 q 375 -175 375 -150 q 368 -213 375 -192 q 349 -267 361 -235 l 303 -386 l 257 -386 l 297 -228 q 264 -175 264 -210 q 279 -134 264 -150 q 319 -118 294 -118 z "},"Ŀ":{"ha":544,"x_min":122,"x_max":525,"o":"m 201 951 l 201 72 l 525 72 l 515 0 l 122 0 l 122 951 l 201 951 m 424 568 q 464 551 449 568 q 479 510 479 535 q 464 471 479 488 q 424 454 449 454 q 384 471 400 454 q 368 510 368 488 q 383 551 368 535 q 424 568 399 568 z "},"Ḷ":{"ha":544,"x_min":122,"x_max":525,"o":"m 201 951 l 201 72 l 525 72 l 515 0 l 122 0 l 122 951 l 201 951 m 321 -235 q 281 -218 296 -235 q 265 -176 265 -201 q 281 -137 265 -154 q 321 -121 296 -121 q 360 -137 344 -121 q 376 -176 376 -154 q 361 -218 376 -201 q 321 -235 346 -235 z "},"ǈ":{"ha":835,"x_min":122,"x_max":733,"o":"m 201 951 l 201 72 l 525 72 l 515 0 l 122 0 l 122 951 l 201 951 m 718 -11 q 699 -136 718 -87 q 646 -217 681 -185 q 550 -282 611 -249 l 524 -226 q 592 -175 568 -200 q 628 -112 617 -150 q 640 -11 640 -74 l 640 726 l 718 726 l 718 -11 m 678 1044 q 718 1028 703 1044 q 733 986 733 1011 q 718 947 733 964 q 678 931 703 931 q 638 947 654 931 q 622 986 622 964 q 638 1028 622 1011 q 678 1044 653 1044 z "},"Ł":{"ha":560,"x_min":35,"x_max":542,"o":"m 218 72 l 542 72 l 532 0 l 139 0 l 139 390 l 65 336 l 35 389 l 138 465 l 139 467 l 139 951 l 218 951 l 218 525 l 418 674 l 449 621 l 218 450 l 218 72 z "},"M":{"ha":894,"x_min":82,"x_max":813,"o":"m 813 0 l 738 0 l 703 457 q 676 872 688 650 l 486 113 l 410 113 l 211 872 q 192 510 211 779 q 189 460 192 493 l 157 0 l 82 0 l 154 951 l 263 951 l 449 208 l 629 951 l 739 951 l 813 0 z "},"Ḿ":{"ha":894,"x_min":82,"x_max":813,"o":"m 813 0 l 738 0 l 703 457 q 676 872 688 650 l 486 113 l 410 113 l 211 872 q 192 510 211 779 q 189 460 192 493 l 157 0 l 82 0 l 154 951 l 263 951 l 449 208 l 629 951 l 739 951 l 813 0 m 539 1228 l 574 1160 l 344 1053 l 322 1097 l 539 1228 z "},"Ṁ":{"ha":894,"x_min":82,"x_max":813,"o":"m 813 0 l 738 0 l 703 457 q 676 872 688 650 l 486 113 l 410 113 l 211 872 q 192 510 211 779 q 189 460 192 493 l 157 0 l 82 0 l 154 951 l 263 951 l 449 208 l 629 951 l 739 951 l 813 0 m 447 1219 q 488 1203 472 1219 q 503 1161 503 1186 q 488 1122 503 1139 q 447 1106 472 1106 q 408 1122 424 1106 q 392 1161 392 1139 q 407 1203 392 1186 q 447 1219 422 1219 z "},"Ɯ":{"ha":1054,"x_min":108,"x_max":933,"o":"m 933 951 l 933 0 l 863 0 l 857 121 q 772 21 821 57 q 665 -15 724 -15 q 558 24 603 -15 q 493 129 514 63 q 294 -15 408 -15 q 158 51 207 -15 q 108 225 108 117 l 108 951 l 188 951 l 188 225 q 219 99 188 144 q 306 54 250 54 q 402 93 360 54 q 481 206 444 132 l 481 228 l 481 951 l 561 951 l 561 225 q 592 101 561 147 q 679 54 624 54 q 775 94 733 54 q 853 208 817 133 l 853 951 l 933 951 z "},"N":{"ha":765,"x_min":122,"x_max":644,"o":"m 644 0 l 539 0 l 186 861 q 197 538 197 731 l 197 0 l 122 0 l 122 951 l 228 951 l 579 90 q 568 369 568 257 l 568 951 l 644 951 l 644 0 z "},"Ǌ":{"ha":1099,"x_min":122,"x_max":983,"o":"m 644 0 l 539 0 l 186 861 q 197 538 197 731 l 197 0 l 122 0 l 122 951 l 228 951 l 579 90 q 568 369 568 257 l 568 951 l 644 951 l 644 0 m 983 126 q 964 -8 983 44 q 906 -97 944 -61 q 799 -164 867 -132 l 776 -107 q 856 -47 829 -76 q 893 22 883 -18 q 903 131 903 63 l 903 951 l 983 951 l 983 126 z "},"Ń":{"ha":765,"x_min":122,"x_max":644,"o":"m 644 0 l 539 0 l 186 861 q 197 538 197 731 l 197 0 l 122 0 l 122 951 l 228 951 l 579 90 q 568 369 568 257 l 568 951 l 644 951 l 644 0 m 485 1228 l 519 1160 l 290 1053 l 268 1097 l 485 1228 z "},"Ň":{"ha":765,"x_min":122,"x_max":644,"o":"m 644 0 l 539 0 l 186 861 q 197 538 197 731 l 197 0 l 122 0 l 122 951 l 228 951 l 579 90 q 568 369 568 257 l 568 951 l 644 951 l 644 0 m 533 1229 l 565 1194 l 417 1050 l 368 1050 l 219 1194 l 251 1229 l 393 1118 l 533 1229 z "},"Ṋ":{"ha":765,"x_min":122,"x_max":644,"o":"m 644 0 l 539 0 l 186 861 q 197 538 197 731 l 197 0 l 122 0 l 122 951 l 228 951 l 579 90 q 568 369 568 257 l 568 951 l 644 951 l 644 0 m 246 -282 l 213 -247 l 361 -97 l 410 -97 l 558 -247 l 524 -282 l 385 -164 l 246 -282 z "},"Ņ":{"ha":765,"x_min":122,"x_max":644,"o":"m 644 0 l 539 0 l 186 861 q 197 538 197 731 l 197 0 l 122 0 l 122 951 l 228 951 l 579 90 q 568 369 568 257 l 568 951 l 644 951 l 644 0 m 383 -118 q 424 -134 408 -118 q 439 -175 439 -150 q 432 -213 439 -192 q 413 -267 425 -235 l 367 -386 l 321 -386 l 361 -228 q 328 -175 328 -210 q 343 -134 328 -150 q 383 -118 358 -118 z "},"Ṅ":{"ha":765,"x_min":122,"x_max":644,"o":"m 644 0 l 539 0 l 186 861 q 197 538 197 731 l 197 0 l 122 0 l 122 951 l 228 951 l 579 90 q 568 369 568 257 l 568 951 l 644 951 l 644 0 m 393 1219 q 433 1203 418 1219 q 449 1161 449 1186 q 433 1122 449 1139 q 393 1106 418 1106 q 353 1122 369 1106 q 338 1161 338 1139 q 353 1203 338 1186 q 393 1219 368 1219 z "},"Ṇ":{"ha":765,"x_min":122,"x_max":644,"o":"m 644 0 l 539 0 l 186 861 q 197 538 197 731 l 197 0 l 122 0 l 122 951 l 228 951 l 579 90 q 568 369 568 257 l 568 951 l 644 951 l 644 0 m 385 -235 q 344 -218 360 -235 q 329 -176 329 -201 q 344 -137 329 -154 q 385 -121 360 -121 q 424 -137 408 -121 q 440 -176 440 -154 q 425 -218 440 -201 q 385 -235 410 -235 z "},"Ǹ":{"ha":765,"x_min":122,"x_max":644,"o":"m 644 0 l 539 0 l 186 861 q 197 538 197 731 l 197 0 l 122 0 l 122 951 l 228 951 l 579 90 q 568 369 568 257 l 568 951 l 644 951 l 644 0 m 299 1226 l 514 1097 l 490 1053 l 263 1158 l 299 1226 z "},"Ŋ":{"ha":765,"x_min":122,"x_max":644,"o":"m 644 951 l 644 -124 q 603 -243 644 -201 q 496 -285 561 -285 q 372 -237 428 -285 l 408 -187 q 492 -218 449 -218 q 564 -125 564 -218 l 564 0 l 539 0 l 186 861 q 197 538 197 731 l 197 0 l 122 0 l 122 951 l 228 951 l 579 90 q 568 369 568 257 l 568 951 l 644 951 z "},"Ɲ":{"ha":765,"x_min":-72,"x_max":644,"o":"m 644 951 l 644 0 l 539 0 l 186 861 q 197 538 197 731 l 197 -124 q 156 -243 197 -201 q 51 -285 115 -285 q -72 -237 -19 -285 l -36 -189 q 4 -212 -15 -204 q 49 -219 24 -219 q 122 -126 122 -219 l 122 951 l 228 951 l 579 90 q 568 369 568 257 l 568 951 l 644 951 z "},"ǋ":{"ha":1076,"x_min":122,"x_max":975,"o":"m 644 0 l 539 0 l 186 861 q 197 538 197 731 l 197 0 l 122 0 l 122 951 l 228 951 l 579 90 q 568 369 568 257 l 568 951 l 644 951 l 644 0 m 960 -11 q 941 -136 960 -87 q 888 -217 922 -185 q 792 -282 853 -249 l 765 -226 q 834 -175 810 -200 q 870 -112 858 -150 q 882 -11 882 -74 l 882 726 l 960 726 l 960 -11 m 919 1044 q 960 1028 944 1044 q 975 986 975 1011 q 960 947 975 964 q 919 931 944 931 q 880 947 896 931 q 864 986 864 964 q 879 1028 864 1011 q 919 1044 894 1044 z "},"Ƞ":{"ha":753,"x_min":122,"x_max":642,"o":"m 436 967 q 588 901 535 967 q 642 717 642 835 l 642 -274 l 561 -274 l 561 703 q 422 897 561 897 q 303 859 354 897 q 201 753 251 821 l 201 0 l 122 0 l 122 951 l 192 951 l 199 828 q 436 967 300 967 z "},"Ñ":{"ha":765,"x_min":122,"x_max":644,"o":"m 644 0 l 539 0 l 186 861 q 197 538 197 731 l 197 0 l 122 0 l 122 951 l 228 951 l 579 90 q 568 369 568 257 l 568 951 l 644 951 l 644 0 m 463 1104 q 423 1113 440 1104 q 381 1139 406 1122 q 326 1165 346 1165 q 294 1153 308 1165 q 263 1110 281 1140 l 218 1132 q 325 1224 261 1224 q 363 1215 344 1224 q 401 1190 381 1206 q 434 1169 422 1175 q 460 1163 446 1163 q 492 1176 478 1163 q 524 1222 507 1190 l 568 1201 q 463 1104 531 1104 z "},"O":{"ha":792,"x_min":74,"x_max":718,"o":"m 396 967 q 632 844 546 967 q 718 475 718 721 q 633 109 718 233 q 396 -15 547 -15 q 160 108 247 -15 q 74 474 74 232 q 161 841 74 715 q 396 967 249 967 m 396 897 q 221 794 283 897 q 158 474 158 692 q 222 156 158 258 q 396 54 285 54 q 572 155 511 54 q 633 475 633 256 q 396 897 633 897 z "},"Ȣ":{"ha":735,"x_min":74,"x_max":661,"o":"m 494 535 q 618 440 575 507 q 661 276 661 374 q 627 130 661 196 q 527 24 593 64 q 368 -15 461 -15 q 208 23 275 -15 q 108 127 142 61 q 74 275 74 193 q 117 435 74 368 q 240 533 160 503 q 154 610 182 560 q 126 726 126 660 l 126 951 l 207 951 l 207 729 q 368 564 207 564 q 493 610 456 564 q 531 729 531 657 l 531 951 l 611 951 l 611 726 q 582 613 611 663 q 494 535 553 563 m 368 54 q 576 276 576 54 q 525 439 576 382 q 368 496 474 496 q 211 438 264 496 q 158 275 158 379 q 211 112 158 169 q 368 54 264 54 z "},"Ó":{"ha":792,"x_min":74,"x_max":718,"o":"m 396 967 q 632 844 546 967 q 718 475 718 721 q 633 109 718 233 q 396 -15 547 -15 q 160 108 247 -15 q 74 474 74 232 q 161 841 74 715 q 396 967 249 967 m 396 897 q 221 794 283 897 q 158 474 158 692 q 222 156 158 258 q 396 54 285 54 q 572 155 511 54 q 633 475 633 256 q 396 897 633 897 m 488 1228 l 522 1160 l 293 1053 l 271 1097 l 488 1228 z "},"Ŏ":{"ha":792,"x_min":74,"x_max":718,"o":"m 396 967 q 632 844 546 967 q 718 475 718 721 q 633 109 718 233 q 396 -15 547 -15 q 160 108 247 -15 q 74 474 74 232 q 161 841 74 715 q 396 967 249 967 m 396 897 q 221 794 283 897 q 158 474 158 692 q 222 156 158 258 q 396 54 285 54 q 572 155 511 54 q 633 475 633 256 q 396 897 633 897 m 394 1063 q 292 1099 333 1063 q 243 1200 250 1136 l 293 1213 q 330 1149 304 1172 q 394 1126 356 1126 q 460 1149 433 1126 q 499 1213 488 1172 l 549 1200 q 499 1099 542 1136 q 394 1063 457 1063 z "},"Ǒ":{"ha":792,"x_min":74,"x_max":718,"o":"m 396 967 q 632 844 546 967 q 718 475 718 721 q 633 109 718 233 q 396 -15 547 -15 q 160 108 247 -15 q 74 474 74 232 q 161 841 74 715 q 396 967 249 967 m 396 897 q 221 794 283 897 q 158 474 158 692 q 222 156 158 258 q 396 54 285 54 q 572 155 511 54 q 633 475 633 256 q 396 897 633 897 m 536 1229 l 568 1194 l 419 1050 l 371 1050 l 222 1194 l 254 1229 l 396 1118 l 536 1229 z "},"Ɵ":{"ha":792,"x_min":74,"x_max":718,"o":"m 396 967 q 632 844 546 967 q 718 475 718 721 q 633 109 718 233 q 396 -15 547 -15 q 160 108 247 -15 q 74 474 74 231 q 114 746 74 635 q 226 912 154 857 q 396 967 299 967 m 396 897 q 157 518 168 897 l 636 518 q 567 806 629 715 q 396 897 506 897 m 396 54 q 636 454 631 54 l 156 454 q 222 151 158 249 q 396 54 285 54 z "},"Ô":{"ha":792,"x_min":74,"x_max":718,"o":"m 396 967 q 632 844 546 967 q 718 475 718 721 q 633 109 718 233 q 396 -15 547 -15 q 160 108 247 -15 q 74 474 74 232 q 161 841 74 715 q 396 967 249 967 m 396 897 q 221 794 283 897 q 158 474 158 692 q 222 156 158 258 q 396 54 285 54 q 572 155 511 54 q 633 475 633 256 q 396 897 633 897 m 256 1061 l 222 1096 l 371 1239 l 419 1239 l 568 1096 l 533 1061 l 394 1171 l 256 1061 z "},"Ố":{"ha":792,"x_min":74,"x_max":718,"o":"m 396 967 q 632 844 546 967 q 718 475 718 721 q 633 109 718 233 q 396 -15 547 -15 q 160 108 247 -15 q 74 474 74 232 q 161 841 74 715 q 396 967 249 967 m 396 897 q 221 794 283 897 q 158 474 158 692 q 222 156 158 258 q 396 54 285 54 q 572 155 511 54 q 633 475 633 256 q 396 897 633 897 m 260 1014 l 226 1049 l 375 1192 l 424 1192 l 572 1049 l 538 1014 l 399 1124 l 260 1014 m 629 1372 l 685 1328 l 536 1156 l 500 1186 l 629 1372 z "},"Ộ":{"ha":792,"x_min":74,"x_max":718,"o":"m 396 967 q 632 844 546 967 q 718 475 718 721 q 633 109 718 233 q 396 -15 547 -15 q 160 108 247 -15 q 74 474 74 232 q 161 841 74 715 q 396 967 249 967 m 396 897 q 221 794 283 897 q 158 474 158 692 q 222 156 158 258 q 396 54 285 54 q 572 155 511 54 q 633 475 633 256 q 396 897 633 897 m 256 1061 l 222 1096 l 371 1239 l 419 1239 l 568 1096 l 533 1061 l 394 1171 l 256 1061 m 396 -235 q 356 -218 371 -235 q 340 -176 340 -201 q 356 -137 340 -154 q 396 -121 371 -121 q 435 -137 419 -121 q 451 -176 451 -154 q 436 -218 451 -201 q 396 -235 421 -235 z "},"Ồ":{"ha":792,"x_min":74,"x_max":718,"o":"m 396 967 q 632 844 546 967 q 718 475 718 721 q 633 109 718 233 q 396 -15 547 -15 q 160 108 247 -15 q 74 474 74 232 q 161 841 74 715 q 396 967 249 967 m 396 897 q 221 794 283 897 q 158 474 158 692 q 222 156 158 258 q 396 54 285 54 q 572 155 511 54 q 633 475 633 256 q 396 897 633 897 m 256 1014 l 222 1049 l 371 1192 l 419 1192 l 568 1049 l 533 1014 l 394 1124 l 256 1014 m 171 1372 l 300 1186 l 264 1156 l 115 1328 l 171 1372 z "},"Ổ":{"ha":792,"x_min":74,"x_max":718,"o":"m 396 967 q 632 844 546 967 q 718 475 718 721 q 633 109 718 233 q 396 -15 547 -15 q 160 108 247 -15 q 74 474 74 232 q 161 841 74 715 q 396 967 249 967 m 396 897 q 221 794 283 897 q 158 474 158 692 q 222 156 158 258 q 396 54 285 54 q 572 155 511 54 q 633 475 633 256 q 396 897 633 897 m 256 1014 l 222 1049 l 371 1192 l 419 1192 l 568 1049 l 533 1014 l 394 1124 l 256 1014 m 515 1229 q 575 1247 556 1232 q 594 1294 594 1261 q 581 1337 594 1322 q 542 1351 567 1351 q 510 1347 524 1351 q 478 1333 496 1343 l 457 1379 q 553 1410 499 1410 q 632 1380 603 1410 q 661 1300 661 1350 q 575 1193 661 1207 l 575 1128 l 515 1128 l 515 1229 z "},"Ỗ":{"ha":792,"x_min":74,"x_max":718,"o":"m 396 967 q 632 844 546 967 q 718 475 718 721 q 633 109 718 233 q 396 -15 547 -15 q 160 108 247 -15 q 74 474 74 232 q 161 841 74 715 q 396 967 249 967 m 396 897 q 221 794 283 897 q 158 474 158 692 q 222 156 158 258 q 396 54 285 54 q 572 155 511 54 q 633 475 633 256 q 396 897 633 897 m 254 1014 l 221 1049 l 369 1192 l 418 1192 l 567 1049 l 532 1014 l 393 1124 l 254 1014 m 463 1249 q 423 1258 440 1249 q 381 1283 406 1267 q 326 1310 346 1310 q 294 1297 308 1310 q 263 1254 281 1285 l 218 1276 q 325 1368 261 1368 q 363 1359 344 1368 q 401 1335 381 1350 q 434 1313 422 1319 q 460 1307 446 1307 q 492 1321 478 1307 q 524 1367 507 1335 l 568 1346 q 463 1249 531 1249 z "},"Ȍ":{"ha":792,"x_min":74,"x_max":718,"o":"m 396 967 q 632 844 546 967 q 718 475 718 721 q 633 109 718 233 q 396 -15 547 -15 q 160 108 247 -15 q 74 474 74 232 q 161 841 74 715 q 396 967 249 967 m 396 897 q 221 794 283 897 q 158 474 158 692 q 222 156 158 258 q 396 54 285 54 q 572 155 511 54 q 633 475 633 256 q 396 897 633 897 m 256 1299 l 346 1089 l 300 1068 l 192 1264 l 256 1299 m 407 1297 l 489 1094 l 443 1074 l 343 1264 l 407 1297 z "},"Ö":{"ha":792,"x_min":74,"x_max":718,"o":"m 396 967 q 632 844 546 967 q 718 475 718 721 q 633 109 718 233 q 396 -15 547 -15 q 160 108 247 -15 q 74 474 74 232 q 161 841 74 715 q 396 967 249 967 m 396 897 q 221 794 283 897 q 158 474 158 692 q 222 156 158 258 q 396 54 285 54 q 572 155 511 54 q 633 475 633 256 q 396 897 633 897 m 293 1203 q 331 1188 317 1203 q 346 1150 346 1172 q 331 1111 346 1126 q 293 1096 317 1096 q 256 1111 271 1096 q 242 1150 242 1126 q 256 1188 242 1172 q 293 1203 271 1203 m 513 1203 q 551 1188 536 1203 q 565 1150 565 1172 q 551 1111 565 1126 q 513 1096 536 1096 q 476 1111 490 1096 q 461 1150 461 1126 q 476 1188 461 1172 q 513 1203 490 1203 z "},"Ȫ":{"ha":792,"x_min":74,"x_max":718,"o":"m 396 967 q 632 844 546 967 q 718 475 718 721 q 633 109 718 233 q 396 -15 547 -15 q 160 108 247 -15 q 74 474 74 232 q 161 841 74 715 q 396 967 249 967 m 396 897 q 221 794 283 897 q 158 474 158 692 q 222 156 158 258 q 396 54 285 54 q 572 155 511 54 q 633 475 633 256 q 396 897 633 897 m 286 1140 q 324 1125 310 1140 q 339 1088 339 1110 q 324 1049 339 1064 q 286 1033 310 1033 q 249 1049 264 1033 q 235 1088 235 1064 q 249 1125 235 1110 q 286 1140 264 1140 m 506 1140 q 544 1125 529 1140 q 558 1088 558 1110 q 544 1049 558 1064 q 506 1033 529 1033 q 469 1049 483 1033 q 454 1088 454 1064 q 469 1125 454 1110 q 506 1140 483 1140 m 538 1221 l 257 1221 l 257 1282 l 538 1282 l 538 1221 z "},"Ȯ":{"ha":792,"x_min":74,"x_max":718,"o":"m 396 967 q 632 844 546 967 q 718 475 718 721 q 633 109 718 233 q 396 -15 547 -15 q 160 108 247 -15 q 74 474 74 232 q 161 841 74 715 q 396 967 249 967 m 396 897 q 221 794 283 897 q 158 474 158 692 q 222 156 158 258 q 396 54 285 54 q 572 155 511 54 q 633 475 633 256 q 396 897 633 897 m 396 1219 q 436 1203 421 1219 q 451 1161 451 1186 q 436 1122 451 1139 q 396 1106 421 1106 q 356 1122 372 1106 q 340 1161 340 1139 q 356 1203 340 1186 q 396 1219 371 1219 z "},"Ȱ":{"ha":792,"x_min":74,"x_max":718,"o":"m 396 967 q 632 844 546 967 q 718 475 718 721 q 633 109 718 233 q 396 -15 547 -15 q 160 108 247 -15 q 74 474 74 232 q 161 841 74 715 q 396 967 249 967 m 396 897 q 221 794 283 897 q 158 474 158 692 q 222 156 158 258 q 396 54 285 54 q 572 155 511 54 q 633 475 633 256 q 396 897 633 897 m 396 1146 q 436 1129 421 1146 q 451 1088 451 1113 q 436 1049 451 1065 q 396 1032 421 1032 q 356 1049 372 1032 q 340 1088 340 1065 q 356 1129 340 1113 q 396 1146 371 1146 m 536 1221 l 256 1221 l 256 1282 l 536 1282 l 536 1221 z "},"Ọ":{"ha":792,"x_min":74,"x_max":718,"o":"m 396 967 q 632 844 546 967 q 718 475 718 721 q 633 109 718 233 q 396 -15 547 -15 q 160 108 247 -15 q 74 474 74 232 q 161 841 74 715 q 396 967 249 967 m 396 897 q 221 794 283 897 q 158 474 158 692 q 222 156 158 258 q 396 54 285 54 q 572 155 511 54 q 633 475 633 256 q 396 897 633 897 m 396 -235 q 356 -218 371 -235 q 340 -176 340 -201 q 356 -137 340 -154 q 396 -121 371 -121 q 435 -137 419 -121 q 451 -176 451 -154 q 436 -218 451 -201 q 396 -235 421 -235 z "},"Ò":{"ha":792,"x_min":74,"x_max":718,"o":"m 396 967 q 632 844 546 967 q 718 475 718 721 q 633 109 718 233 q 396 -15 547 -15 q 160 108 247 -15 q 74 474 74 232 q 161 841 74 715 q 396 967 249 967 m 396 897 q 221 794 283 897 q 158 474 158 692 q 222 156 158 258 q 396 54 285 54 q 572 155 511 54 q 633 475 633 256 q 396 897 633 897 m 301 1226 l 517 1097 l 493 1053 l 265 1158 l 301 1226 z "},"Ỏ":{"ha":792,"x_min":74,"x_max":718,"o":"m 396 967 q 632 844 546 967 q 718 475 718 721 q 633 109 718 233 q 396 -15 547 -15 q 160 108 247 -15 q 74 474 74 232 q 161 841 74 715 q 396 967 249 967 m 396 897 q 221 794 283 897 q 158 474 158 692 q 222 156 158 258 q 396 54 285 54 q 572 155 511 54 q 633 475 633 256 q 396 897 633 897 m 365 1176 q 425 1194 406 1179 q 444 1242 444 1208 q 431 1284 444 1269 q 392 1299 417 1299 q 360 1294 374 1299 q 328 1281 346 1290 l 307 1326 q 403 1357 349 1357 q 482 1327 453 1357 q 511 1247 511 1297 q 425 1140 511 1154 l 425 1075 l 365 1075 l 365 1176 z "},"Ơ":{"ha":792,"x_min":74,"x_max":736,"o":"m 736 953 q 713 869 736 900 q 642 828 689 839 q 718 475 718 703 q 633 109 718 233 q 396 -15 547 -15 q 160 108 247 -15 q 74 474 74 232 q 161 841 74 715 q 396 967 249 967 q 610 874 529 967 q 658 898 643 879 q 672 953 672 917 q 657 1053 672 1000 l 714 1069 q 736 953 736 1011 m 396 54 q 572 155 511 54 q 633 475 633 256 q 396 897 633 897 q 221 794 283 897 q 158 474 158 692 q 222 156 158 258 q 396 54 285 54 z "},"Ớ":{"ha":792,"x_min":74,"x_max":736,"o":"m 522 1160 l 293 1053 l 271 1097 l 488 1228 l 522 1160 m 736 953 q 713 869 736 900 q 642 828 689 839 q 718 475 718 703 q 633 109 718 233 q 396 -15 547 -15 q 160 108 247 -15 q 74 474 74 232 q 161 841 74 715 q 396 967 249 967 q 610 874 529 967 q 658 898 643 879 q 672 953 672 917 q 657 1053 672 1000 l 714 1069 q 736 953 736 1011 m 396 54 q 572 155 511 54 q 633 475 633 256 q 396 897 633 897 q 221 794 283 897 q 158 474 158 692 q 222 156 158 258 q 396 54 285 54 z "},"Ợ":{"ha":792,"x_min":74,"x_max":736,"o":"m 736 953 q 713 869 736 900 q 642 828 689 839 q 718 475 718 703 q 633 109 718 233 q 396 -15 547 -15 q 160 108 247 -15 q 74 474 74 232 q 161 841 74 715 q 396 967 249 967 q 610 874 529 967 q 658 898 643 879 q 672 953 672 917 q 657 1053 672 1000 l 714 1069 q 736 953 736 1011 m 396 54 q 572 155 511 54 q 633 475 633 256 q 396 897 633 897 q 221 794 283 897 q 158 474 158 692 q 222 156 158 258 q 396 54 285 54 m 396 -121 q 435 -137 419 -121 q 451 -176 451 -154 q 436 -218 451 -201 q 396 -235 421 -235 q 356 -218 371 -235 q 340 -176 340 -201 q 356 -137 340 -154 q 396 -121 371 -121 z "},"Ờ":{"ha":792,"x_min":74,"x_max":736,"o":"m 517 1097 l 493 1053 l 265 1158 l 301 1226 l 517 1097 m 736 953 q 713 869 736 900 q 642 828 689 839 q 718 475 718 703 q 633 109 718 233 q 396 -15 547 -15 q 160 108 247 -15 q 74 474 74 232 q 161 841 74 715 q 396 967 249 967 q 610 874 529 967 q 658 898 643 879 q 672 953 672 917 q 657 1053 672 1000 l 714 1069 q 736 953 736 1011 m 396 54 q 572 155 511 54 q 633 475 633 256 q 396 897 633 897 q 221 794 283 897 q 158 474 158 692 q 222 156 158 258 q 396 54 285 54 z "},"Ở":{"ha":792,"x_min":74,"x_max":736,"o":"m 392 1299 q 360 1294 374 1299 q 328 1281 346 1290 l 307 1326 q 403 1357 349 1357 q 482 1327 453 1357 q 511 1247 511 1297 q 425 1140 511 1154 l 425 1075 l 365 1075 l 365 1176 q 425 1194 406 1179 q 444 1242 444 1208 q 431 1284 444 1269 q 392 1299 417 1299 m 736 953 q 713 869 736 900 q 642 828 689 839 q 718 475 718 703 q 633 109 718 233 q 396 -15 547 -15 q 160 108 247 -15 q 74 474 74 232 q 161 841 74 715 q 396 967 249 967 q 610 874 529 967 q 658 898 643 879 q 672 953 672 917 q 657 1053 672 1000 l 714 1069 q 736 953 736 1011 m 396 54 q 572 155 511 54 q 633 475 633 256 q 396 897 633 897 q 221 794 283 897 q 158 474 158 692 q 222 156 158 258 q 396 54 285 54 z "},"Ỡ":{"ha":792,"x_min":74,"x_max":736,"o":"m 329 1165 q 297 1153 311 1165 q 265 1110 283 1140 l 221 1132 q 328 1224 264 1224 q 365 1215 347 1224 q 404 1190 383 1206 q 437 1169 425 1175 q 463 1163 449 1163 q 495 1176 481 1163 q 526 1222 510 1190 l 571 1201 q 465 1104 533 1104 q 426 1113 443 1104 q 383 1139 408 1122 q 329 1165 349 1165 m 736 953 q 713 869 736 900 q 642 828 689 839 q 718 475 718 703 q 633 109 718 233 q 396 -15 547 -15 q 160 108 247 -15 q 74 474 74 232 q 161 841 74 715 q 396 967 249 967 q 610 874 529 967 q 658 898 643 879 q 672 953 672 917 q 657 1053 672 1000 l 714 1069 q 736 953 736 1011 m 396 54 q 572 155 511 54 q 633 475 633 256 q 396 897 633 897 q 221 794 283 897 q 158 474 158 692 q 222 156 158 258 q 396 54 285 54 z "},"Ő":{"ha":792,"x_min":74,"x_max":718,"o":"m 396 967 q 632 844 546 967 q 718 475 718 721 q 633 109 718 233 q 396 -15 547 -15 q 160 108 247 -15 q 74 474 74 232 q 161 841 74 715 q 396 967 249 967 m 396 897 q 221 794 283 897 q 158 474 158 692 q 222 156 158 258 q 396 54 285 54 q 572 155 511 54 q 633 475 633 256 q 396 897 633 897 m 524 1299 l 588 1264 l 479 1068 l 433 1089 l 524 1299 m 372 1297 l 436 1264 l 336 1074 l 290 1094 l 372 1297 z "},"Ƣ":{"ha":1036,"x_min":74,"x_max":914,"o":"m 749 967 q 871 919 828 967 q 914 782 914 872 l 914 -274 l 835 -274 l 835 783 q 743 903 835 903 q 621 860 683 903 q 718 475 718 732 q 633 109 718 233 q 396 -15 547 -15 q 160 108 247 -15 q 74 474 74 232 q 161 841 74 715 q 396 967 249 967 q 579 904 503 967 q 749 967 661 967 m 396 54 q 572 155 511 54 q 633 475 633 256 q 396 897 633 897 q 221 794 283 897 q 158 474 158 692 q 222 156 158 258 q 396 54 285 54 z "},"Ȏ":{"ha":792,"x_min":74,"x_max":718,"o":"m 396 967 q 632 844 546 967 q 718 475 718 721 q 633 109 718 233 q 396 -15 547 -15 q 160 108 247 -15 q 74 474 74 232 q 161 841 74 715 q 396 967 249 967 m 396 897 q 221 794 283 897 q 158 474 158 692 q 222 156 158 258 q 396 54 285 54 q 572 155 511 54 q 633 475 633 256 q 396 897 633 897 m 394 1256 q 500 1215 458 1256 q 549 1103 542 1175 l 497 1092 q 394 1193 476 1193 q 293 1092 315 1193 l 243 1103 q 291 1215 250 1175 q 394 1256 332 1256 z "},"Ō":{"ha":792,"x_min":74,"x_max":718,"o":"m 396 967 q 632 844 546 967 q 718 475 718 721 q 633 109 718 233 q 396 -15 547 -15 q 160 108 247 -15 q 74 474 74 232 q 161 841 74 715 q 396 967 249 967 m 396 897 q 221 794 283 897 q 158 474 158 692 q 222 156 158 258 q 396 54 285 54 q 572 155 511 54 q 633 475 633 256 q 396 897 633 897 m 536 1115 l 256 1115 l 256 1176 l 536 1176 l 536 1115 z "},"Ṓ":{"ha":792,"x_min":74,"x_max":718,"o":"m 396 967 q 632 844 546 967 q 718 475 718 721 q 633 109 718 233 q 396 -15 547 -15 q 160 108 247 -15 q 74 474 74 232 q 161 841 74 715 q 396 967 249 967 m 396 897 q 221 794 283 897 q 158 474 158 692 q 222 156 158 258 q 396 54 285 54 q 572 155 511 54 q 633 475 633 256 q 396 897 633 897 m 536 1060 l 256 1060 l 256 1121 l 536 1121 l 536 1060 m 483 1365 l 518 1297 l 289 1190 l 267 1235 l 483 1365 z "},"Ṑ":{"ha":792,"x_min":74,"x_max":718,"o":"m 314 1364 l 529 1235 l 506 1190 l 278 1296 l 314 1364 m 540 1060 l 260 1060 l 260 1121 l 540 1121 l 540 1060 m 396 967 q 632 844 546 967 q 718 475 718 721 q 633 109 718 233 q 396 -15 547 -15 q 160 108 247 -15 q 74 474 74 232 q 161 841 74 715 q 396 967 249 967 m 396 897 q 221 794 283 897 q 158 474 158 692 q 222 156 158 258 q 396 54 285 54 q 572 155 511 54 q 633 475 633 256 q 396 897 633 897 z "},"Ꞷ":{"ha":968,"x_min":81,"x_max":888,"o":"m 801 951 q 866 690 844 808 q 888 404 888 572 q 828 79 888 174 q 660 -15 768 -15 q 482 133 514 -15 q 307 -15 446 -15 q 138 81 194 -15 q 81 406 81 176 q 102 689 81 572 q 168 951 124 806 l 246 951 q 182 684 201 803 q 163 407 163 565 q 179 191 163 268 q 228 84 196 114 q 311 54 261 54 q 442 238 442 54 l 442 551 l 522 551 l 522 236 q 654 53 522 53 q 735 81 703 53 q 788 187 768 110 q 807 404 807 264 q 787 683 807 563 q 722 951 767 803 l 801 951 z "},"Ǫ":{"ha":792,"x_min":74,"x_max":718,"o":"m 492 0 q 386 -78 417 -42 q 356 -167 356 -115 q 426 -237 356 -237 q 492 -229 454 -237 l 485 -292 q 418 -301 446 -301 q 322 -267 356 -301 q 288 -175 288 -232 q 312 -87 288 -126 q 386 -15 336 -49 q 158 113 242 -11 q 74 474 74 236 q 161 841 74 715 q 396 967 249 967 q 632 844 546 967 q 718 475 718 721 q 659 155 718 275 q 492 0 600 35 m 158 474 q 222 156 158 258 q 396 54 285 54 q 572 155 511 54 q 633 475 633 256 q 396 897 633 897 q 221 794 283 897 q 158 474 158 692 z "},"Ǭ":{"ha":792,"x_min":74,"x_max":718,"o":"m 536 1176 l 536 1115 l 256 1115 l 256 1176 l 536 1176 m 492 0 q 386 -78 417 -42 q 356 -167 356 -115 q 426 -237 356 -237 q 492 -229 454 -237 l 485 -292 q 418 -301 446 -301 q 322 -267 356 -301 q 288 -175 288 -232 q 312 -87 288 -126 q 386 -15 336 -49 q 158 113 242 -11 q 74 474 74 236 q 161 841 74 715 q 396 967 249 967 q 632 844 546 967 q 718 475 718 721 q 659 155 718 275 q 492 0 600 35 m 158 474 q 222 156 158 258 q 396 54 285 54 q 572 155 511 54 q 633 475 633 256 q 396 897 633 897 q 221 794 283 897 q 158 474 158 692 z "},"Ɔ":{"ha":632,"x_min":24,"x_max":558,"o":"m 256 967 q 478 845 399 967 q 558 476 558 724 q 517 203 558 314 q 405 39 476 93 q 240 -15 333 -15 q 119 11 171 -15 q 24 82 67 38 l 68 129 q 149 74 111 92 q 239 56 186 56 q 409 158 344 56 q 474 476 474 261 q 253 897 474 897 q 160 881 203 897 q 74 829 117 864 l 33 879 q 135 944 82 922 q 256 967 189 967 z "},"Ø":{"ha":792,"x_min":74,"x_max":718,"o":"m 543 929 q 672 766 626 881 q 718 475 718 651 q 633 109 718 233 q 396 -15 547 -15 q 310 -4 354 -15 l 271 -165 l 203 -147 l 249 24 q 119 185 165 72 q 74 474 74 299 q 114 746 74 635 q 226 912 154 857 q 396 967 299 967 q 479 956 439 967 l 521 1125 l 589 1106 l 543 929 m 157 474 q 278 90 157 175 l 467 888 q 396 897 436 897 q 219 794 282 897 q 157 474 157 692 m 396 54 q 573 157 513 54 q 633 485 633 260 q 515 863 633 781 l 325 65 q 396 54 354 54 z "},"Ǿ":{"ha":792,"x_min":74,"x_max":718,"o":"m 543 929 q 672 766 626 881 q 718 475 718 651 q 633 109 718 233 q 396 -15 547 -15 q 310 -4 354 -15 l 271 -165 l 203 -147 l 249 24 q 119 185 165 72 q 74 474 74 299 q 114 746 74 635 q 226 912 154 857 q 396 967 299 967 q 479 956 439 967 l 521 1125 l 589 1106 l 543 929 m 157 474 q 278 90 157 175 l 467 888 q 396 897 436 897 q 219 794 282 897 q 157 474 157 692 m 396 54 q 573 157 513 54 q 633 485 633 260 q 515 863 633 781 l 325 65 q 396 54 354 54 m 481 1244 l 515 1176 l 286 1069 l 264 1114 l 481 1244 z "},"Õ":{"ha":792,"x_min":74,"x_max":718,"o":"m 396 967 q 632 844 546 967 q 718 475 718 721 q 633 109 718 233 q 396 -15 547 -15 q 160 108 247 -15 q 74 474 74 232 q 161 841 74 715 q 396 967 249 967 m 396 897 q 221 794 283 897 q 158 474 158 692 q 222 156 158 258 q 396 54 285 54 q 572 155 511 54 q 633 475 633 256 q 396 897 633 897 m 465 1104 q 426 1113 443 1104 q 383 1139 408 1122 q 329 1165 349 1165 q 297 1153 311 1165 q 265 1110 283 1140 l 221 1132 q 328 1224 264 1224 q 365 1215 347 1224 q 404 1190 383 1206 q 437 1169 425 1175 q 463 1163 449 1163 q 495 1176 481 1163 q 526 1222 510 1190 l 571 1201 q 465 1104 533 1104 z "},"Ṍ":{"ha":792,"x_min":74,"x_max":718,"o":"m 396 967 q 632 844 546 967 q 718 475 718 721 q 633 109 718 233 q 396 -15 547 -15 q 160 108 247 -15 q 74 474 74 232 q 161 841 74 715 q 396 967 249 967 m 396 897 q 221 794 283 897 q 158 474 158 692 q 222 156 158 258 q 396 54 285 54 q 572 155 511 54 q 633 475 633 256 q 396 897 633 897 m 465 1056 q 426 1065 443 1056 q 383 1090 408 1074 q 329 1117 349 1117 q 297 1104 311 1117 q 265 1061 283 1092 l 221 1083 q 328 1175 264 1175 q 365 1166 347 1175 q 404 1142 383 1157 q 437 1120 425 1126 q 463 1114 449 1114 q 495 1128 481 1114 q 526 1174 510 1142 l 571 1153 q 465 1056 533 1056 m 488 1394 l 522 1326 l 293 1219 l 271 1264 l 488 1394 z "},"Ȭ":{"ha":792,"x_min":74,"x_max":718,"o":"m 396 967 q 632 844 546 967 q 718 475 718 721 q 633 109 718 233 q 396 -15 547 -15 q 160 108 247 -15 q 74 474 74 232 q 161 841 74 715 q 396 967 249 967 m 396 897 q 221 794 283 897 q 158 474 158 692 q 222 156 158 258 q 396 54 285 54 q 572 155 511 54 q 633 475 633 256 q 396 897 633 897 m 465 1056 q 426 1065 443 1056 q 383 1090 408 1074 q 329 1117 349 1117 q 297 1104 311 1117 q 265 1061 283 1092 l 221 1083 q 328 1175 264 1175 q 365 1166 347 1175 q 404 1142 383 1157 q 437 1120 425 1126 q 463 1114 449 1114 q 495 1128 481 1114 q 526 1174 510 1142 l 571 1153 q 465 1056 533 1056 m 532 1243 l 251 1243 l 251 1304 l 532 1304 l 532 1243 z "},"Œ":{"ha":996,"x_min":74,"x_max":946,"o":"m 946 0 l 465 0 q 382 -15 426 -15 q 222 41 292 -15 q 113 208 153 97 q 74 474 74 318 q 113 740 74 629 q 223 909 153 851 q 382 967 293 967 q 468 951 426 967 l 939 951 l 931 883 l 565 883 q 694 528 685 775 l 888 528 l 888 458 l 696 458 q 563 68 690 185 l 946 68 l 946 0 m 158 474 q 221 160 158 265 q 385 54 283 54 q 551 160 490 54 q 611 482 611 267 q 550 793 611 689 q 385 897 489 897 q 219 791 281 897 q 158 474 158 685 z "},"P":{"ha":647,"x_min":122,"x_max":606,"o":"m 275 951 q 524 881 442 951 q 606 667 606 810 q 274 372 606 372 l 201 372 l 201 0 l 122 0 l 122 951 l 275 951 m 275 439 q 460 490 400 439 q 521 665 521 542 q 463 833 521 782 q 276 885 404 885 l 201 885 l 201 439 l 275 439 z "},"Ṕ":{"ha":647,"x_min":122,"x_max":606,"o":"m 275 951 q 524 881 442 951 q 606 667 606 810 q 274 372 606 372 l 201 372 l 201 0 l 122 0 l 122 951 l 275 951 m 275 439 q 460 490 400 439 q 521 665 521 542 q 463 833 521 782 q 276 885 404 885 l 201 885 l 201 439 l 275 439 m 419 1228 l 454 1160 l 225 1053 l 203 1097 l 419 1228 z "},"Ṗ":{"ha":647,"x_min":122,"x_max":606,"o":"m 275 951 q 524 881 442 951 q 606 667 606 810 q 274 372 606 372 l 201 372 l 201 0 l 122 0 l 122 951 l 275 951 m 275 439 q 460 490 400 439 q 521 665 521 542 q 463 833 521 782 q 276 885 404 885 l 201 885 l 201 439 l 275 439 m 328 1219 q 368 1203 353 1219 q 383 1161 383 1186 q 368 1122 383 1139 q 328 1106 353 1106 q 288 1122 304 1106 q 272 1161 272 1139 q 288 1203 272 1186 q 328 1219 303 1219 z "},"Ƥ":{"ha":724,"x_min":17,"x_max":682,"o":"m 351 951 q 600 881 518 951 q 682 667 682 810 q 350 372 682 372 l 278 372 l 278 0 l 199 0 l 199 885 l 172 885 q 88 797 88 885 q 117 690 88 746 l 61 663 q 28 727 40 696 q 17 803 17 758 q 56 910 17 869 q 174 951 96 951 l 351 951 m 351 439 q 537 490 476 439 q 597 665 597 542 q 539 833 597 782 q 353 885 481 885 l 278 885 l 278 439 l 351 439 z "},"Þ":{"ha":647,"x_min":122,"x_max":606,"o":"m 281 781 q 525 710 444 781 q 606 494 606 640 q 281 190 606 190 l 201 190 l 201 0 l 122 0 l 122 951 l 201 951 l 201 781 l 281 781 m 278 257 q 461 310 401 257 q 521 493 521 363 q 463 662 521 610 q 281 714 406 714 l 201 714 l 201 257 l 278 257 z "},"Q":{"ha":792,"x_min":74,"x_max":751,"o":"m 518 33 q 751 -67 658 29 l 696 -128 q 568 -36 635 -61 q 393 -11 501 -11 q 160 111 247 -11 q 74 474 74 233 q 114 746 74 635 q 226 912 154 857 q 396 967 299 967 q 632 843 546 967 q 718 475 718 719 q 665 178 718 281 q 518 33 613 75 m 158 474 q 222 156 158 258 q 396 54 285 54 q 572 155 511 54 q 633 475 633 256 q 396 897 633 897 q 221 794 283 897 q 158 474 158 692 z "},"Ɋ":{"ha":758,"x_min":74,"x_max":826,"o":"m 826 -237 q 703 -285 771 -285 q 596 -243 638 -285 q 554 -124 554 -201 l 554 72 q 372 -15 485 -15 q 156 102 239 -15 q 74 457 74 219 q 113 741 74 626 q 222 911 153 856 q 376 967 290 967 q 558 882 486 967 l 564 951 l 635 951 l 635 -125 q 707 -218 635 -218 q 790 -187 750 -218 l 826 -237 m 379 54 q 554 153 485 54 l 554 807 q 386 897 490 897 q 220 792 282 897 q 158 457 158 686 q 218 149 158 244 q 379 54 278 54 z "},"R":{"ha":676,"x_min":122,"x_max":642,"o":"m 553 0 l 353 429 l 308 428 l 201 428 l 201 0 l 122 0 l 122 951 l 292 951 q 601 693 601 951 q 557 536 601 600 q 429 444 513 472 l 642 0 l 553 0 m 299 494 q 463 542 411 494 q 515 693 515 590 q 464 838 515 790 q 288 885 413 885 l 201 885 l 201 494 l 299 494 z "},"Ŕ":{"ha":676,"x_min":122,"x_max":642,"o":"m 553 0 l 353 429 l 308 428 l 201 428 l 201 0 l 122 0 l 122 951 l 292 951 q 601 693 601 951 q 557 536 601 600 q 429 444 513 472 l 642 0 l 553 0 m 299 494 q 463 542 411 494 q 515 693 515 590 q 464 838 515 790 q 288 885 413 885 l 201 885 l 201 494 l 299 494 m 425 1228 l 460 1160 l 231 1053 l 208 1097 l 425 1228 z "},"Ř":{"ha":676,"x_min":122,"x_max":642,"o":"m 553 0 l 353 429 l 308 428 l 201 428 l 201 0 l 122 0 l 122 951 l 292 951 q 601 693 601 951 q 557 536 601 600 q 429 444 513 472 l 642 0 l 553 0 m 299 494 q 463 542 411 494 q 515 693 515 590 q 464 838 515 790 q 288 885 413 885 l 201 885 l 201 494 l 299 494 m 474 1229 l 506 1194 l 357 1050 l 308 1050 l 160 1194 l 192 1229 l 333 1118 l 474 1229 z "},"Ŗ":{"ha":676,"x_min":122,"x_max":642,"o":"m 553 0 l 353 429 l 308 428 l 201 428 l 201 0 l 122 0 l 122 951 l 292 951 q 601 693 601 951 q 557 536 601 600 q 429 444 513 472 l 642 0 l 553 0 m 299 494 q 463 542 411 494 q 515 693 515 590 q 464 838 515 790 q 288 885 413 885 l 201 885 l 201 494 l 299 494 m 350 -118 q 390 -134 375 -118 q 406 -175 406 -150 q 399 -213 406 -192 q 379 -267 392 -235 l 333 -386 l 288 -386 l 328 -228 q 294 -175 294 -210 q 310 -134 294 -150 q 350 -118 325 -118 z "},"Ȑ":{"ha":676,"x_min":122,"x_max":642,"o":"m 553 0 l 353 429 l 308 428 l 201 428 l 201 0 l 122 0 l 122 951 l 292 951 q 601 693 601 951 q 557 536 601 600 q 429 444 513 472 l 642 0 l 553 0 m 299 494 q 463 542 411 494 q 515 693 515 590 q 464 838 515 790 q 288 885 413 885 l 201 885 l 201 494 l 299 494 m 193 1299 l 283 1089 l 238 1068 l 129 1264 l 193 1299 m 344 1297 l 426 1094 l 381 1074 l 281 1264 l 344 1297 z "},"Ṛ":{"ha":676,"x_min":122,"x_max":642,"o":"m 553 0 l 353 429 l 308 428 l 201 428 l 201 0 l 122 0 l 122 951 l 292 951 q 601 693 601 951 q 557 536 601 600 q 429 444 513 472 l 642 0 l 553 0 m 299 494 q 463 542 411 494 q 515 693 515 590 q 464 838 515 790 q 288 885 413 885 l 201 885 l 201 494 l 299 494 m 351 -235 q 311 -218 326 -235 q 296 -176 296 -201 q 311 -137 296 -154 q 351 -121 326 -121 q 391 -137 375 -121 q 407 -176 407 -154 q 392 -218 407 -201 q 351 -235 376 -235 z "},"Ȓ":{"ha":676,"x_min":122,"x_max":642,"o":"m 553 0 l 353 429 l 308 428 l 201 428 l 201 0 l 122 0 l 122 951 l 292 951 q 601 693 601 951 q 557 536 601 600 q 429 444 513 472 l 642 0 l 553 0 m 299 494 q 463 542 411 494 q 515 693 515 590 q 464 838 515 790 q 288 885 413 885 l 201 885 l 201 494 l 299 494 m 332 1256 q 438 1215 396 1256 q 486 1103 479 1175 l 435 1092 q 332 1193 414 1193 q 231 1092 253 1193 l 181 1103 q 228 1215 188 1175 q 332 1256 269 1256 z "},"Ɍ":{"ha":683,"x_min":28,"x_max":649,"o":"m 560 0 l 360 429 l 315 428 l 208 428 l 208 0 l 129 0 l 129 428 l 28 428 l 28 494 l 129 494 l 129 951 l 299 951 q 608 693 608 951 q 564 536 608 600 q 436 444 519 472 l 649 0 l 560 0 m 306 494 q 470 542 418 494 q 522 693 522 590 q 471 838 522 790 q 294 885 419 885 l 208 885 l 208 494 l 306 494 z "},"Ɽ":{"ha":676,"x_min":121,"x_max":642,"o":"m 201 -125 q 274 -218 201 -218 q 357 -187 317 -218 l 393 -237 q 269 -285 338 -285 q 163 -243 204 -285 q 121 -124 121 -201 l 121 1 l 122 1 l 122 951 l 292 951 q 601 693 601 951 q 557 536 601 600 q 429 444 513 472 l 642 0 l 553 0 l 353 429 l 308 428 l 201 428 l 201 -125 m 201 885 l 201 494 l 299 494 q 463 542 411 494 q 515 693 515 590 q 464 838 515 790 q 288 885 413 885 l 201 885 z "},"S":{"ha":617,"x_min":39,"x_max":558,"o":"m 308 967 q 433 940 381 967 q 535 861 486 914 l 489 815 q 403 878 446 858 q 308 897 361 897 q 195 852 239 897 q 151 736 151 807 q 191 622 151 665 q 332 540 231 578 q 503 433 449 496 q 558 260 558 371 q 525 121 558 183 q 431 22 492 58 q 293 -15 371 -15 q 153 15 215 -15 q 39 104 92 46 l 85 150 q 181 78 133 103 q 292 54 229 54 q 425 110 375 54 q 475 257 475 165 q 436 386 475 339 q 294 474 397 433 q 123 580 175 519 q 71 733 71 640 q 101 849 71 796 q 186 935 132 903 q 308 967 240 967 z "},"Ś":{"ha":617,"x_min":39,"x_max":558,"o":"m 308 967 q 433 940 381 967 q 535 861 486 914 l 489 815 q 403 878 446 858 q 308 897 361 897 q 195 852 239 897 q 151 736 151 807 q 191 622 151 665 q 332 540 231 578 q 503 433 449 496 q 558 260 558 371 q 525 121 558 183 q 431 22 492 58 q 293 -15 371 -15 q 153 15 215 -15 q 39 104 92 46 l 85 150 q 181 78 133 103 q 292 54 229 54 q 425 110 375 54 q 475 257 475 165 q 436 386 475 339 q 294 474 397 433 q 123 580 175 519 q 71 733 71 640 q 101 849 71 796 q 186 935 132 903 q 308 967 240 967 m 403 1228 l 438 1160 l 208 1053 l 186 1097 l 403 1228 z "},"Ꞌ":{"ha":257,"x_min":86,"x_max":171,"o":"m 97 492 l 86 951 l 171 951 l 160 492 l 97 492 z "},"Š":{"ha":617,"x_min":39,"x_max":558,"o":"m 308 967 q 433 940 381 967 q 535 861 486 914 l 489 815 q 403 878 446 858 q 308 897 361 897 q 195 852 239 897 q 151 736 151 807 q 191 622 151 665 q 332 540 231 578 q 503 433 449 496 q 558 260 558 371 q 525 121 558 183 q 431 22 492 58 q 293 -15 371 -15 q 153 15 215 -15 q 39 104 92 46 l 85 150 q 181 78 133 103 q 292 54 229 54 q 425 110 375 54 q 475 257 475 165 q 436 386 475 339 q 294 474 397 433 q 123 580 175 519 q 71 733 71 640 q 101 849 71 796 q 186 935 132 903 q 308 967 240 967 m 451 1229 l 483 1194 l 335 1050 l 286 1050 l 138 1194 l 169 1229 l 311 1118 l 451 1229 z "},"Ş":{"ha":617,"x_min":39,"x_max":558,"o":"m 558 260 q 493 74 558 151 q 322 -14 428 -4 l 322 -92 q 428 -197 428 -106 q 392 -283 428 -253 q 304 -314 357 -314 q 208 -286 251 -314 l 235 -240 q 300 -258 265 -258 q 345 -243 328 -258 q 363 -197 363 -228 q 338 -149 363 -164 q 260 -133 314 -133 l 269 -14 q 144 21 200 -10 q 39 104 88 51 l 85 150 q 181 78 133 103 q 292 54 229 54 q 425 110 375 54 q 475 257 475 165 q 436 386 475 339 q 294 474 397 433 q 123 580 175 519 q 71 733 71 640 q 101 849 71 796 q 186 935 132 903 q 308 967 240 967 q 433 940 381 967 q 535 861 486 914 l 489 815 q 403 878 446 858 q 308 897 361 897 q 195 852 239 897 q 151 736 151 807 q 191 622 151 665 q 332 540 231 578 q 503 433 449 496 q 558 260 558 371 z "},"Ŝ":{"ha":617,"x_min":39,"x_max":558,"o":"m 308 967 q 433 940 381 967 q 535 861 486 914 l 489 815 q 403 878 446 858 q 308 897 361 897 q 195 852 239 897 q 151 736 151 807 q 191 622 151 665 q 332 540 231 578 q 503 433 449 496 q 558 260 558 371 q 525 121 558 183 q 431 22 492 58 q 293 -15 371 -15 q 153 15 215 -15 q 39 104 92 46 l 85 150 q 181 78 133 103 q 292 54 229 54 q 425 110 375 54 q 475 257 475 165 q 436 386 475 339 q 294 474 397 433 q 123 580 175 519 q 71 733 71 640 q 101 849 71 796 q 186 935 132 903 q 308 967 240 967 m 171 1061 l 138 1096 l 286 1239 l 335 1239 l 483 1096 l 449 1061 l 310 1171 l 171 1061 z "},"Ș":{"ha":617,"x_min":39,"x_max":558,"o":"m 308 967 q 433 940 381 967 q 535 861 486 914 l 489 815 q 403 878 446 858 q 308 897 361 897 q 195 852 239 897 q 151 736 151 807 q 191 622 151 665 q 332 540 231 578 q 503 433 449 496 q 558 260 558 371 q 525 121 558 183 q 431 22 492 58 q 293 -15 371 -15 q 153 15 215 -15 q 39 104 92 46 l 85 150 q 181 78 133 103 q 292 54 229 54 q 425 110 375 54 q 475 257 475 165 q 436 386 475 339 q 294 474 397 433 q 123 580 175 519 q 71 733 71 640 q 101 849 71 796 q 186 935 132 903 q 308 967 240 967 m 300 -118 q 340 -134 325 -118 q 356 -175 356 -150 q 349 -213 356 -192 q 329 -267 342 -235 l 283 -386 l 238 -386 l 278 -228 q 244 -175 244 -210 q 260 -134 244 -150 q 300 -118 275 -118 z "},"Ṡ":{"ha":617,"x_min":39,"x_max":558,"o":"m 308 967 q 433 940 381 967 q 535 861 486 914 l 489 815 q 403 878 446 858 q 308 897 361 897 q 195 852 239 897 q 151 736 151 807 q 191 622 151 665 q 332 540 231 578 q 503 433 449 496 q 558 260 558 371 q 525 121 558 183 q 431 22 492 58 q 293 -15 371 -15 q 153 15 215 -15 q 39 104 92 46 l 85 150 q 181 78 133 103 q 292 54 229 54 q 425 110 375 54 q 475 257 475 165 q 436 386 475 339 q 294 474 397 433 q 123 580 175 519 q 71 733 71 640 q 101 849 71 796 q 186 935 132 903 q 308 967 240 967 m 311 1219 q 351 1203 336 1219 q 367 1161 367 1186 q 351 1122 367 1139 q 311 1106 336 1106 q 272 1122 288 1106 q 256 1161 256 1139 q 271 1203 256 1186 q 311 1219 286 1219 z "},"Ṣ":{"ha":617,"x_min":39,"x_max":558,"o":"m 308 967 q 433 940 381 967 q 535 861 486 914 l 489 815 q 403 878 446 858 q 308 897 361 897 q 195 852 239 897 q 151 736 151 807 q 191 622 151 665 q 332 540 231 578 q 503 433 449 496 q 558 260 558 371 q 525 121 558 183 q 431 22 492 58 q 293 -15 371 -15 q 153 15 215 -15 q 39 104 92 46 l 85 150 q 181 78 133 103 q 292 54 229 54 q 425 110 375 54 q 475 257 475 165 q 436 386 475 339 q 294 474 397 433 q 123 580 175 519 q 71 733 71 640 q 101 849 71 796 q 186 935 132 903 q 308 967 240 967 m 301 -235 q 261 -218 276 -235 q 246 -176 246 -201 q 261 -137 246 -154 q 301 -121 276 -121 q 341 -137 325 -121 q 357 -176 357 -154 q 342 -218 357 -201 q 301 -235 326 -235 z "},"ẞ":{"ha":742,"x_min":122,"x_max":685,"o":"m 364 967 q 640 885 493 967 l 640 829 l 424 535 q 619 447 553 515 q 685 258 685 379 q 619 58 685 132 q 446 -15 554 -15 q 313 17 363 -15 l 339 75 q 440 54 383 54 q 558 106 515 54 q 601 257 601 158 q 540 416 601 364 q 350 478 479 468 l 350 544 l 571 850 q 367 897 460 897 q 244 849 288 897 q 201 708 201 801 l 201 0 l 122 0 l 122 711 q 185 899 122 831 q 364 967 249 967 z "},"Ə":{"ha":739,"x_min":60,"x_max":665,"o":"m 364 967 q 588 853 510 967 q 665 481 665 739 q 585 103 665 222 q 361 -15 504 -15 q 60 461 60 -15 q 63 518 60 476 l 583 518 q 522 812 578 726 q 360 897 465 897 q 251 875 300 897 q 151 806 201 853 l 107 853 q 226 939 164 911 q 364 967 288 967 m 360 53 q 520 144 463 53 q 583 451 578 235 l 140 451 q 197 145 140 238 q 360 53 254 53 z "},"T":{"ha":568,"x_min":17,"x_max":558,"o":"m 558 951 l 549 882 l 325 882 l 325 0 l 244 0 l 244 882 l 17 882 l 17 951 l 558 951 z "},"Ŧ":{"ha":568,"x_min":17,"x_max":558,"o":"m 549 881 l 325 881 l 325 533 l 464 533 l 464 469 l 325 469 l 325 -1 l 244 -1 l 244 469 l 104 469 l 104 533 l 244 533 l 244 881 l 17 881 l 17 950 l 558 950 l 549 881 z "},"Ť":{"ha":568,"x_min":17,"x_max":558,"o":"m 558 951 l 549 882 l 325 882 l 325 0 l 244 0 l 244 882 l 17 882 l 17 951 l 558 951 m 425 1229 l 457 1194 l 308 1050 l 260 1050 l 111 1194 l 143 1229 l 285 1118 l 425 1229 z "},"Ţ":{"ha":568,"x_min":17,"x_max":558,"o":"m 325 -90 q 406 -123 379 -96 q 432 -194 432 -150 q 397 -283 432 -251 q 306 -314 361 -314 q 213 -286 250 -314 l 236 -236 q 301 -258 268 -258 q 349 -242 331 -258 q 367 -194 367 -226 q 342 -149 367 -164 q 264 -133 317 -133 l 275 0 l 244 0 l 244 882 l 17 882 l 17 951 l 558 951 l 549 882 l 325 882 l 325 -90 z "},"Ṱ":{"ha":568,"x_min":17,"x_max":558,"o":"m 558 951 l 549 882 l 325 882 l 325 0 l 244 0 l 244 882 l 17 882 l 17 951 l 558 951 m 146 -282 l 113 -247 l 261 -97 l 310 -97 l 458 -247 l 424 -282 l 285 -164 l 146 -282 z "},"Ț":{"ha":568,"x_min":17,"x_max":558,"o":"m 558 951 l 549 882 l 325 882 l 325 0 l 244 0 l 244 882 l 17 882 l 17 951 l 558 951 m 283 -118 q 324 -134 308 -118 q 339 -175 339 -150 q 332 -213 339 -192 q 313 -267 325 -235 l 267 -386 l 221 -386 l 261 -228 q 228 -175 228 -210 q 243 -134 228 -150 q 283 -118 258 -118 z "},"Ⱦ":{"ha":568,"x_min":17,"x_max":558,"o":"m 549 881 l 431 881 l 322 499 l 322 0 l 246 0 l 246 229 l 153 -97 l 113 -85 l 246 386 l 246 881 l 17 881 l 17 951 l 406 951 l 431 1038 l 472 1025 l 451 951 l 558 951 l 549 881 m 322 656 l 386 881 l 322 881 l 322 656 z "},"Ṫ":{"ha":568,"x_min":17,"x_max":558,"o":"m 558 951 l 549 882 l 325 882 l 325 0 l 244 0 l 244 882 l 17 882 l 17 951 l 558 951 m 285 1219 q 325 1203 310 1219 q 340 1161 340 1186 q 325 1122 340 1139 q 285 1106 310 1106 q 245 1122 261 1106 q 229 1161 229 1139 q 244 1203 229 1186 q 285 1219 260 1219 z "},"Ṭ":{"ha":568,"x_min":17,"x_max":558,"o":"m 558 951 l 549 882 l 325 882 l 325 0 l 244 0 l 244 882 l 17 882 l 17 951 l 558 951 m 285 -235 q 244 -218 260 -235 q 229 -176 229 -201 q 244 -137 229 -154 q 285 -121 260 -121 q 324 -137 308 -121 q 340 -176 340 -154 q 325 -218 340 -201 q 285 -235 310 -235 z "},"Ƭ":{"ha":604,"x_min":17,"x_max":593,"o":"m 585 881 l 360 881 l 360 0 l 279 0 l 279 881 l 168 881 q 108 858 128 881 q 89 796 89 835 q 117 693 89 744 l 60 663 q 28 726 39 694 q 17 797 17 757 q 58 911 17 871 q 181 951 100 951 l 593 951 l 585 881 z "},"Ṯ":{"ha":568,"x_min":17,"x_max":558,"o":"m 558 951 l 549 882 l 325 882 l 325 0 l 244 0 l 244 882 l 17 882 l 17 951 l 558 951 m 426 -218 l 146 -218 l 146 -157 l 426 -157 l 426 -218 z "},"Ƽ":{"ha":575,"x_min":38,"x_max":518,"o":"m 479 886 l 163 886 l 163 554 q 227 588 196 576 q 299 599 258 599 q 458 522 397 599 q 518 304 518 444 q 486 136 518 208 q 397 24 454 64 q 263 -15 339 -15 q 139 13 192 -15 q 38 96 86 40 l 86 139 q 166 72 125 93 q 261 51 207 51 q 390 117 343 51 q 438 306 438 183 q 394 481 438 426 q 278 535 351 535 q 212 524 240 535 q 147 490 183 514 l 89 490 l 89 951 l 492 951 l 479 886 z "},"Ƅ":{"ha":644,"x_min":60,"x_max":606,"o":"m 304 586 q 528 515 450 586 q 606 301 606 444 q 306 0 606 0 l 122 0 l 122 765 l 60 813 q 132 951 107 867 l 201 951 l 201 586 l 304 586 m 311 68 q 468 122 415 68 q 521 301 521 176 q 468 468 521 417 q 306 519 415 519 l 201 519 l 201 68 l 311 68 z "},"Ƨ":{"ha":607,"x_min":58,"x_max":568,"o":"m 321 967 q 485 904 424 967 q 547 742 547 842 q 496 584 547 642 q 322 478 444 526 q 181 388 219 436 q 142 250 142 339 q 190 106 142 157 q 314 54 238 54 q 426 78 378 54 q 522 150 475 103 l 568 104 q 313 -15 460 -15 q 181 18 239 -15 q 90 112 122 51 q 58 250 58 172 q 113 428 58 364 q 285 538 168 492 q 392 591 354 565 q 447 652 431 617 q 463 742 463 688 q 424 856 463 815 q 318 897 386 897 q 217 878 261 897 q 126 814 172 858 l 82 861 q 192 940 136 914 q 321 967 247 967 z "},"Ʈ":{"ha":568,"x_min":17,"x_max":558,"o":"m 325 -125 q 397 -218 325 -218 q 481 -187 440 -218 l 517 -237 q 393 -285 461 -285 q 286 -243 328 -285 q 244 -124 244 -201 l 244 882 l 17 882 l 17 951 l 558 951 l 549 882 l 325 882 l 325 -125 z "},"U":{"ha":738,"x_min":108,"x_max":631,"o":"m 631 247 q 563 59 631 133 q 369 -15 496 -15 q 175 58 242 -15 q 108 247 108 132 l 108 951 l 188 951 l 188 254 q 233 108 188 160 q 369 56 278 56 q 506 108 461 56 q 550 254 550 161 l 550 951 l 631 951 l 631 247 z "},"Ú":{"ha":738,"x_min":108,"x_max":631,"o":"m 631 247 q 563 59 631 133 q 369 -15 496 -15 q 175 58 242 -15 q 108 247 108 132 l 108 951 l 188 951 l 188 254 q 233 108 188 160 q 369 56 278 56 q 506 108 461 56 q 550 254 550 161 l 550 951 l 631 951 l 631 247 m 461 1228 l 496 1160 l 267 1053 l 244 1097 l 461 1228 z "},"Ʉ":{"ha":769,"x_min":50,"x_max":719,"o":"m 719 714 l 646 714 l 646 247 q 578 59 646 133 q 385 -15 511 -15 q 190 58 257 -15 q 124 247 124 132 l 124 714 l 50 714 l 50 774 l 124 774 l 124 951 l 203 951 l 203 774 l 565 774 l 565 951 l 646 951 l 646 774 l 719 774 l 719 714 m 565 714 l 203 714 l 203 254 q 248 108 203 160 q 385 56 293 56 q 521 108 476 56 q 565 254 565 161 l 565 714 z "},"Ŭ":{"ha":738,"x_min":108,"x_max":631,"o":"m 631 247 q 563 59 631 133 q 369 -15 496 -15 q 175 58 242 -15 q 108 247 108 132 l 108 951 l 188 951 l 188 254 q 233 108 188 160 q 369 56 278 56 q 506 108 461 56 q 550 254 550 161 l 550 951 l 631 951 l 631 247 m 368 1063 q 265 1099 307 1063 q 217 1200 224 1136 l 267 1213 q 303 1149 278 1172 q 368 1126 329 1126 q 434 1149 407 1126 q 472 1213 461 1172 l 522 1200 q 473 1099 515 1136 q 368 1063 431 1063 z "},"Ǔ":{"ha":738,"x_min":108,"x_max":631,"o":"m 631 247 q 563 59 631 133 q 369 -15 496 -15 q 175 58 242 -15 q 108 247 108 132 l 108 951 l 188 951 l 188 254 q 233 108 188 160 q 369 56 278 56 q 506 108 461 56 q 550 254 550 161 l 550 951 l 631 951 l 631 247 m 510 1229 l 542 1194 l 393 1050 l 344 1050 l 196 1194 l 228 1229 l 369 1118 l 510 1229 z "},"Û":{"ha":738,"x_min":108,"x_max":631,"o":"m 631 247 q 563 59 631 133 q 369 -15 496 -15 q 175 58 242 -15 q 108 247 108 132 l 108 951 l 188 951 l 188 254 q 233 108 188 160 q 369 56 278 56 q 506 108 461 56 q 550 254 550 161 l 550 951 l 631 951 l 631 247 m 229 1061 l 196 1096 l 344 1239 l 393 1239 l 542 1096 l 507 1061 l 368 1171 l 229 1061 z "},"Ȕ":{"ha":738,"x_min":108,"x_max":631,"o":"m 631 247 q 563 59 631 133 q 369 -15 496 -15 q 175 58 242 -15 q 108 247 108 132 l 108 951 l 188 951 l 188 254 q 233 108 188 160 q 369 56 278 56 q 506 108 461 56 q 550 254 550 161 l 550 951 l 631 951 l 631 247 m 229 1299 l 319 1089 l 274 1068 l 165 1264 l 229 1299 m 381 1297 l 463 1094 l 417 1074 l 317 1264 l 381 1297 z "},"Ü":{"ha":738,"x_min":108,"x_max":631,"o":"m 631 247 q 563 59 631 133 q 369 -15 496 -15 q 175 58 242 -15 q 108 247 108 132 l 108 951 l 188 951 l 188 254 q 233 108 188 160 q 369 56 278 56 q 506 108 461 56 q 550 254 550 161 l 550 951 l 631 951 l 631 247 m 267 1203 q 305 1188 290 1203 q 319 1150 319 1172 q 305 1111 319 1126 q 267 1096 290 1096 q 230 1111 244 1096 q 215 1150 215 1126 q 230 1188 215 1172 q 267 1203 244 1203 m 486 1203 q 524 1188 510 1203 q 539 1150 539 1172 q 524 1111 539 1126 q 486 1096 510 1096 q 449 1111 464 1096 q 435 1150 435 1126 q 449 1188 435 1172 q 486 1203 464 1203 z "},"Ǘ":{"ha":738,"x_min":108,"x_max":631,"o":"m 631 247 q 563 59 631 133 q 369 -15 496 -15 q 175 58 242 -15 q 108 247 108 132 l 108 951 l 188 951 l 188 254 q 233 108 188 160 q 369 56 278 56 q 506 108 461 56 q 550 254 550 161 l 550 951 l 631 951 l 631 247 m 468 1346 l 524 1301 l 375 1129 l 339 1160 l 468 1346 m 260 1140 q 298 1125 283 1140 q 313 1086 313 1110 q 298 1049 313 1064 q 260 1033 283 1033 q 223 1049 238 1033 q 208 1086 208 1064 q 223 1125 208 1110 q 260 1140 238 1140 m 479 1140 q 517 1125 503 1140 q 532 1086 532 1110 q 517 1049 532 1064 q 479 1033 503 1033 q 442 1049 457 1033 q 428 1086 428 1064 q 442 1125 428 1110 q 479 1140 457 1140 z "},"Ǚ":{"ha":738,"x_min":108,"x_max":631,"o":"m 631 247 q 563 59 631 133 q 369 -15 496 -15 q 175 58 242 -15 q 108 247 108 132 l 108 951 l 188 951 l 188 254 q 233 108 188 160 q 369 56 278 56 q 506 108 461 56 q 550 254 550 161 l 550 951 l 631 951 l 631 247 m 507 1328 l 539 1293 l 390 1149 l 342 1149 l 193 1293 l 225 1328 l 367 1217 l 507 1328 m 260 1140 q 297 1125 282 1140 q 311 1086 311 1110 q 297 1049 311 1064 q 260 1033 282 1033 q 223 1049 238 1033 q 208 1086 208 1064 q 223 1125 208 1110 q 260 1140 238 1140 m 479 1140 q 517 1125 501 1140 q 532 1086 532 1110 q 517 1049 532 1064 q 479 1033 501 1033 q 442 1049 457 1033 q 428 1086 428 1064 q 442 1125 428 1110 q 479 1140 457 1140 z "},"Ǜ":{"ha":738,"x_min":108,"x_max":631,"o":"m 631 247 q 563 59 631 133 q 369 -15 496 -15 q 175 58 242 -15 q 108 247 108 132 l 108 951 l 188 951 l 188 254 q 233 108 188 160 q 369 56 278 56 q 506 108 461 56 q 550 254 550 161 l 550 951 l 631 951 l 631 247 m 285 1346 l 414 1160 l 378 1129 l 229 1301 l 285 1346 m 258 1140 q 297 1125 282 1140 q 311 1086 311 1110 q 297 1049 311 1064 q 258 1033 282 1033 q 222 1049 236 1033 q 207 1086 207 1064 q 222 1125 207 1110 q 258 1140 236 1140 m 478 1140 q 516 1125 501 1140 q 531 1086 531 1110 q 516 1049 531 1064 q 478 1033 501 1033 q 441 1049 456 1033 q 426 1086 426 1064 q 441 1125 426 1110 q 478 1140 456 1140 z "},"Ǖ":{"ha":738,"x_min":108,"x_max":631,"o":"m 631 247 q 563 59 631 133 q 369 -15 496 -15 q 175 58 242 -15 q 108 247 108 132 l 108 951 l 188 951 l 188 254 q 233 108 188 160 q 369 56 278 56 q 506 108 461 56 q 550 254 550 161 l 550 951 l 631 951 l 631 247 m 260 1140 q 298 1125 283 1140 q 313 1088 313 1110 q 298 1049 313 1064 q 260 1033 283 1033 q 223 1049 238 1033 q 208 1088 208 1064 q 223 1125 208 1110 q 260 1140 238 1140 m 479 1140 q 517 1125 503 1140 q 532 1088 532 1110 q 517 1049 532 1064 q 479 1033 503 1033 q 442 1049 457 1033 q 428 1088 428 1064 q 442 1125 428 1110 q 479 1140 457 1140 m 511 1221 l 231 1221 l 231 1282 l 511 1282 l 511 1221 z "},"Ụ":{"ha":738,"x_min":108,"x_max":631,"o":"m 631 247 q 563 59 631 133 q 369 -15 496 -15 q 175 58 242 -15 q 108 247 108 132 l 108 951 l 188 951 l 188 254 q 233 108 188 160 q 369 56 278 56 q 506 108 461 56 q 550 254 550 161 l 550 951 l 631 951 l 631 247 m 369 -235 q 329 -218 344 -235 q 314 -176 314 -201 q 329 -137 314 -154 q 369 -121 344 -121 q 409 -137 393 -121 q 425 -176 425 -154 q 410 -218 425 -201 q 369 -235 394 -235 z "},"Ù":{"ha":738,"x_min":108,"x_max":631,"o":"m 631 247 q 563 59 631 133 q 369 -15 496 -15 q 175 58 242 -15 q 108 247 108 132 l 108 951 l 188 951 l 188 254 q 233 108 188 160 q 369 56 278 56 q 506 108 461 56 q 550 254 550 161 l 550 951 l 631 951 l 631 247 m 275 1226 l 490 1097 l 467 1053 l 239 1158 l 275 1226 z "},"Ủ":{"ha":738,"x_min":108,"x_max":631,"o":"m 631 247 q 563 59 631 133 q 369 -15 496 -15 q 175 58 242 -15 q 108 247 108 132 l 108 951 l 188 951 l 188 254 q 233 108 188 160 q 369 56 278 56 q 506 108 461 56 q 550 254 550 161 l 550 951 l 631 951 l 631 247 m 339 1176 q 399 1194 379 1179 q 418 1242 418 1208 q 404 1284 418 1269 q 365 1299 390 1299 q 333 1294 347 1299 q 301 1281 319 1290 l 281 1326 q 376 1357 322 1357 q 456 1327 426 1357 q 485 1247 485 1297 q 399 1140 485 1154 l 399 1075 l 339 1075 l 339 1176 z "},"Ư":{"ha":738,"x_min":108,"x_max":751,"o":"m 751 953 q 722 862 751 893 q 631 824 692 831 l 631 247 q 563 59 631 133 q 369 -15 496 -15 q 175 58 242 -15 q 108 247 108 132 l 108 951 l 188 951 l 188 254 q 233 108 188 160 q 369 56 278 56 q 506 108 461 56 q 550 254 550 161 l 550 951 l 631 951 l 631 874 q 674 898 661 879 q 688 953 688 917 q 672 1053 688 1000 l 729 1069 q 751 953 751 1011 z "},"Ứ":{"ha":738,"x_min":108,"x_max":751,"o":"m 496 1160 l 267 1053 l 244 1097 l 461 1228 l 496 1160 m 751 953 q 722 862 751 893 q 631 824 692 831 l 631 247 q 563 59 631 133 q 369 -15 496 -15 q 175 58 242 -15 q 108 247 108 132 l 108 951 l 188 951 l 188 254 q 233 108 188 160 q 369 56 278 56 q 506 108 461 56 q 550 254 550 161 l 550 951 l 631 951 l 631 874 q 674 898 661 879 q 688 953 688 917 q 672 1053 688 1000 l 729 1069 q 751 953 751 1011 z "},"Ự":{"ha":738,"x_min":108,"x_max":751,"o":"m 751 953 q 722 862 751 893 q 631 824 692 831 l 631 247 q 563 59 631 133 q 369 -15 496 -15 q 175 58 242 -15 q 108 247 108 132 l 108 951 l 188 951 l 188 254 q 233 108 188 160 q 369 56 278 56 q 506 108 461 56 q 550 254 550 161 l 550 951 l 631 951 l 631 874 q 674 898 661 879 q 688 953 688 917 q 672 1053 688 1000 l 729 1069 q 751 953 751 1011 m 369 -121 q 409 -137 393 -121 q 425 -176 425 -154 q 410 -218 425 -201 q 369 -235 394 -235 q 329 -218 344 -235 q 314 -176 314 -201 q 329 -137 314 -154 q 369 -121 344 -121 z "},"Ừ":{"ha":738,"x_min":108,"x_max":751,"o":"m 490 1097 l 467 1053 l 239 1158 l 275 1226 l 490 1097 m 751 953 q 722 862 751 893 q 631 824 692 831 l 631 247 q 563 59 631 133 q 369 -15 496 -15 q 175 58 242 -15 q 108 247 108 132 l 108 951 l 188 951 l 188 254 q 233 108 188 160 q 369 56 278 56 q 506 108 461 56 q 550 254 550 161 l 550 951 l 631 951 l 631 874 q 674 898 661 879 q 688 953 688 917 q 672 1053 688 1000 l 729 1069 q 751 953 751 1011 z "},"Ử":{"ha":738,"x_min":108,"x_max":751,"o":"m 365 1299 q 333 1294 347 1299 q 301 1281 319 1290 l 281 1326 q 376 1357 322 1357 q 456 1327 426 1357 q 485 1247 485 1297 q 399 1140 485 1154 l 399 1075 l 339 1075 l 339 1176 q 399 1194 379 1179 q 418 1242 418 1208 q 404 1284 418 1269 q 365 1299 390 1299 m 751 953 q 722 862 751 893 q 631 824 692 831 l 631 247 q 563 59 631 133 q 369 -15 496 -15 q 175 58 242 -15 q 108 247 108 132 l 108 951 l 188 951 l 188 254 q 233 108 188 160 q 369 56 278 56 q 506 108 461 56 q 550 254 550 161 l 550 951 l 631 951 l 631 874 q 674 898 661 879 q 688 953 688 917 q 672 1053 688 1000 l 729 1069 q 751 953 751 1011 z "},"Ữ":{"ha":738,"x_min":108,"x_max":751,"o":"m 303 1165 q 271 1153 285 1165 q 239 1110 257 1140 l 194 1132 q 301 1224 238 1224 q 339 1215 321 1224 q 378 1190 357 1206 q 410 1169 399 1175 q 436 1163 422 1163 q 469 1176 454 1163 q 500 1222 483 1190 l 544 1201 q 439 1104 507 1104 q 399 1113 417 1104 q 357 1139 382 1122 q 303 1165 322 1165 m 751 953 q 722 862 751 893 q 631 824 692 831 l 631 247 q 563 59 631 133 q 369 -15 496 -15 q 175 58 242 -15 q 108 247 108 132 l 108 951 l 188 951 l 188 254 q 233 108 188 160 q 369 56 278 56 q 506 108 461 56 q 550 254 550 161 l 550 951 l 631 951 l 631 874 q 674 898 661 879 q 688 953 688 917 q 672 1053 688 1000 l 729 1069 q 751 953 751 1011 z "},"Ű":{"ha":738,"x_min":108,"x_max":631,"o":"m 631 247 q 563 59 631 133 q 369 -15 496 -15 q 175 58 242 -15 q 108 247 108 132 l 108 951 l 188 951 l 188 254 q 233 108 188 160 q 369 56 278 56 q 506 108 461 56 q 550 254 550 161 l 550 951 l 631 951 l 631 247 m 497 1299 l 561 1264 l 453 1068 l 407 1089 l 497 1299 m 346 1297 l 410 1264 l 310 1074 l 264 1094 l 346 1297 z "},"Ȗ":{"ha":738,"x_min":108,"x_max":631,"o":"m 631 247 q 563 59 631 133 q 369 -15 496 -15 q 175 58 242 -15 q 108 247 108 132 l 108 951 l 188 951 l 188 254 q 233 108 188 160 q 369 56 278 56 q 506 108 461 56 q 550 254 550 161 l 550 951 l 631 951 l 631 247 m 368 1256 q 474 1215 432 1256 q 522 1103 515 1175 l 471 1092 q 368 1193 450 1193 q 267 1092 289 1193 l 217 1103 q 265 1215 224 1175 q 368 1256 306 1256 z "},"Ū":{"ha":738,"x_min":108,"x_max":631,"o":"m 631 247 q 563 59 631 133 q 369 -15 496 -15 q 175 58 242 -15 q 108 247 108 132 l 108 951 l 188 951 l 188 254 q 233 108 188 160 q 369 56 278 56 q 506 108 461 56 q 550 254 550 161 l 550 951 l 631 951 l 631 247 m 510 1115 l 229 1115 l 229 1176 l 510 1176 l 510 1115 z "},"Ų":{"ha":738,"x_min":108,"x_max":631,"o":"m 631 951 l 631 247 q 587 88 631 156 q 458 -4 543 19 q 356 -79 386 -43 q 326 -164 326 -115 q 345 -217 326 -199 q 400 -236 364 -236 q 464 -228 426 -236 l 457 -292 q 389 -301 418 -301 q 294 -266 328 -301 q 260 -175 260 -231 q 369 -15 260 -75 q 175 58 242 -15 q 108 247 108 132 l 108 951 l 188 951 l 188 254 q 233 108 188 160 q 369 56 278 56 q 506 108 461 56 q 550 254 550 161 l 550 951 l 631 951 z "},"Ʊ":{"ha":786,"x_min":71,"x_max":715,"o":"m 393 -15 q 157 98 243 -15 q 71 429 71 211 q 113 706 71 601 q 226 883 156 810 l 96 883 l 96 951 l 313 951 l 313 883 q 197 709 238 815 q 156 429 156 603 q 218 145 156 236 q 393 54 281 54 q 568 145 506 54 q 631 429 631 236 q 590 709 631 603 q 475 883 549 815 l 475 951 l 692 951 l 692 883 l 561 883 q 674 712 633 817 q 715 429 715 607 q 628 99 715 214 q 393 -15 542 -15 z "},"Ů":{"ha":738,"x_min":108,"x_max":631,"o":"m 631 247 q 563 59 631 133 q 369 -15 496 -15 q 175 58 242 -15 q 108 247 108 132 l 108 951 l 188 951 l 188 254 q 233 108 188 160 q 369 56 278 56 q 506 108 461 56 q 550 254 550 161 l 550 951 l 631 951 l 631 247 m 369 1314 q 454 1280 422 1314 q 486 1185 486 1246 q 454 1088 486 1122 q 369 1054 422 1054 q 285 1088 317 1054 q 253 1185 253 1122 q 285 1280 253 1246 q 369 1314 317 1314 m 369 1267 q 324 1248 339 1267 q 308 1185 308 1229 q 324 1121 308 1140 q 369 1101 339 1101 q 416 1121 400 1101 q 432 1185 432 1140 q 416 1248 432 1229 q 369 1267 400 1267 z "},"Ũ":{"ha":738,"x_min":108,"x_max":631,"o":"m 631 247 q 563 59 631 133 q 369 -15 496 -15 q 175 58 242 -15 q 108 247 108 132 l 108 951 l 188 951 l 188 254 q 233 108 188 160 q 369 56 278 56 q 506 108 461 56 q 550 254 550 161 l 550 951 l 631 951 l 631 247 m 439 1104 q 399 1113 417 1104 q 357 1139 382 1122 q 303 1165 322 1165 q 271 1153 285 1165 q 239 1110 257 1140 l 194 1132 q 301 1224 238 1224 q 339 1215 321 1224 q 378 1190 357 1206 q 410 1169 399 1175 q 436 1163 422 1163 q 469 1176 454 1163 q 500 1222 483 1190 l 544 1201 q 439 1104 507 1104 z "},"Ṹ":{"ha":738,"x_min":108,"x_max":631,"o":"m 631 247 q 563 59 631 133 q 369 -15 496 -15 q 175 58 242 -15 q 108 247 108 132 l 108 951 l 188 951 l 188 254 q 233 108 188 160 q 369 56 278 56 q 506 108 461 56 q 550 254 550 161 l 550 951 l 631 951 l 631 247 m 439 1056 q 399 1065 417 1056 q 357 1090 382 1074 q 303 1117 322 1117 q 271 1104 285 1117 q 239 1061 257 1092 l 194 1083 q 301 1175 238 1175 q 339 1166 321 1175 q 378 1142 357 1157 q 410 1120 399 1126 q 436 1114 422 1114 q 469 1128 454 1114 q 500 1174 483 1142 l 544 1153 q 439 1056 507 1056 m 461 1394 l 496 1326 l 267 1219 l 244 1264 l 461 1394 z "},"V":{"ha":643,"x_min":24,"x_max":618,"o":"m 618 951 l 369 0 l 275 0 l 24 951 l 106 951 l 324 83 l 539 951 l 618 951 z "},"Ʋ":{"ha":738,"x_min":108,"x_max":631,"o":"m 513 967 q 599 932 568 967 q 631 832 631 897 l 631 365 q 594 160 631 246 q 493 30 558 75 q 343 -15 428 -15 q 172 52 236 -15 q 108 228 108 119 l 108 951 l 188 951 l 188 233 q 228 102 188 149 q 343 56 269 56 q 494 136 439 56 q 550 368 550 217 l 550 831 q 538 883 550 865 q 500 900 526 900 q 456 890 478 900 l 435 946 q 513 967 472 967 z "},"Ʌ":{"ha":664,"x_min":24,"x_max":640,"o":"m 382 951 l 640 0 l 558 0 l 331 885 l 104 0 l 24 0 l 282 951 l 382 951 z "},"W":{"ha":939,"x_min":39,"x_max":900,"o":"m 900 951 l 733 0 l 629 0 l 468 860 l 307 0 l 206 0 l 39 951 l 117 951 l 258 75 l 422 951 l 515 951 l 681 75 l 824 951 l 900 951 z "},"Ẃ":{"ha":939,"x_min":39,"x_max":900,"o":"m 900 951 l 733 0 l 629 0 l 468 860 l 307 0 l 206 0 l 39 951 l 117 951 l 258 75 l 422 951 l 515 951 l 681 75 l 824 951 l 900 951 m 561 1228 l 596 1160 l 367 1053 l 344 1097 l 561 1228 z "},"Ŵ":{"ha":939,"x_min":39,"x_max":900,"o":"m 900 951 l 733 0 l 629 0 l 468 860 l 307 0 l 206 0 l 39 951 l 117 951 l 258 75 l 422 951 l 515 951 l 681 75 l 824 951 l 900 951 m 329 1061 l 296 1096 l 444 1239 l 493 1239 l 642 1096 l 607 1061 l 468 1171 l 329 1061 z "},"Ẅ":{"ha":939,"x_min":39,"x_max":900,"o":"m 900 951 l 733 0 l 629 0 l 468 860 l 307 0 l 206 0 l 39 951 l 117 951 l 258 75 l 422 951 l 515 951 l 681 75 l 824 951 l 900 951 m 367 1203 q 405 1188 390 1203 q 419 1150 419 1172 q 405 1111 419 1126 q 367 1096 390 1096 q 330 1111 344 1096 q 315 1150 315 1126 q 330 1188 315 1172 q 367 1203 344 1203 m 586 1203 q 624 1188 610 1203 q 639 1150 639 1172 q 624 1111 639 1126 q 586 1096 610 1096 q 549 1111 564 1096 q 535 1150 535 1126 q 549 1188 535 1172 q 586 1203 564 1203 z "},"Ẁ":{"ha":939,"x_min":39,"x_max":900,"o":"m 900 951 l 733 0 l 629 0 l 468 860 l 307 0 l 206 0 l 39 951 l 117 951 l 258 75 l 422 951 l 515 951 l 681 75 l 824 951 l 900 951 m 375 1226 l 590 1097 l 567 1053 l 339 1158 l 375 1226 z "},"Ⱳ":{"ha":978,"x_min":39,"x_max":1044,"o":"m 206 0 l 307 0 l 468 861 l 629 0 l 733 0 l 867 817 q 893 884 875 865 q 942 903 911 903 q 978 895 963 903 q 1013 871 993 888 l 1044 915 q 935 967 993 967 q 844 933 881 967 q 799 829 808 900 l 681 75 l 515 951 l 422 951 l 258 75 l 117 951 l 39 951 l 206 0 z "},"Ƿ":{"ha":647,"x_min":122,"x_max":606,"o":"m 390 967 q 546 899 486 967 q 606 714 606 832 q 567 547 606 615 q 466 432 529 478 q 311 344 403 386 l 201 296 l 201 0 l 122 0 l 122 951 l 201 951 l 201 879 q 390 967 292 967 m 307 414 q 465 531 410 463 q 521 714 521 600 q 483 850 521 803 q 378 897 444 897 q 201 811 283 897 l 201 364 l 307 414 z "},"X":{"ha":592,"x_min":10,"x_max":582,"o":"m 342 515 l 582 0 l 497 0 l 292 461 l 92 0 l 10 0 l 244 511 l 32 951 l 117 951 l 293 563 l 471 951 l 551 951 l 342 515 z "},"Y":{"ha":603,"x_min":13,"x_max":590,"o":"m 590 951 l 343 372 l 343 0 l 263 0 l 263 371 l 13 951 l 99 951 l 304 444 l 508 951 l 590 951 z "},"Ý":{"ha":603,"x_min":13,"x_max":590,"o":"m 590 951 l 343 372 l 343 0 l 263 0 l 263 371 l 13 951 l 99 951 l 304 444 l 508 951 l 590 951 m 393 1228 l 428 1160 l 199 1053 l 176 1097 l 393 1228 z "},"Ŷ":{"ha":603,"x_min":13,"x_max":590,"o":"m 590 951 l 343 372 l 343 0 l 263 0 l 263 371 l 13 951 l 99 951 l 304 444 l 508 951 l 590 951 m 161 1061 l 128 1096 l 276 1239 l 325 1239 l 474 1096 l 439 1061 l 300 1171 l 161 1061 z "},"Ÿ":{"ha":603,"x_min":13,"x_max":590,"o":"m 590 951 l 343 372 l 343 0 l 263 0 l 263 371 l 13 951 l 99 951 l 304 444 l 508 951 l 590 951 m 199 1203 q 237 1188 222 1203 q 251 1150 251 1172 q 237 1111 251 1126 q 199 1096 222 1096 q 162 1111 176 1096 q 147 1150 147 1126 q 162 1188 147 1172 q 199 1203 176 1203 m 418 1203 q 456 1188 442 1203 q 471 1150 471 1172 q 456 1111 471 1126 q 418 1096 442 1096 q 381 1111 396 1096 q 367 1150 367 1126 q 381 1188 367 1172 q 418 1203 396 1203 z "},"Ỵ":{"ha":603,"x_min":13,"x_max":590,"o":"m 590 951 l 343 372 l 343 0 l 263 0 l 263 371 l 13 951 l 99 951 l 304 444 l 508 951 l 590 951 m 303 -235 q 263 -218 278 -235 q 247 -176 247 -201 q 263 -137 247 -154 q 303 -121 278 -121 q 342 -137 326 -121 q 358 -176 358 -154 q 343 -218 358 -201 q 303 -235 328 -235 z "},"Ỳ":{"ha":603,"x_min":13,"x_max":590,"o":"m 590 951 l 343 372 l 343 0 l 263 0 l 263 371 l 13 951 l 99 951 l 304 444 l 508 951 l 590 951 m 207 1226 l 422 1097 l 399 1053 l 171 1158 l 207 1226 z "},"Ƴ":{"ha":631,"x_min":13,"x_max":696,"o":"m 263 371 l 13 951 l 99 951 l 304 443 l 451 849 q 505 938 474 910 q 586 967 536 967 q 696 915 647 967 l 664 871 q 629 895 644 888 q 593 903 614 903 q 549 886 565 903 q 515 824 533 869 l 343 372 l 343 0 l 263 0 l 263 371 z "},"Ỷ":{"ha":603,"x_min":13,"x_max":590,"o":"m 590 951 l 343 372 l 343 0 l 263 0 l 263 371 l 13 951 l 99 951 l 304 444 l 508 951 l 590 951 m 271 1176 q 331 1194 311 1179 q 350 1242 350 1208 q 336 1284 350 1269 q 297 1299 322 1299 q 265 1294 279 1299 q 233 1281 251 1290 l 213 1326 q 308 1357 254 1357 q 388 1327 358 1357 q 417 1247 417 1297 q 331 1140 417 1154 l 331 1075 l 271 1075 l 271 1176 z "},"Ȳ":{"ha":603,"x_min":13,"x_max":590,"o":"m 590 951 l 343 372 l 343 0 l 263 0 l 263 371 l 13 951 l 99 951 l 304 444 l 508 951 l 590 951 m 442 1115 l 161 1115 l 161 1176 l 442 1176 l 442 1115 z "},"Ʀ":{"ha":678,"x_min":122,"x_max":643,"o":"m 556 -175 l 354 254 q 310 253 340 253 l 201 253 l 201 0 l 122 0 l 122 951 l 201 951 l 201 776 l 292 776 q 601 518 601 776 q 557 360 601 424 q 429 269 513 296 l 643 -175 l 556 -175 m 300 318 q 464 367 411 318 q 517 518 517 415 q 465 663 517 615 q 289 710 413 710 l 201 708 l 201 318 l 300 318 z "},"Ɏ":{"ha":604,"x_min":13,"x_max":590,"o":"m 590 951 l 536 825 l 590 825 l 590 765 l 511 765 l 343 372 l 343 0 l 263 0 l 263 371 l 93 765 l 15 765 l 15 825 l 67 825 l 13 951 l 99 951 l 150 825 l 457 825 l 508 951 l 590 951 m 304 444 l 433 765 l 174 765 l 304 444 z "},"Ỹ":{"ha":603,"x_min":13,"x_max":590,"o":"m 590 951 l 343 372 l 343 0 l 263 0 l 263 371 l 13 951 l 99 951 l 304 444 l 508 951 l 590 951 m 371 1104 q 331 1113 349 1104 q 289 1139 314 1122 q 235 1165 254 1165 q 203 1153 217 1165 q 171 1110 189 1140 l 126 1132 q 233 1224 169 1224 q 271 1215 253 1224 q 310 1190 289 1206 q 342 1169 331 1175 q 368 1163 354 1163 q 401 1176 386 1163 q 432 1222 415 1190 l 476 1201 q 371 1104 439 1104 z "},"Z":{"ha":588,"x_min":39,"x_max":539,"o":"m 539 951 l 539 885 l 122 72 l 533 72 l 524 0 l 39 0 l 39 67 l 456 882 l 79 882 l 79 951 l 539 951 z "},"Ź":{"ha":588,"x_min":39,"x_max":539,"o":"m 539 951 l 539 885 l 122 72 l 533 72 l 524 0 l 39 0 l 39 67 l 456 882 l 79 882 l 79 951 l 539 951 m 392 1228 l 426 1160 l 197 1053 l 175 1097 l 392 1228 z "},"Ž":{"ha":588,"x_min":39,"x_max":539,"o":"m 539 951 l 539 885 l 122 72 l 533 72 l 524 0 l 39 0 l 39 67 l 456 882 l 79 882 l 79 951 l 539 951 m 440 1229 l 472 1194 l 324 1050 l 275 1050 l 126 1194 l 158 1229 l 300 1118 l 440 1229 z "},"Ż":{"ha":588,"x_min":39,"x_max":539,"o":"m 539 951 l 539 885 l 122 72 l 533 72 l 524 0 l 39 0 l 39 67 l 456 882 l 79 882 l 79 951 l 539 951 m 300 1219 q 340 1203 325 1219 q 356 1161 356 1186 q 340 1122 356 1139 q 300 1106 325 1106 q 260 1122 276 1106 q 244 1161 244 1139 q 260 1203 244 1186 q 300 1219 275 1219 z "},"Ẓ":{"ha":588,"x_min":39,"x_max":539,"o":"m 539 951 l 539 885 l 122 72 l 533 72 l 524 0 l 39 0 l 39 67 l 456 882 l 79 882 l 79 951 l 539 951 m 294 -235 q 254 -218 269 -235 q 239 -176 239 -201 q 254 -137 239 -154 q 294 -121 269 -121 q 334 -137 318 -121 q 350 -176 350 -154 q 335 -218 350 -201 q 294 -235 319 -235 z "},"Ȥ":{"ha":588,"x_min":39,"x_max":539,"o":"m 539 885 l 122 72 l 528 72 l 528 -124 q 486 -243 528 -201 q 379 -285 444 -285 q 257 -237 310 -285 l 292 -187 q 333 -210 315 -203 q 378 -218 351 -218 q 449 -125 449 -218 l 449 0 l 39 0 l 39 67 l 456 882 l 79 882 l 79 951 l 539 951 l 539 885 z "},"Ƶ":{"ha":588,"x_min":39,"x_max":539,"o":"m 539 951 l 539 885 l 347 511 l 467 511 l 467 447 l 314 447 l 122 72 l 533 72 l 524 0 l 39 0 l 39 67 l 233 447 l 115 447 l 115 511 l 267 511 l 456 882 l 79 882 l 79 951 l 539 951 z "},"ʙ":{"ha":629,"x_min":117,"x_max":558,"o":"m 406 393 q 519 341 479 386 q 558 214 558 296 q 492 53 558 107 q 314 0 425 0 l 117 0 l 117 721 q 213 735 163 729 q 306 742 264 742 q 467 690 408 742 q 526 553 526 639 q 497 450 526 489 q 406 393 468 411 m 307 678 q 194 668 256 678 l 194 418 l 325 418 q 416 451 383 418 q 449 550 449 485 q 413 645 449 613 q 307 678 378 678 m 313 63 q 479 214 479 63 q 442 324 479 290 q 333 357 404 357 l 194 357 l 194 63 l 313 63 z "},"ɢ":{"ha":638,"x_min":71,"x_max":544,"o":"m 346 743 q 449 724 403 743 q 536 664 494 704 l 493 617 q 422 662 457 647 q 346 676 388 676 q 206 605 261 676 q 151 368 151 533 q 200 123 151 194 q 340 51 249 51 q 469 88 407 51 l 469 332 l 347 332 l 339 397 l 544 397 l 544 51 q 340 -12 453 -12 q 140 78 210 -12 q 71 368 71 168 q 108 578 71 494 q 207 703 144 663 q 346 743 269 743 z "},"ʛ":{"ha":633,"x_min":71,"x_max":726,"o":"m 604 1032 q 726 985 674 1032 l 693 936 q 654 959 674 951 q 611 967 635 967 q 536 867 536 967 l 536 664 l 496 621 q 422 663 457 650 q 346 676 386 676 q 206 605 261 676 q 151 368 151 533 q 200 123 151 194 q 340 51 249 51 q 469 88 407 51 l 469 332 l 347 332 l 339 397 l 544 397 l 544 51 q 340 -12 453 -12 q 140 78 210 -12 q 71 368 71 168 q 108 578 71 494 q 206 703 144 663 q 343 743 268 743 q 461 711 413 743 l 461 864 q 500 988 461 944 q 604 1032 539 1032 z "},"ʜ":{"ha":672,"x_min":117,"x_max":556,"o":"m 478 0 l 478 343 l 194 343 l 194 0 l 117 0 l 117 726 l 194 726 l 194 410 l 478 410 l 478 726 l 556 726 l 556 0 l 478 0 z "},"ɪ":{"ha":369,"x_min":32,"x_max":338,"o":"m 338 663 l 222 663 l 222 64 l 338 64 l 338 0 l 32 0 l 32 64 l 144 64 l 144 663 l 32 663 l 32 726 l 338 726 l 338 663 z "},"ʟ":{"ha":479,"x_min":117,"x_max":465,"o":"m 194 726 l 194 68 l 465 68 l 456 0 l 117 0 l 117 726 l 194 726 z "},"ɴ":{"ha":674,"x_min":117,"x_max":557,"o":"m 557 0 l 457 0 l 179 647 q 189 363 189 531 l 189 0 l 117 0 l 117 726 l 217 726 l 494 78 q 486 318 486 186 l 486 726 l 557 726 l 557 0 z "},"ɶ":{"ha":835,"x_min":71,"x_max":793,"o":"m 793 0 l 407 0 q 326 -15 368 -15 q 138 82 206 -15 q 71 363 71 179 q 139 646 71 550 q 328 742 207 742 q 413 726 374 742 l 788 726 l 779 663 l 490 663 q 555 564 531 628 q 583 408 579 500 l 743 408 l 743 346 l 585 346 q 556 171 582 238 q 486 64 531 104 l 793 64 l 793 0 m 153 363 q 197 125 153 200 q 326 50 242 50 q 457 128 410 50 q 504 368 504 206 q 457 600 504 525 q 328 675 410 675 q 198 601 243 675 q 153 363 153 526 z "},"ʀ":{"ha":604,"x_min":117,"x_max":546,"o":"m 464 0 l 306 303 q 274 301 296 301 l 193 301 l 193 0 l 117 0 l 117 726 l 265 726 q 452 672 390 726 q 514 514 514 617 q 479 389 514 440 q 376 315 444 338 l 546 0 l 464 0 m 282 364 q 435 514 435 364 q 394 626 435 589 q 265 663 354 663 l 193 663 l 193 364 l 282 364 z "},"ʁ":{"ha":604,"x_min":117,"x_max":546,"o":"m 378 413 q 479 341 444 392 q 514 215 514 290 q 452 56 514 111 q 265 0 390 0 l 117 0 l 117 726 l 193 726 l 193 425 l 281 425 q 306 424 297 425 l 464 726 l 546 726 l 378 413 m 265 64 q 394 101 354 64 q 435 215 435 138 q 397 327 435 292 q 282 363 358 363 l 193 363 l 193 64 l 265 64 z "},"ʏ":{"ha":493,"x_min":4,"x_max":489,"o":"m 489 726 l 288 286 l 288 0 l 210 0 l 210 285 l 4 726 l 83 726 l 249 342 l 413 726 l 489 726 z "},"a":{"ha":615,"x_min":61,"x_max":547,"o":"m 499 139 q 510 73 499 94 q 547 39 522 51 l 531 -15 q 463 22 486 -4 q 432 99 439 49 q 250 -15 367 -15 q 113 44 164 -15 q 61 201 61 104 q 130 376 61 315 q 326 436 199 436 l 422 436 l 422 519 q 391 638 422 599 q 293 676 360 676 q 126 638 217 676 l 104 693 q 300 742 208 742 q 449 685 400 742 q 499 525 499 629 l 499 139 m 263 47 q 422 182 368 47 l 422 379 l 333 379 q 190 336 236 379 q 143 204 143 293 q 174 88 143 128 q 263 47 206 47 z "},"á":{"ha":615,"x_min":61,"x_max":547,"o":"m 499 139 q 510 73 499 94 q 547 39 522 51 l 531 -15 q 463 22 486 -4 q 432 99 439 49 q 250 -15 367 -15 q 113 44 164 -15 q 61 201 61 104 q 130 376 61 315 q 326 436 199 436 l 422 436 l 422 519 q 391 638 422 599 q 293 676 360 676 q 126 638 217 676 l 104 693 q 300 742 208 742 q 449 685 400 742 q 499 525 499 629 l 499 139 m 263 47 q 422 182 368 47 l 422 379 l 333 379 q 190 336 236 379 q 143 204 143 293 q 174 88 143 128 q 263 47 206 47 m 381 1081 l 417 1015 l 190 897 l 164 939 l 381 1081 z "},"ă":{"ha":615,"x_min":61,"x_max":547,"o":"m 499 139 q 510 73 499 94 q 547 39 522 51 l 531 -15 q 463 22 486 -4 q 432 99 439 49 q 250 -15 367 -15 q 113 44 164 -15 q 61 201 61 104 q 130 376 61 315 q 326 436 199 436 l 422 436 l 422 519 q 391 638 422 599 q 293 676 360 676 q 126 638 217 676 l 104 693 q 300 742 208 742 q 449 685 400 742 q 499 525 499 629 l 499 139 m 263 47 q 422 182 368 47 l 422 379 l 333 379 q 190 336 236 379 q 143 204 143 293 q 174 88 143 128 q 263 47 206 47 m 297 907 q 194 947 235 907 q 146 1060 153 988 l 196 1071 q 297 969 218 969 q 400 1071 379 969 l 451 1060 q 403 947 444 988 q 297 907 361 907 z "},"ắ":{"ha":615,"x_min":61,"x_max":547,"o":"m 499 139 q 510 73 499 94 q 547 39 522 51 l 531 -15 q 463 22 486 -4 q 432 99 439 49 q 250 -15 367 -15 q 113 44 164 -15 q 61 201 61 104 q 130 376 61 315 q 326 436 199 436 l 422 436 l 422 519 q 391 638 422 599 q 293 676 360 676 q 126 638 217 676 l 104 693 q 300 742 208 742 q 449 685 400 742 q 499 525 499 629 l 499 139 m 263 47 q 422 182 368 47 l 422 379 l 333 379 q 190 336 236 379 q 143 204 143 293 q 174 88 143 128 q 263 47 206 47 m 292 828 q 189 865 231 828 q 140 965 147 901 l 190 978 q 227 915 201 938 q 292 892 253 892 q 358 915 331 892 q 396 978 385 938 l 446 965 q 397 865 439 901 q 292 828 354 828 m 392 1214 l 447 1169 l 299 997 l 263 1028 l 392 1214 z "},"ặ":{"ha":615,"x_min":61,"x_max":547,"o":"m 499 139 q 510 73 499 94 q 547 39 522 51 l 531 -15 q 463 22 486 -4 q 432 99 439 49 q 250 -15 367 -15 q 113 44 164 -15 q 61 201 61 104 q 130 376 61 315 q 326 436 199 436 l 422 436 l 422 519 q 391 638 422 599 q 293 676 360 676 q 126 638 217 676 l 104 693 q 300 742 208 742 q 449 685 400 742 q 499 525 499 629 l 499 139 m 263 47 q 422 182 368 47 l 422 379 l 333 379 q 190 336 236 379 q 143 204 143 293 q 174 88 143 128 q 263 47 206 47 m 297 907 q 194 947 235 907 q 146 1060 153 988 l 196 1071 q 297 969 218 969 q 400 1071 379 969 l 451 1060 q 403 947 444 988 q 297 907 361 907 m 297 -235 q 257 -218 272 -235 q 242 -176 242 -201 q 257 -137 242 -154 q 297 -121 272 -121 q 337 -137 321 -121 q 353 -176 353 -154 q 338 -218 353 -201 q 297 -235 322 -235 z "},"ằ":{"ha":615,"x_min":61,"x_max":547,"o":"m 499 139 q 510 73 499 94 q 547 39 522 51 l 531 -15 q 463 22 486 -4 q 432 99 439 49 q 250 -15 367 -15 q 113 44 164 -15 q 61 201 61 104 q 130 376 61 315 q 326 436 199 436 l 422 436 l 422 519 q 391 638 422 599 q 293 676 360 676 q 126 638 217 676 l 104 693 q 300 742 208 742 q 449 685 400 742 q 499 525 499 629 l 499 139 m 263 47 q 422 182 368 47 l 422 379 l 333 379 q 190 336 236 379 q 143 204 143 293 q 174 88 143 128 q 263 47 206 47 m 304 828 q 201 865 243 828 q 153 965 160 901 l 203 978 q 240 915 214 938 q 304 892 265 892 q 370 915 343 892 q 408 978 397 938 l 458 965 q 409 865 451 901 q 304 828 367 828 m 210 1214 l 339 1028 l 303 997 l 154 1169 l 210 1214 z "},"ẳ":{"ha":615,"x_min":61,"x_max":547,"o":"m 499 139 q 510 73 499 94 q 547 39 522 51 l 531 -15 q 463 22 486 -4 q 432 99 439 49 q 250 -15 367 -15 q 113 44 164 -15 q 61 201 61 104 q 130 376 61 315 q 326 436 199 436 l 422 436 l 422 519 q 391 638 422 599 q 293 676 360 676 q 126 638 217 676 l 104 693 q 300 742 208 742 q 449 685 400 742 q 499 525 499 629 l 499 139 m 263 47 q 422 182 368 47 l 422 379 l 333 379 q 190 336 236 379 q 143 204 143 293 q 174 88 143 128 q 263 47 206 47 m 297 828 q 194 865 236 828 q 146 965 153 901 l 196 978 q 233 915 207 938 q 297 892 258 892 q 363 915 336 892 q 401 978 390 938 l 451 965 q 402 865 444 901 q 297 828 360 828 m 265 1085 q 325 1102 306 1088 q 344 1150 344 1117 q 292 1208 344 1208 q 260 1204 274 1208 q 228 1190 246 1200 l 207 1235 q 303 1265 249 1265 q 382 1235 353 1265 q 411 1156 411 1206 q 325 1049 411 1063 l 325 971 l 265 971 l 265 1085 z "},"ẵ":{"ha":615,"x_min":61,"x_max":547,"o":"m 499 139 q 510 73 499 94 q 547 39 522 51 l 531 -15 q 463 22 486 -4 q 432 99 439 49 q 250 -15 367 -15 q 113 44 164 -15 q 61 201 61 104 q 130 376 61 315 q 326 436 199 436 l 422 436 l 422 519 q 391 638 422 599 q 293 676 360 676 q 126 638 217 676 l 104 693 q 300 742 208 742 q 449 685 400 742 q 499 525 499 629 l 499 139 m 263 47 q 422 182 368 47 l 422 379 l 333 379 q 190 336 236 379 q 143 204 143 293 q 174 88 143 128 q 263 47 206 47 m 299 828 q 196 865 238 828 q 147 965 154 901 l 197 978 q 234 915 208 938 q 299 892 260 892 q 365 915 338 892 q 403 978 392 938 l 453 965 q 403 865 446 901 q 299 828 361 828 m 368 1043 q 328 1052 346 1043 q 286 1078 311 1061 q 232 1104 251 1104 q 200 1092 214 1104 q 168 1049 186 1079 l 124 1071 q 231 1163 167 1163 q 268 1153 250 1163 q 307 1129 286 1144 q 340 1108 328 1114 q 365 1101 351 1101 q 398 1115 383 1101 q 429 1161 413 1129 l 474 1140 q 368 1043 436 1043 z "},"ǎ":{"ha":615,"x_min":61,"x_max":547,"o":"m 499 139 q 510 73 499 94 q 547 39 522 51 l 531 -15 q 463 22 486 -4 q 432 99 439 49 q 250 -15 367 -15 q 113 44 164 -15 q 61 201 61 104 q 130 376 61 315 q 326 436 199 436 l 422 436 l 422 519 q 391 638 422 599 q 293 676 360 676 q 126 638 217 676 l 104 693 q 300 742 208 742 q 449 685 400 742 q 499 525 499 629 l 499 139 m 263 47 q 422 182 368 47 l 422 379 l 333 379 q 190 336 236 379 q 143 204 143 293 q 174 88 143 128 q 263 47 206 47 m 438 1065 l 471 1029 l 322 881 l 274 881 l 125 1029 l 158 1065 l 299 944 l 438 1065 z "},"â":{"ha":615,"x_min":61,"x_max":547,"o":"m 499 139 q 510 73 499 94 q 547 39 522 51 l 531 -15 q 463 22 486 -4 q 432 99 439 49 q 250 -15 367 -15 q 113 44 164 -15 q 61 201 61 104 q 130 376 61 315 q 326 436 199 436 l 422 436 l 422 519 q 391 638 422 599 q 293 676 360 676 q 126 638 217 676 l 104 693 q 300 742 208 742 q 449 685 400 742 q 499 525 499 629 l 499 139 m 263 47 q 422 182 368 47 l 422 379 l 333 379 q 190 336 236 379 q 143 204 143 293 q 174 88 143 128 q 263 47 206 47 m 158 897 l 125 932 l 274 1082 l 322 1082 l 471 932 l 436 897 l 297 1014 l 158 897 z "},"ấ":{"ha":615,"x_min":61,"x_max":582,"o":"m 499 139 q 510 73 499 94 q 547 39 522 51 l 531 -15 q 463 22 486 -4 q 432 99 439 49 q 250 -15 367 -15 q 113 44 164 -15 q 61 201 61 104 q 130 376 61 315 q 326 436 199 436 l 422 436 l 422 519 q 391 638 422 599 q 293 676 360 676 q 126 638 217 676 l 104 693 q 300 742 208 742 q 449 685 400 742 q 499 525 499 629 l 499 139 m 263 47 q 422 182 368 47 l 422 379 l 333 379 q 190 336 236 379 q 143 204 143 293 q 174 88 143 128 q 263 47 206 47 m 157 817 l 124 851 l 272 994 l 321 994 l 469 851 l 435 817 l 296 926 l 157 817 m 526 1175 l 582 1131 l 433 958 l 397 989 l 526 1175 z "},"ậ":{"ha":615,"x_min":61,"x_max":547,"o":"m 499 139 q 510 73 499 94 q 547 39 522 51 l 531 -15 q 463 22 486 -4 q 432 99 439 49 q 250 -15 367 -15 q 113 44 164 -15 q 61 201 61 104 q 130 376 61 315 q 326 436 199 436 l 422 436 l 422 519 q 391 638 422 599 q 293 676 360 676 q 126 638 217 676 l 104 693 q 300 742 208 742 q 449 685 400 742 q 499 525 499 629 l 499 139 m 263 47 q 422 182 368 47 l 422 379 l 333 379 q 190 336 236 379 q 143 204 143 293 q 174 88 143 128 q 263 47 206 47 m 158 897 l 125 932 l 274 1082 l 322 1082 l 471 932 l 436 897 l 297 1014 l 158 897 m 297 -235 q 257 -218 272 -235 q 242 -176 242 -201 q 257 -137 242 -154 q 297 -121 272 -121 q 337 -137 321 -121 q 353 -176 353 -154 q 338 -218 353 -201 q 297 -235 322 -235 z "},"ầ":{"ha":615,"x_min":17,"x_max":547,"o":"m 499 139 q 510 73 499 94 q 547 39 522 51 l 531 -15 q 463 22 486 -4 q 432 99 439 49 q 250 -15 367 -15 q 113 44 164 -15 q 61 201 61 104 q 130 376 61 315 q 326 436 199 436 l 422 436 l 422 519 q 391 638 422 599 q 293 676 360 676 q 126 638 217 676 l 104 693 q 300 742 208 742 q 449 685 400 742 q 499 525 499 629 l 499 139 m 263 47 q 422 182 368 47 l 422 379 l 333 379 q 190 336 236 379 q 143 204 143 293 q 174 88 143 128 q 263 47 206 47 m 157 817 l 124 851 l 272 994 l 321 994 l 469 851 l 435 817 l 296 926 l 157 817 m 72 1175 l 201 989 l 165 958 l 17 1131 l 72 1175 z "},"ẩ":{"ha":615,"x_min":61,"x_max":558,"o":"m 499 139 q 510 73 499 94 q 547 39 522 51 l 531 -15 q 463 22 486 -4 q 432 99 439 49 q 250 -15 367 -15 q 113 44 164 -15 q 61 201 61 104 q 130 376 61 315 q 326 436 199 436 l 422 436 l 422 519 q 391 638 422 599 q 293 676 360 676 q 126 638 217 676 l 104 693 q 300 742 208 742 q 449 685 400 742 q 499 525 499 629 l 499 139 m 263 47 q 422 182 368 47 l 422 379 l 333 379 q 190 336 236 379 q 143 204 143 293 q 174 88 143 128 q 263 47 206 47 m 157 817 l 124 851 l 272 994 l 321 994 l 469 851 l 435 817 l 296 926 l 157 817 m 413 1068 q 472 1085 453 1071 q 492 1133 492 1100 q 439 1192 492 1192 q 407 1188 421 1192 q 375 1174 393 1183 l 354 1218 q 450 1249 396 1249 q 529 1219 500 1249 q 558 1139 558 1189 q 472 1032 558 1046 l 472 954 l 413 954 l 413 1068 z "},"ẫ":{"ha":615,"x_min":61,"x_max":547,"o":"m 499 139 q 510 73 499 94 q 547 39 522 51 l 531 -15 q 463 22 486 -4 q 432 99 439 49 q 250 -15 367 -15 q 113 44 164 -15 q 61 201 61 104 q 130 376 61 315 q 326 436 199 436 l 422 436 l 422 519 q 391 638 422 599 q 293 676 360 676 q 126 638 217 676 l 104 693 q 300 742 208 742 q 449 685 400 742 q 499 525 499 629 l 499 139 m 263 47 q 422 182 368 47 l 422 379 l 333 379 q 190 336 236 379 q 143 204 143 293 q 174 88 143 128 q 263 47 206 47 m 158 803 l 125 838 l 274 981 l 322 981 l 471 838 l 436 803 l 297 913 l 158 803 m 367 1039 q 327 1048 344 1039 q 285 1074 310 1057 q 231 1100 250 1100 q 199 1088 213 1100 q 167 1044 185 1075 l 122 1067 q 229 1158 165 1158 q 267 1149 249 1158 q 306 1125 285 1140 q 338 1103 326 1110 q 364 1097 350 1097 q 397 1111 382 1097 q 428 1157 411 1125 l 472 1136 q 367 1039 435 1039 z "},"ȁ":{"ha":615,"x_min":61,"x_max":547,"o":"m 499 139 q 510 73 499 94 q 547 39 522 51 l 531 -15 q 463 22 486 -4 q 432 99 439 49 q 250 -15 367 -15 q 113 44 164 -15 q 61 201 61 104 q 130 376 61 315 q 326 436 199 436 l 422 436 l 422 519 q 391 638 422 599 q 293 676 360 676 q 126 638 217 676 l 104 693 q 300 742 208 742 q 449 685 400 742 q 499 525 499 629 l 499 139 m 263 47 q 422 182 368 47 l 422 379 l 333 379 q 190 336 236 379 q 143 204 143 293 q 174 88 143 128 q 263 47 206 47 m 167 1124 l 257 914 l 211 893 l 103 1089 l 167 1124 m 318 1122 l 400 919 l 354 899 l 254 1089 l 318 1122 z "},"ä":{"ha":615,"x_min":61,"x_max":547,"o":"m 499 139 q 510 73 499 94 q 547 39 522 51 l 531 -15 q 463 22 486 -4 q 432 99 439 49 q 250 -15 367 -15 q 113 44 164 -15 q 61 201 61 104 q 130 376 61 315 q 326 436 199 436 l 422 436 l 422 519 q 391 638 422 599 q 293 676 360 676 q 126 638 217 676 l 104 693 q 300 742 208 742 q 449 685 400 742 q 499 525 499 629 l 499 139 m 263 47 q 422 182 368 47 l 422 379 l 333 379 q 190 336 236 379 q 143 204 143 293 q 174 88 143 128 q 263 47 206 47 m 188 1028 q 226 1013 211 1028 q 240 975 240 997 q 226 936 240 951 q 188 921 211 921 q 151 936 165 921 q 136 975 136 951 q 151 1013 136 997 q 188 1028 165 1028 m 407 1028 q 445 1013 431 1028 q 460 975 460 997 q 445 936 460 951 q 407 921 431 921 q 370 936 385 921 q 356 975 356 951 q 370 1013 356 997 q 407 1028 385 1028 z "},"ǟ":{"ha":615,"x_min":61,"x_max":547,"o":"m 499 139 q 510 73 499 94 q 547 39 522 51 l 531 -15 q 463 22 486 -4 q 432 99 439 49 q 250 -15 367 -15 q 113 44 164 -15 q 61 201 61 104 q 130 376 61 315 q 326 436 199 436 l 422 436 l 422 519 q 391 638 422 599 q 293 676 360 676 q 126 638 217 676 l 104 693 q 300 742 208 742 q 449 685 400 742 q 499 525 499 629 l 499 139 m 263 47 q 422 182 368 47 l 422 379 l 333 379 q 190 336 236 379 q 143 204 143 293 q 174 88 143 128 q 263 47 206 47 m 189 986 q 227 971 213 986 q 242 933 242 956 q 227 894 242 910 q 189 879 213 879 q 152 894 167 879 q 138 933 138 910 q 152 971 138 956 q 189 986 167 986 m 408 986 q 447 971 432 986 q 461 933 461 956 q 447 894 461 910 q 408 879 432 879 q 372 894 386 879 q 357 933 357 910 q 372 971 357 956 q 408 986 386 986 m 440 1074 l 160 1074 l 160 1135 l 440 1135 l 440 1074 z "},"ȧ":{"ha":615,"x_min":61,"x_max":547,"o":"m 499 139 q 510 73 499 94 q 547 39 522 51 l 531 -15 q 463 22 486 -4 q 432 99 439 49 q 250 -15 367 -15 q 113 44 164 -15 q 61 201 61 104 q 130 376 61 315 q 326 436 199 436 l 422 436 l 422 519 q 391 638 422 599 q 293 676 360 676 q 126 638 217 676 l 104 693 q 300 742 208 742 q 449 685 400 742 q 499 525 499 629 l 499 139 m 263 47 q 422 182 368 47 l 422 379 l 333 379 q 190 336 236 379 q 143 204 143 293 q 174 88 143 128 q 263 47 206 47 m 297 1044 q 338 1028 322 1044 q 353 986 353 1011 q 338 947 353 964 q 297 931 322 931 q 258 947 274 931 q 242 986 242 964 q 257 1028 242 1011 q 297 1044 272 1044 z "},"ạ":{"ha":615,"x_min":61,"x_max":547,"o":"m 499 139 q 510 73 499 94 q 547 39 522 51 l 531 -15 q 463 22 486 -4 q 432 99 439 49 q 250 -15 367 -15 q 113 44 164 -15 q 61 201 61 104 q 130 376 61 315 q 326 436 199 436 l 422 436 l 422 519 q 391 638 422 599 q 293 676 360 676 q 126 638 217 676 l 104 693 q 300 742 208 742 q 449 685 400 742 q 499 525 499 629 l 499 139 m 263 47 q 422 182 368 47 l 422 379 l 333 379 q 190 336 236 379 q 143 204 143 293 q 174 88 143 128 q 263 47 206 47 m 297 -235 q 257 -218 272 -235 q 242 -176 242 -201 q 257 -137 242 -154 q 297 -121 272 -121 q 337 -137 321 -121 q 353 -176 353 -154 q 338 -218 353 -201 q 297 -235 322 -235 z "},"ǡ":{"ha":615,"x_min":61,"x_max":547,"o":"m 499 139 q 510 73 499 94 q 547 39 522 51 l 531 -15 q 463 22 486 -4 q 432 99 439 49 q 250 -15 367 -15 q 113 44 164 -15 q 61 201 61 104 q 130 376 61 315 q 326 436 199 436 l 422 436 l 422 519 q 391 638 422 599 q 293 676 360 676 q 126 638 217 676 l 104 693 q 300 742 208 742 q 449 685 400 742 q 499 525 499 629 l 499 139 m 263 47 q 422 182 368 47 l 422 379 l 333 379 q 190 336 236 379 q 143 204 143 293 q 174 88 143 128 q 263 47 206 47 m 299 975 q 339 958 324 975 q 354 917 354 942 q 339 878 354 894 q 299 861 324 861 q 259 878 275 861 q 243 917 243 894 q 258 958 243 942 q 299 975 274 975 m 439 1053 l 158 1053 l 158 1114 l 439 1114 l 439 1053 z "},"à":{"ha":615,"x_min":61,"x_max":547,"o":"m 499 139 q 510 73 499 94 q 547 39 522 51 l 531 -15 q 463 22 486 -4 q 432 99 439 49 q 250 -15 367 -15 q 113 44 164 -15 q 61 201 61 104 q 130 376 61 315 q 326 436 199 436 l 422 436 l 422 519 q 391 638 422 599 q 293 676 360 676 q 126 638 217 676 l 104 693 q 300 742 208 742 q 449 685 400 742 q 499 525 499 629 l 499 139 m 263 47 q 422 182 368 47 l 422 379 l 333 379 q 190 336 236 379 q 143 204 143 293 q 174 88 143 128 q 263 47 206 47 m 215 1081 l 431 939 l 404 897 l 178 1015 l 215 1081 z "},"ả":{"ha":615,"x_min":61,"x_max":547,"o":"m 499 139 q 510 73 499 94 q 547 39 522 51 l 531 -15 q 463 22 486 -4 q 432 99 439 49 q 250 -15 367 -15 q 113 44 164 -15 q 61 201 61 104 q 130 376 61 315 q 326 436 199 436 l 422 436 l 422 519 q 391 638 422 599 q 293 676 360 676 q 126 638 217 676 l 104 693 q 300 742 208 742 q 449 685 400 742 q 499 525 499 629 l 499 139 m 263 47 q 422 182 368 47 l 422 379 l 333 379 q 190 336 236 379 q 143 204 143 293 q 174 88 143 128 q 263 47 206 47 m 268 971 q 328 988 308 974 q 347 1036 347 1003 q 294 1094 347 1094 q 263 1090 276 1094 q 231 1076 249 1086 l 210 1121 q 306 1151 251 1151 q 385 1122 356 1151 q 414 1042 414 1092 q 328 935 414 949 l 328 857 l 268 857 l 268 971 z "},"ȃ":{"ha":615,"x_min":61,"x_max":547,"o":"m 499 139 q 510 73 499 94 q 547 39 522 51 l 531 -15 q 463 22 486 -4 q 432 99 439 49 q 250 -15 367 -15 q 113 44 164 -15 q 61 201 61 104 q 130 376 61 315 q 326 436 199 436 l 422 436 l 422 519 q 391 638 422 599 q 293 676 360 676 q 126 638 217 676 l 104 693 q 300 742 208 742 q 449 685 400 742 q 499 525 499 629 l 499 139 m 263 47 q 422 182 368 47 l 422 379 l 333 379 q 190 336 236 379 q 143 204 143 293 q 174 88 143 128 q 263 47 206 47 m 297 1031 q 403 990 361 1031 q 451 878 444 950 l 400 867 q 297 968 379 968 q 196 867 218 968 l 146 878 q 194 990 153 950 q 297 1031 235 1031 z "},"ɑ":{"ha":668,"x_min":71,"x_max":601,"o":"m 549 154 q 560 88 549 110 q 601 50 572 65 l 578 -11 q 508 30 532 4 q 476 97 485 56 q 404 15 449 46 q 300 -15 360 -15 q 132 80 193 -15 q 71 360 71 175 q 135 641 71 540 q 310 742 200 742 q 475 643 417 742 l 482 726 l 549 726 l 549 154 m 311 50 q 402 81 364 50 q 471 175 440 113 l 471 568 q 322 676 413 676 q 198 600 243 676 q 153 361 153 524 q 311 50 154 50 z "},"ɒ":{"ha":668,"x_min":67,"x_max":597,"o":"m 368 742 q 536 647 475 742 q 597 367 597 551 q 533 85 597 186 q 358 -15 468 -15 q 193 83 251 -15 l 186 0 l 119 0 l 119 572 q 108 639 119 617 q 67 676 96 661 l 90 738 q 160 697 136 722 q 192 629 183 671 q 264 711 219 681 q 368 742 308 742 m 346 50 q 470 126 425 50 q 515 365 515 203 q 357 676 514 676 q 266 645 304 676 q 197 551 228 614 l 197 158 q 346 50 256 50 z "},"ā":{"ha":615,"x_min":61,"x_max":547,"o":"m 499 139 q 510 73 499 94 q 547 39 522 51 l 531 -15 q 463 22 486 -4 q 432 99 439 49 q 250 -15 367 -15 q 113 44 164 -15 q 61 201 61 104 q 130 376 61 315 q 326 436 199 436 l 422 436 l 422 519 q 391 638 422 599 q 293 676 360 676 q 126 638 217 676 l 104 693 q 300 742 208 742 q 449 685 400 742 q 499 525 499 629 l 499 139 m 263 47 q 422 182 368 47 l 422 379 l 333 379 q 190 336 236 379 q 143 204 143 293 q 174 88 143 128 q 263 47 206 47 m 439 940 l 158 940 l 158 1001 l 439 1001 l 439 940 z "},"ą":{"ha":615,"x_min":61,"x_max":547,"o":"m 531 -15 l 529 -15 l 529 -15 q 422 -94 453 -57 q 392 -182 392 -131 q 463 -253 392 -253 q 528 -244 490 -253 l 521 -307 q 454 -317 482 -317 q 358 -282 392 -317 q 324 -190 324 -247 q 363 -81 324 -128 q 483 4 403 -35 q 432 99 442 31 q 250 -15 367 -15 q 113 44 164 -15 q 61 201 61 104 q 130 376 61 315 q 326 436 199 436 l 422 436 l 422 519 q 391 638 422 599 q 293 676 360 676 q 126 638 217 676 l 104 693 q 300 742 208 742 q 449 685 400 742 q 499 525 499 629 l 499 139 q 510 73 499 94 q 547 39 522 51 l 531 -15 m 263 47 q 422 182 368 47 l 422 379 l 333 379 q 190 336 236 379 q 143 204 143 293 q 174 88 143 128 q 263 47 206 47 z "},"å":{"ha":615,"x_min":61,"x_max":547,"o":"m 499 139 q 510 73 499 94 q 547 39 522 51 l 531 -15 q 463 22 486 -4 q 432 99 439 49 q 250 -15 367 -15 q 113 44 164 -15 q 61 201 61 104 q 130 376 61 315 q 326 436 199 436 l 422 436 l 422 519 q 391 638 422 599 q 293 676 360 676 q 126 638 217 676 l 104 693 q 300 742 208 742 q 449 685 400 742 q 499 525 499 629 l 499 139 m 263 47 q 422 182 368 47 l 422 379 l 333 379 q 190 336 236 379 q 143 204 143 293 q 174 88 143 128 q 263 47 206 47 m 299 1139 q 383 1105 351 1139 q 415 1010 415 1071 q 383 913 415 947 q 299 879 351 879 q 214 913 246 879 q 182 1010 182 947 q 214 1105 182 1071 q 299 1139 246 1139 m 299 1092 q 253 1073 268 1092 q 238 1010 238 1054 q 253 946 238 965 q 299 926 268 926 q 345 946 329 926 q 361 1010 361 965 q 345 1073 361 1054 q 299 1092 329 1092 z "},"ǻ":{"ha":615,"x_min":61,"x_max":547,"o":"m 425 1193 l 196 1086 l 174 1131 l 390 1261 l 425 1193 m 182 946 q 214 1041 182 1007 q 299 1075 246 1075 q 383 1041 351 1075 q 415 946 415 1007 q 383 849 415 883 q 299 815 351 815 q 214 849 246 815 q 182 946 182 883 m 361 946 q 345 1009 361 990 q 299 1028 329 1028 q 253 1009 268 1028 q 238 946 238 990 q 253 882 238 901 q 299 863 268 863 q 345 882 329 863 q 361 946 361 901 m 499 139 q 510 73 499 94 q 547 39 522 51 l 531 -15 q 463 22 486 -4 q 432 99 439 49 q 250 -15 367 -15 q 113 44 164 -15 q 61 201 61 104 q 130 376 61 315 q 326 436 199 436 l 422 436 l 422 519 q 391 638 422 599 q 293 676 360 676 q 126 638 217 676 l 104 693 q 300 742 208 742 q 449 685 400 742 q 499 525 499 629 l 499 139 m 263 47 q 422 182 368 47 l 422 379 l 333 379 q 190 336 236 379 q 143 204 143 293 q 174 88 143 128 q 263 47 206 47 z "},"ⱥ":{"ha":615,"x_min":61,"x_max":547,"o":"m 499 139 q 510 73 499 94 q 547 39 522 51 l 531 -15 q 463 22 486 -4 q 432 99 439 49 q 250 -15 367 -15 l 240 -15 l 222 -97 l 183 -89 l 201 -10 q 99 63 136 6 q 61 201 61 119 q 123 369 61 310 q 301 436 185 429 l 353 667 q 293 676 329 676 q 126 638 217 676 l 104 693 q 300 742 208 742 q 368 733 336 742 l 388 822 l 428 813 l 407 719 q 499 525 499 671 l 499 139 m 422 519 q 389 640 422 601 l 343 436 l 422 436 l 422 519 m 263 47 q 422 182 368 47 l 422 379 l 333 379 l 329 379 l 256 47 l 263 47 m 143 204 q 215 56 143 86 l 288 376 q 143 204 143 358 z "},"ã":{"ha":615,"x_min":61,"x_max":547,"o":"m 499 139 q 510 73 499 94 q 547 39 522 51 l 531 -15 q 463 22 486 -4 q 432 99 439 49 q 250 -15 367 -15 q 113 44 164 -15 q 61 201 61 104 q 130 376 61 315 q 326 436 199 436 l 422 436 l 422 519 q 391 638 422 599 q 293 676 360 676 q 126 638 217 676 l 104 693 q 300 742 208 742 q 449 685 400 742 q 499 525 499 629 l 499 139 m 263 47 q 422 182 368 47 l 422 379 l 333 379 q 190 336 236 379 q 143 204 143 293 q 174 88 143 128 q 263 47 206 47 m 368 929 q 328 938 346 929 q 286 964 311 947 q 232 990 251 990 q 200 978 214 990 q 168 935 186 965 l 124 957 q 231 1049 167 1049 q 268 1040 250 1049 q 307 1015 286 1031 q 340 994 328 1000 q 365 988 351 988 q 398 1001 383 988 q 429 1047 413 1015 l 474 1026 q 368 929 436 929 z "},"ɐ":{"ha":615,"x_min":68,"x_max":554,"o":"m 322 50 q 489 89 399 50 l 511 33 q 315 -15 407 -15 q 166 41 215 -15 q 117 201 117 97 l 117 588 q 105 653 117 632 q 68 688 93 675 l 85 742 q 153 704 129 731 q 183 628 176 678 q 365 742 249 742 q 503 682 451 742 q 554 525 554 622 q 485 351 554 411 q 289 290 417 290 l 193 290 l 193 207 q 224 89 193 128 q 322 50 256 50 m 353 679 q 193 544 247 679 l 193 347 l 282 347 q 426 390 379 347 q 472 522 472 433 q 441 639 472 599 q 353 679 410 679 z "},"æ":{"ha":968,"x_min":61,"x_max":904,"o":"m 904 390 q 901 332 904 360 l 504 332 q 558 120 510 189 q 686 51 607 51 q 768 68 732 51 q 843 119 804 85 l 881 74 q 789 8 838 31 q 681 -15 740 -15 q 552 22 607 -15 q 465 131 497 60 q 369 19 419 53 q 253 -15 318 -15 q 113 44 165 -15 q 61 201 61 104 q 131 376 61 315 q 325 436 200 436 l 424 436 l 424 507 q 392 635 424 594 q 289 676 361 676 q 128 636 224 676 l 108 693 q 299 742 214 742 q 420 707 376 742 q 481 604 464 672 q 674 742 546 742 q 844 651 785 742 q 904 390 904 561 m 826 415 q 674 676 826 676 q 555 606 600 676 q 504 393 510 536 l 826 393 l 826 415 m 265 47 q 360 83 319 47 q 443 196 401 118 q 424 356 424 269 l 424 379 l 331 379 q 191 335 239 379 q 143 204 143 292 q 176 88 143 129 q 265 47 208 47 z "},"ǽ":{"ha":968,"x_min":61,"x_max":904,"o":"m 904 390 q 901 332 904 360 l 504 332 q 558 120 510 189 q 686 51 607 51 q 768 68 732 51 q 843 119 804 85 l 881 74 q 789 8 838 31 q 681 -15 740 -15 q 552 22 607 -15 q 465 131 497 60 q 369 19 419 53 q 253 -15 318 -15 q 113 44 165 -15 q 61 201 61 104 q 131 376 61 315 q 325 436 200 436 l 424 436 l 424 507 q 392 635 424 594 q 289 676 361 676 q 128 636 224 676 l 108 693 q 299 742 214 742 q 420 707 376 742 q 481 604 464 672 q 674 742 546 742 q 844 651 785 742 q 904 390 904 561 m 826 415 q 674 676 826 676 q 555 606 600 676 q 504 393 510 536 l 826 393 l 826 415 m 265 47 q 360 83 319 47 q 443 196 401 118 q 424 356 424 269 l 424 379 l 331 379 q 191 335 239 379 q 143 204 143 292 q 176 88 143 129 q 265 47 208 47 m 568 1081 l 604 1015 l 378 897 l 351 939 l 568 1081 z "},"ǣ":{"ha":968,"x_min":61,"x_max":904,"o":"m 904 390 q 901 332 904 360 l 504 332 q 558 120 510 189 q 686 51 607 51 q 768 68 732 51 q 843 119 804 85 l 881 74 q 789 8 838 31 q 681 -15 740 -15 q 552 22 607 -15 q 465 131 497 60 q 369 19 419 53 q 253 -15 318 -15 q 113 44 165 -15 q 61 201 61 104 q 131 376 61 315 q 325 436 200 436 l 424 436 l 424 507 q 392 635 424 594 q 289 676 361 676 q 128 636 224 676 l 108 693 q 299 742 214 742 q 420 707 376 742 q 481 604 464 672 q 674 742 546 742 q 844 651 785 742 q 904 390 904 561 m 826 415 q 674 676 826 676 q 555 606 600 676 q 504 393 510 536 l 826 393 l 826 415 m 265 47 q 360 83 319 47 q 443 196 401 118 q 424 356 424 269 l 424 379 l 331 379 q 191 335 239 379 q 143 204 143 292 q 176 88 143 129 q 265 47 208 47 m 626 940 l 346 940 l 346 1001 l 626 1001 l 626 940 z "},"b":{"ha":661,"x_min":117,"x_max":590,"o":"m 372 742 q 533 648 476 742 q 590 367 590 554 q 529 85 590 185 q 361 -15 468 -15 q 265 14 308 -15 q 192 90 222 43 l 185 0 l 117 0 l 117 1022 l 194 1031 l 194 629 q 372 742 265 742 m 349 50 q 507 367 507 50 q 469 604 507 532 q 358 676 432 676 q 267 644 307 676 q 194 553 228 611 l 194 163 q 349 50 261 50 z "},"ḃ":{"ha":661,"x_min":117,"x_max":590,"o":"m 372 742 q 533 648 476 742 q 590 367 590 554 q 529 85 590 185 q 361 -15 468 -15 q 265 14 308 -15 q 192 90 222 43 l 185 0 l 117 0 l 117 1022 l 194 1031 l 194 629 q 372 742 265 742 m 349 50 q 507 367 507 50 q 469 604 507 532 q 358 676 432 676 q 267 644 307 676 q 194 553 228 611 l 194 163 q 349 50 261 50 m 347 1290 q 388 1274 372 1290 q 403 1232 403 1257 q 388 1193 403 1210 q 347 1176 372 1176 q 308 1193 324 1176 q 292 1232 292 1210 q 307 1274 292 1257 q 347 1290 322 1290 z "},"ḅ":{"ha":661,"x_min":117,"x_max":590,"o":"m 372 742 q 533 648 476 742 q 590 367 590 554 q 529 85 590 185 q 361 -15 468 -15 q 265 14 308 -15 q 192 90 222 43 l 185 0 l 117 0 l 117 1022 l 194 1031 l 194 629 q 372 742 265 742 m 349 50 q 507 367 507 50 q 469 604 507 532 q 358 676 432 676 q 267 644 307 676 q 194 553 228 611 l 194 163 q 349 50 261 50 m 347 -235 q 307 -218 322 -235 q 292 -176 292 -201 q 307 -137 292 -154 q 347 -121 322 -121 q 387 -137 371 -121 q 403 -176 403 -154 q 388 -218 403 -201 q 347 -235 372 -235 z "},"ꞵ":{"ha":675,"x_min":117,"x_max":618,"o":"m 376 557 q 551 483 483 551 q 618 278 618 415 q 585 121 618 188 q 497 19 551 54 q 381 -15 443 -15 q 194 65 271 -15 l 194 -274 l 117 -286 l 117 751 q 178 960 117 889 q 343 1032 239 1032 q 500 968 440 1032 q 560 789 560 904 q 512 626 560 685 q 376 557 464 568 m 369 50 q 490 110 443 50 q 538 275 538 171 q 479 460 538 397 q 315 522 421 522 l 264 522 l 271 585 l 318 585 q 435 631 386 585 q 485 788 485 678 q 446 924 483 881 q 343 968 408 968 q 194 750 194 968 l 194 138 q 275 71 233 92 q 369 50 317 50 z "},"ɓ":{"ha":661,"x_min":117,"x_max":590,"o":"m 372 742 q 533 648 476 742 q 590 367 590 554 q 529 85 590 185 q 361 -15 468 -15 q 265 14 308 -15 q 192 90 222 43 l 185 0 l 117 0 l 117 853 q 163 984 117 936 q 290 1032 208 1032 q 431 993 364 1032 l 404 938 q 296 967 343 967 q 194 853 194 967 l 194 629 q 372 742 265 742 m 349 50 q 507 367 507 50 q 469 604 507 532 q 358 676 432 676 q 267 644 307 676 q 194 553 228 611 l 194 163 q 349 50 261 50 z "},"ʭ":{"ha":389,"x_min":42,"x_max":347,"o":"m 42 554 l 42 736 l 347 736 l 347 554 l 292 554 l 292 679 l 97 679 l 97 554 l 42 554 m 42 -1 l 42 181 l 347 181 l 347 -1 l 292 -1 l 292 124 l 97 124 l 97 -1 l 42 -1 z "},"ʘ":{"ha":907,"x_min":74,"x_max":833,"o":"m 454 967 q 653 912 568 967 q 786 747 739 857 q 833 475 833 636 q 786 208 833 318 q 653 41 739 97 q 454 -15 568 -15 q 255 40 340 -15 q 122 206 169 96 q 74 474 74 315 q 122 742 74 631 q 256 910 169 853 q 454 967 342 967 m 454 900 q 231 794 313 900 q 150 474 150 689 q 232 156 150 261 q 454 50 314 50 q 677 155 597 50 q 757 475 757 260 q 676 795 757 690 q 454 900 596 900 m 453 532 q 493 515 478 532 q 508 474 508 499 q 493 435 508 451 q 453 418 478 418 q 413 435 429 418 q 397 474 397 451 q 413 515 397 499 q 453 532 428 532 z "},"ʬ":{"ha":526,"x_min":46,"x_max":481,"o":"m 481 921 l 401 556 l 329 556 l 265 858 l 200 556 l 126 556 l 46 921 l 107 921 l 165 611 l 235 921 l 299 921 l 364 610 l 425 921 l 481 921 m 481 365 l 401 0 l 329 0 l 265 303 l 200 0 l 126 0 l 46 365 l 107 365 l 165 56 l 235 365 l 299 365 l 364 54 l 425 365 l 481 365 z "},"ƀ":{"ha":667,"x_min":38,"x_max":596,"o":"m 378 742 q 539 648 482 742 q 596 367 596 554 q 535 85 596 185 q 367 -15 474 -15 q 271 14 314 -15 q 197 90 228 43 l 190 0 l 122 0 l 122 857 l 38 857 l 38 919 l 122 919 l 122 1022 l 200 1031 l 200 919 l 385 919 l 385 857 l 200 857 l 200 629 q 378 742 271 742 m 354 50 q 513 367 513 50 q 475 604 513 532 q 364 676 438 676 q 273 644 313 676 q 200 553 233 611 l 200 163 q 354 50 267 50 z "},"ƃ":{"ha":661,"x_min":117,"x_max":590,"o":"m 372 742 q 533 648 476 742 q 590 367 590 554 q 529 85 590 185 q 361 -15 468 -15 q 265 14 308 -15 q 192 90 222 43 l 185 0 l 117 0 l 117 1022 l 463 1022 l 451 958 l 194 958 l 194 629 q 372 742 265 742 m 349 50 q 507 367 507 50 q 469 604 507 532 q 358 676 432 676 q 267 644 307 676 q 194 553 228 611 l 194 163 q 349 50 261 50 z "},"c":{"ha":531,"x_min":71,"x_max":504,"o":"m 331 742 q 421 724 381 742 q 500 668 461 707 l 463 621 q 401 662 432 649 q 332 675 369 675 q 201 599 249 675 q 154 360 154 522 q 331 53 154 53 q 465 110 401 53 l 504 63 q 331 -15 426 -15 q 140 78 208 -15 q 71 358 71 172 q 140 642 71 543 q 331 742 210 742 z "},"ć":{"ha":531,"x_min":71,"x_max":504,"o":"m 331 742 q 421 724 381 742 q 500 668 461 707 l 463 621 q 401 662 432 649 q 332 675 369 675 q 201 599 249 675 q 154 360 154 522 q 331 53 154 53 q 465 110 401 53 l 504 63 q 331 -15 426 -15 q 140 78 208 -15 q 71 358 71 172 q 140 642 71 543 q 331 742 210 742 m 411 1081 l 447 1015 l 221 897 l 194 939 l 411 1081 z "},"č":{"ha":531,"x_min":71,"x_max":504,"o":"m 331 742 q 421 724 381 742 q 500 668 461 707 l 463 621 q 401 662 432 649 q 332 675 369 675 q 201 599 249 675 q 154 360 154 522 q 331 53 154 53 q 465 110 401 53 l 504 63 q 331 -15 426 -15 q 140 78 208 -15 q 71 358 71 172 q 140 642 71 543 q 331 742 210 742 m 468 1065 l 501 1029 l 353 881 l 304 881 l 156 1029 l 189 1065 l 329 944 l 468 1065 z "},"ç":{"ha":531,"x_min":71,"x_max":504,"o":"m 344 -92 q 450 -197 450 -106 q 415 -283 450 -253 q 326 -314 379 -314 q 231 -286 274 -314 l 257 -240 q 322 -258 288 -258 q 367 -243 350 -258 q 385 -197 385 -228 q 360 -149 385 -164 q 282 -133 336 -133 l 292 -12 q 128 94 186 1 q 71 358 71 188 q 140 642 71 543 q 331 742 210 742 q 421 724 381 742 q 500 668 461 707 l 463 621 q 401 662 432 649 q 332 675 369 675 q 201 599 249 675 q 154 360 154 522 q 331 53 154 53 q 465 110 401 53 l 504 63 q 344 -15 432 -10 l 344 -92 z "},"ĉ":{"ha":531,"x_min":71,"x_max":504,"o":"m 331 742 q 421 724 381 742 q 500 668 461 707 l 463 621 q 401 662 432 649 q 332 675 369 675 q 201 599 249 675 q 154 360 154 522 q 331 53 154 53 q 465 110 401 53 l 504 63 q 331 -15 426 -15 q 140 78 208 -15 q 71 358 71 172 q 140 642 71 543 q 331 742 210 742 m 189 897 l 156 932 l 304 1082 l 353 1082 l 501 932 l 467 897 l 328 1014 l 189 897 z "},"ɕ":{"ha":551,"x_min":71,"x_max":522,"o":"m 396 297 q 488 260 454 297 q 522 161 522 222 q 470 32 522 79 q 333 -15 418 -15 q 232 8 279 -15 l 197 -90 l 146 -69 l 185 38 q 101 165 131 83 q 71 358 71 247 q 140 642 71 543 q 331 742 210 742 q 421 724 381 742 q 500 668 461 707 l 463 621 q 401 662 432 649 q 332 675 369 675 q 201 599 249 675 q 154 360 154 522 q 215 108 154 185 q 293 253 250 208 q 396 297 336 297 m 340 53 q 424 78 392 53 q 457 161 457 104 q 440 219 457 199 q 390 240 424 240 q 322 204 350 240 q 258 71 293 168 q 340 53 296 53 z "},"ċ":{"ha":531,"x_min":71,"x_max":504,"o":"m 331 742 q 421 724 381 742 q 500 668 461 707 l 463 621 q 401 662 432 649 q 332 675 369 675 q 201 599 249 675 q 154 360 154 522 q 331 53 154 53 q 465 110 401 53 l 504 63 q 331 -15 426 -15 q 140 78 208 -15 q 71 358 71 172 q 140 642 71 543 q 331 742 210 742 m 328 1044 q 368 1028 353 1044 q 383 986 383 1011 q 368 947 383 964 q 328 931 353 931 q 288 947 304 931 q 272 986 272 964 q 288 1028 272 1011 q 328 1044 303 1044 z "},"ƈ":{"ha":531,"x_min":71,"x_max":692,"o":"m 569 1032 q 692 985 639 1032 l 658 936 q 619 959 638 951 q 575 967 600 967 q 500 867 500 967 l 500 668 l 467 625 q 400 663 431 650 q 332 675 369 675 q 201 599 249 675 q 154 360 154 522 q 331 53 154 53 q 465 110 401 53 l 504 63 q 331 -15 426 -15 q 140 78 208 -15 q 71 358 71 172 q 140 642 71 543 q 331 742 210 742 q 425 717 385 742 l 425 864 q 464 988 425 944 q 569 1032 503 1032 z "},"ʗ":{"ha":554,"x_min":93,"x_max":526,"o":"m 354 742 q 444 724 404 742 q 524 668 485 707 l 486 619 q 424 661 454 647 q 356 675 394 675 q 224 564 272 675 q 176 222 176 453 q 224 -113 176 -6 q 357 -221 272 -221 q 424 -207 393 -221 q 489 -165 456 -193 l 526 -211 q 354 -289 451 -289 q 162 -160 231 -289 q 93 221 93 -32 q 163 608 93 474 q 354 742 232 742 z "},"ȼ":{"ha":531,"x_min":71,"x_max":504,"o":"m 504 63 q 331 -15 426 -15 q 250 -3 288 -15 l 229 -97 l 190 -89 l 213 13 q 108 137 144 50 q 71 358 71 224 q 140 642 71 543 q 331 742 210 742 q 375 738 354 742 l 394 822 l 435 813 l 415 726 q 500 668 458 710 l 463 621 q 400 661 432 649 l 265 65 q 331 53 297 53 q 465 110 401 53 l 504 63 m 154 360 q 231 89 154 157 l 361 672 q 332 675 342 675 q 201 599 249 675 q 154 360 154 522 z "},"d":{"ha":665,"x_min":71,"x_max":549,"o":"m 549 1022 l 549 0 l 481 0 l 474 106 q 300 -15 411 -15 q 131 83 192 -15 q 71 360 71 182 q 100 562 71 475 q 183 695 129 649 q 307 742 236 742 q 471 647 408 742 l 471 1032 l 549 1022 m 310 50 q 401 83 363 50 q 471 181 440 117 l 471 567 q 318 676 408 676 q 197 597 242 676 q 153 361 153 517 q 195 128 154 206 q 310 50 236 50 z "},"ð":{"ha":640,"x_min":71,"x_max":563,"o":"m 372 921 q 517 708 471 835 q 563 390 563 581 q 496 88 563 192 q 314 -15 429 -15 q 136 74 201 -15 q 71 324 71 163 q 98 488 71 414 q 176 606 125 563 q 296 650 226 650 q 395 624 351 650 q 475 547 439 599 q 428 731 463 653 q 328 874 394 808 l 239 765 l 185 792 l 282 910 q 144 972 206 957 l 160 1032 q 325 957 240 1014 l 406 1057 l 454 1021 l 372 921 m 314 50 q 439 136 394 50 q 483 393 483 222 q 482 461 483 440 q 308 586 408 586 q 192 515 232 586 q 151 324 151 443 q 194 120 151 190 q 314 50 236 50 z "},"ȸ":{"ha":969,"x_min":71,"x_max":899,"o":"m 692 742 q 844 650 790 742 q 899 367 899 558 q 841 83 899 181 q 683 -15 783 -15 q 591 17 632 -15 q 525 96 550 49 l 517 0 l 458 0 l 450 99 q 381 17 422 49 q 288 -15 339 -15 q 130 81 189 -15 q 71 360 71 176 q 131 642 71 542 q 296 742 192 742 q 449 644 386 742 l 449 1022 l 526 1032 l 526 639 q 692 742 593 742 m 297 50 q 381 82 344 50 q 449 174 417 114 l 449 568 q 382 649 415 621 q 307 676 349 676 q 195 599 238 676 q 153 361 153 522 q 192 126 154 201 q 297 50 231 50 m 672 50 q 778 125 739 50 q 817 367 817 200 q 781 606 817 535 q 676 676 744 676 q 595 647 631 676 q 526 567 560 618 l 526 176 q 590 83 556 115 q 672 50 625 50 z "},"ď":{"ha":665,"x_min":71,"x_max":706,"o":"m 549 1022 l 549 0 l 481 0 l 474 106 q 300 -15 411 -15 q 131 83 192 -15 q 71 360 71 182 q 100 562 71 475 q 183 695 129 649 q 307 742 236 742 q 471 647 408 742 l 471 1032 l 549 1022 m 310 50 q 401 83 363 50 q 471 181 440 117 l 471 567 q 318 676 408 676 q 197 597 242 676 q 153 361 153 517 q 195 128 154 206 q 310 50 236 50 m 660 796 l 706 1021 l 636 1031 l 614 803 l 660 796 z "},"ḓ":{"ha":665,"x_min":71,"x_max":549,"o":"m 549 1022 l 549 0 l 481 0 l 474 106 q 300 -15 411 -15 q 131 83 192 -15 q 71 360 71 182 q 100 562 71 475 q 183 695 129 649 q 307 742 236 742 q 471 647 408 742 l 471 1032 l 549 1022 m 310 50 q 401 83 363 50 q 471 181 440 117 l 471 567 q 318 676 408 676 q 197 597 242 676 q 153 361 153 517 q 195 128 154 206 q 310 50 236 50 m 201 -282 l 168 -247 l 317 -97 l 365 -97 l 514 -247 l 479 -282 l 340 -164 l 201 -282 z "},"đ":{"ha":671,"x_min":71,"x_max":633,"o":"m 633 919 l 633 857 l 549 857 l 549 0 l 481 0 l 474 106 q 300 -15 411 -15 q 131 83 192 -15 q 71 360 71 182 q 100 562 71 475 q 183 695 129 649 q 307 742 236 742 q 471 647 408 742 l 471 857 l 288 857 l 288 919 l 471 919 l 471 1032 l 549 1022 l 549 919 l 633 919 m 310 50 q 401 83 363 50 q 471 181 440 117 l 471 567 q 318 676 408 676 q 197 597 242 676 q 153 361 153 517 q 195 128 154 206 q 310 50 236 50 z "},"ȡ":{"ha":794,"x_min":71,"x_max":824,"o":"m 706 276 q 791 242 758 276 q 824 150 824 207 q 775 28 824 72 q 650 -15 726 -15 q 557 7 597 -15 l 517 -90 l 467 -68 l 514 42 q 478 113 488 69 q 300 -15 415 -15 q 131 83 192 -15 q 71 360 71 182 q 100 562 71 475 q 183 695 129 649 q 307 742 236 742 q 471 647 408 742 l 471 1032 l 549 1022 l 549 163 q 551 125 549 147 q 616 238 581 200 q 706 276 651 276 m 310 50 q 401 83 363 50 q 471 181 440 117 l 471 567 q 318 676 408 676 q 197 597 242 676 q 153 361 153 517 q 195 128 154 206 q 310 50 236 50 m 654 51 q 730 77 703 51 q 757 150 757 103 q 742 200 757 182 q 700 218 726 218 q 642 186 665 218 q 585 69 619 154 q 654 51 608 51 z "},"ḋ":{"ha":665,"x_min":71,"x_max":549,"o":"m 549 1022 l 549 0 l 481 0 l 474 106 q 300 -15 411 -15 q 131 83 192 -15 q 71 360 71 182 q 100 562 71 475 q 183 695 129 649 q 307 742 236 742 q 471 647 408 742 l 471 1032 l 549 1022 m 310 50 q 401 83 363 50 q 471 181 440 117 l 471 567 q 318 676 408 676 q 197 597 242 676 q 153 361 153 517 q 195 128 154 206 q 310 50 236 50 m 325 1290 q 365 1274 350 1290 q 381 1232 381 1257 q 365 1193 381 1210 q 325 1176 350 1176 q 285 1193 301 1176 q 269 1232 269 1210 q 285 1274 269 1257 q 325 1290 300 1290 z "},"ḍ":{"ha":665,"x_min":71,"x_max":549,"o":"m 549 1022 l 549 0 l 481 0 l 474 106 q 300 -15 411 -15 q 131 83 192 -15 q 71 360 71 182 q 100 562 71 475 q 183 695 129 649 q 307 742 236 742 q 471 647 408 742 l 471 1032 l 549 1022 m 310 50 q 401 83 363 50 q 471 181 440 117 l 471 567 q 318 676 408 676 q 197 597 242 676 q 153 361 153 517 q 195 128 154 206 q 310 50 236 50 m 340 -235 q 300 -218 315 -235 q 285 -176 285 -201 q 300 -137 285 -154 q 340 -121 315 -121 q 380 -137 364 -121 q 396 -176 396 -154 q 381 -218 396 -201 q 340 -235 365 -235 z "},"ƍ":{"ha":650,"x_min":71,"x_max":579,"o":"m 396 75 q 490 -3 461 39 q 518 -106 518 -46 q 465 -239 518 -186 q 318 -292 411 -292 q 219 -274 263 -292 q 133 -224 175 -257 l 171 -175 q 241 -215 208 -203 q 317 -228 274 -228 q 408 -195 376 -228 q 439 -107 439 -162 q 427 -46 439 -71 q 384 3 415 -21 q 292 56 353 26 q 123 190 175 111 q 71 407 71 268 q 138 653 71 565 q 328 742 206 742 q 513 657 446 742 q 579 408 579 572 q 531 203 579 286 q 396 75 483 121 m 153 407 q 169 269 153 324 q 228 174 186 214 q 346 99 269 135 q 459 218 419 143 q 499 408 499 293 q 328 676 499 676 q 153 407 153 676 z "},"ʤ":{"ha":1040,"x_min":71,"x_max":1004,"o":"m 732 276 q 1004 6 1004 276 q 935 -205 1004 -125 q 749 -285 867 -285 q 620 -255 675 -285 q 519 -165 565 -225 l 567 -125 q 650 -197 608 -175 q 746 -218 692 -218 q 877 -158 832 -218 q 922 7 922 -99 q 875 167 922 118 q 724 215 828 215 l 649 215 l 649 276 l 893 660 l 549 660 l 549 0 l 481 0 l 474 106 q 300 -15 411 -15 q 131 83 192 -15 q 71 360 71 182 q 100 562 71 475 q 183 695 129 649 q 307 742 236 742 q 471 647 408 742 l 471 1032 l 549 1022 l 549 726 l 976 726 l 976 665 l 725 276 l 732 276 m 310 50 q 401 83 363 50 q 471 181 440 117 l 471 567 q 318 676 408 676 q 197 597 242 676 q 153 361 153 517 q 195 128 154 206 q 310 50 236 50 z "},"ɗ":{"ha":665,"x_min":71,"x_max":740,"o":"m 618 1032 q 740 985 688 1032 l 707 936 q 667 959 686 951 q 624 967 649 967 q 549 867 549 967 l 549 0 l 481 0 l 474 106 q 300 -15 411 -15 q 131 83 192 -15 q 71 360 71 182 q 100 562 71 475 q 183 695 129 649 q 307 742 236 742 q 471 647 408 742 l 471 864 q 510 989 471 946 q 618 1032 550 1032 m 310 50 q 401 83 363 50 q 471 181 440 117 l 471 567 q 318 676 408 676 q 197 597 242 676 q 153 361 153 517 q 195 128 154 206 q 310 50 236 50 z "},"ḏ":{"ha":665,"x_min":71,"x_max":549,"o":"m 549 1022 l 549 0 l 481 0 l 474 106 q 300 -15 411 -15 q 131 83 192 -15 q 71 360 71 182 q 100 562 71 475 q 183 695 129 649 q 307 742 236 742 q 471 647 408 742 l 471 1032 l 549 1022 m 310 50 q 401 83 363 50 q 471 181 440 117 l 471 567 q 318 676 408 676 q 197 597 242 676 q 153 361 153 517 q 195 128 154 206 q 310 50 236 50 m 482 -218 l 201 -218 l 201 -157 l 482 -157 l 482 -218 z "},"ɖ":{"ha":665,"x_min":71,"x_max":743,"o":"m 743 -237 q 619 -285 690 -285 q 513 -243 554 -285 q 472 -126 472 -201 l 472 0 l 471 0 l 471 100 q 300 -15 408 -15 q 131 83 192 -15 q 71 360 71 182 q 100 562 71 475 q 183 695 129 649 q 307 742 236 742 q 471 647 408 742 l 471 1032 l 549 1022 l 549 1 l 550 1 l 550 -128 q 625 -219 550 -219 q 669 -212 650 -219 q 708 -189 689 -204 l 743 -237 m 310 50 q 401 83 363 50 q 471 181 440 117 l 471 567 q 318 676 408 676 q 197 597 242 676 q 153 361 153 517 q 195 128 154 206 q 310 50 236 50 z "},"ƌ":{"ha":665,"x_min":71,"x_max":549,"o":"m 549 0 l 481 0 l 474 106 q 300 -15 411 -15 q 131 83 192 -15 q 71 360 71 182 q 100 562 71 475 q 183 695 129 649 q 307 742 236 742 q 471 647 408 742 l 471 958 l 208 958 l 208 1022 l 549 1022 l 549 0 m 310 50 q 401 83 363 50 q 471 181 440 117 l 471 567 q 318 676 408 676 q 197 597 242 676 q 153 361 153 517 q 195 128 154 206 q 310 50 236 50 z "},"ǳ":{"ha":1150,"x_min":71,"x_max":1114,"o":"m 549 1022 l 549 0 l 481 0 l 474 106 q 300 -15 411 -15 q 131 83 192 -15 q 71 360 71 182 q 100 562 71 475 q 183 695 129 649 q 307 742 236 742 q 471 647 408 742 l 471 1032 l 549 1022 m 310 50 q 401 83 363 50 q 471 181 440 117 l 471 567 q 318 676 408 676 q 197 597 242 676 q 153 361 153 517 q 195 128 154 206 q 310 50 236 50 m 1114 726 l 1114 665 l 778 68 l 1111 68 l 1104 0 l 694 0 l 694 60 l 1031 658 l 722 658 l 722 726 l 1114 726 z "},"ʣ":{"ha":1013,"x_min":71,"x_max":975,"o":"m 975 665 l 632 68 l 974 68 l 965 0 l 481 0 l 474 106 q 300 -15 411 -15 q 131 83 192 -15 q 71 360 71 182 q 100 562 71 475 q 183 695 129 649 q 307 742 236 742 q 471 647 408 742 l 471 1032 l 549 1022 l 549 726 l 975 726 l 975 665 m 310 50 q 401 83 363 50 q 471 181 440 117 l 471 567 q 318 676 408 676 q 197 597 242 676 q 153 361 153 517 q 195 128 154 206 q 310 50 236 50 m 549 60 l 892 658 l 549 658 l 549 60 z "},"ǆ":{"ha":1150,"x_min":71,"x_max":1114,"o":"m 549 1022 l 549 0 l 481 0 l 474 106 q 300 -15 411 -15 q 131 83 192 -15 q 71 360 71 182 q 100 562 71 475 q 183 695 129 649 q 307 742 236 742 q 471 647 408 742 l 471 1032 l 549 1022 m 310 50 q 401 83 363 50 q 471 181 440 117 l 471 567 q 318 676 408 676 q 197 597 242 676 q 153 361 153 517 q 195 128 154 206 q 310 50 236 50 m 1114 726 l 1114 665 l 778 68 l 1111 68 l 1104 0 l 694 0 l 694 60 l 1031 658 l 722 658 l 722 726 l 1114 726 m 1053 1065 l 1086 1029 l 938 881 l 889 881 l 740 1029 l 774 1065 l 914 944 l 1053 1065 z "},"ʥ":{"ha":1035,"x_min":71,"x_max":1057,"o":"m 1057 156 q 1005 39 1057 75 q 840 0 953 3 q 838 -90 838 -61 l 839 -154 l 782 -154 l 782 -112 q 785 0 782 -75 l 481 0 l 474 106 q 300 -15 411 -15 q 131 83 192 -15 q 71 360 71 182 q 100 562 71 475 q 183 695 129 649 q 307 742 236 742 q 471 647 408 742 l 471 1032 l 549 1022 l 549 726 l 975 726 l 975 665 l 631 68 l 792 68 q 943 282 817 282 q 1025 248 993 282 q 1057 156 1057 214 m 310 50 q 401 83 363 50 q 471 181 440 117 l 471 567 q 318 676 408 676 q 197 597 242 676 q 153 361 153 517 q 195 128 154 206 q 310 50 236 50 m 549 658 l 549 63 l 892 658 l 549 658 m 940 225 q 881 190 904 225 q 849 68 857 154 q 960 88 928 69 q 993 156 993 107 q 979 207 993 189 q 940 225 965 225 z "},"e":{"ha":615,"x_min":71,"x_max":551,"o":"m 551 390 q 549 332 551 360 l 151 332 q 203 117 157 182 q 331 51 250 51 q 414 67 378 51 q 489 118 450 83 l 528 72 q 437 7 485 29 q 329 -15 389 -15 q 140 80 208 -15 q 71 357 71 175 q 137 642 71 542 q 318 742 203 742 q 492 652 432 742 q 551 390 551 563 m 475 415 q 436 611 475 546 q 318 676 397 676 q 151 393 161 676 l 475 393 l 475 415 z "},"é":{"ha":615,"x_min":71,"x_max":551,"o":"m 551 390 q 549 332 551 360 l 151 332 q 203 117 157 182 q 331 51 250 51 q 414 67 378 51 q 489 118 450 83 l 528 72 q 437 7 485 29 q 329 -15 389 -15 q 140 80 208 -15 q 71 357 71 175 q 137 642 71 542 q 318 742 203 742 q 492 652 432 742 q 551 390 551 563 m 475 415 q 436 611 475 546 q 318 676 397 676 q 151 393 161 676 l 475 393 l 475 415 m 400 1081 l 436 1015 l 210 897 l 183 939 l 400 1081 z "},"ĕ":{"ha":615,"x_min":71,"x_max":551,"o":"m 551 390 q 549 332 551 360 l 151 332 q 203 117 157 182 q 331 51 250 51 q 414 67 378 51 q 489 118 450 83 l 528 72 q 437 7 485 29 q 329 -15 389 -15 q 140 80 208 -15 q 71 357 71 175 q 137 642 71 542 q 318 742 203 742 q 492 652 432 742 q 551 390 551 563 m 475 415 q 436 611 475 546 q 318 676 397 676 q 151 393 161 676 l 475 393 l 475 415 m 317 907 q 213 947 254 907 q 165 1060 172 988 l 215 1071 q 317 969 238 969 q 419 1071 399 969 l 471 1060 q 422 947 464 988 q 317 907 381 907 z "},"ě":{"ha":615,"x_min":71,"x_max":551,"o":"m 551 390 q 549 332 551 360 l 151 332 q 203 117 157 182 q 331 51 250 51 q 414 67 378 51 q 489 118 450 83 l 528 72 q 437 7 485 29 q 329 -15 389 -15 q 140 80 208 -15 q 71 357 71 175 q 137 642 71 542 q 318 742 203 742 q 492 652 432 742 q 551 390 551 563 m 475 415 q 436 611 475 546 q 318 676 397 676 q 151 393 161 676 l 475 393 l 475 415 m 457 1065 l 490 1029 l 342 881 l 293 881 l 144 1029 l 178 1065 l 318 944 l 457 1065 z "},"ȩ":{"ha":615,"x_min":71,"x_max":551,"o":"m 551 390 q 549 332 551 360 l 151 332 q 203 117 157 182 q 331 51 250 51 q 414 67 378 51 q 489 118 450 83 l 528 72 q 447 12 489 33 q 353 -14 404 -10 l 353 -92 q 458 -197 458 -106 q 423 -283 458 -253 q 335 -314 388 -314 q 239 -286 282 -314 l 265 -240 q 331 -258 296 -258 q 376 -243 358 -258 q 393 -197 393 -228 q 369 -149 393 -164 q 290 -133 344 -133 l 300 -14 q 131 92 192 -3 q 71 357 71 186 q 137 642 71 542 q 318 742 203 742 q 492 652 432 742 q 551 390 551 563 m 475 415 q 436 611 475 546 q 318 676 397 676 q 151 393 161 676 l 475 393 l 475 415 z "},"ê":{"ha":615,"x_min":71,"x_max":551,"o":"m 551 390 q 549 332 551 360 l 151 332 q 203 117 157 182 q 331 51 250 51 q 414 67 378 51 q 489 118 450 83 l 528 72 q 437 7 485 29 q 329 -15 389 -15 q 140 80 208 -15 q 71 357 71 175 q 137 642 71 542 q 318 742 203 742 q 492 652 432 742 q 551 390 551 563 m 475 415 q 436 611 475 546 q 318 676 397 676 q 151 393 161 676 l 475 393 l 475 415 m 178 897 l 144 932 l 293 1082 l 342 1082 l 490 932 l 456 897 l 317 1014 l 178 897 z "},"ế":{"ha":615,"x_min":71,"x_max":601,"o":"m 551 390 q 549 332 551 360 l 151 332 q 203 117 157 182 q 331 51 250 51 q 414 67 378 51 q 489 118 450 83 l 528 72 q 437 7 485 29 q 329 -15 389 -15 q 140 80 208 -15 q 71 357 71 175 q 137 642 71 542 q 318 742 203 742 q 492 652 432 742 q 551 390 551 563 m 475 415 q 436 611 475 546 q 318 676 397 676 q 151 393 161 676 l 475 393 l 475 415 m 176 817 l 143 851 l 292 994 l 340 994 l 489 851 l 454 817 l 315 926 l 176 817 m 546 1175 l 601 1131 l 453 958 l 417 989 l 546 1175 z "},"ệ":{"ha":615,"x_min":71,"x_max":551,"o":"m 551 390 q 549 332 551 360 l 151 332 q 203 117 157 182 q 331 51 250 51 q 414 67 378 51 q 489 118 450 83 l 528 72 q 437 7 485 29 q 329 -15 389 -15 q 140 80 208 -15 q 71 357 71 175 q 137 642 71 542 q 318 742 203 742 q 492 652 432 742 q 551 390 551 563 m 475 415 q 436 611 475 546 q 318 676 397 676 q 151 393 161 676 l 475 393 l 475 415 m 178 897 l 144 932 l 293 1082 l 342 1082 l 490 932 l 456 897 l 317 1014 l 178 897 m 332 -235 q 292 -218 307 -235 q 276 -176 276 -201 q 292 -137 276 -154 q 332 -121 307 -121 q 372 -137 356 -121 q 388 -176 388 -154 q 372 -218 388 -201 q 332 -235 357 -235 z "},"ề":{"ha":615,"x_min":36,"x_max":551,"o":"m 551 390 q 549 332 551 360 l 151 332 q 203 117 157 182 q 331 51 250 51 q 414 67 378 51 q 489 118 450 83 l 528 72 q 437 7 485 29 q 329 -15 389 -15 q 140 80 208 -15 q 71 357 71 175 q 137 642 71 542 q 318 742 203 742 q 492 652 432 742 q 551 390 551 563 m 475 415 q 436 611 475 546 q 318 676 397 676 q 151 393 161 676 l 475 393 l 475 415 m 176 817 l 143 851 l 292 994 l 340 994 l 489 851 l 454 817 l 315 926 l 176 817 m 92 1175 l 221 989 l 185 958 l 36 1131 l 92 1175 z "},"ể":{"ha":615,"x_min":71,"x_max":578,"o":"m 551 390 q 549 332 551 360 l 151 332 q 203 117 157 182 q 331 51 250 51 q 414 67 378 51 q 489 118 450 83 l 528 72 q 437 7 485 29 q 329 -15 389 -15 q 140 80 208 -15 q 71 357 71 175 q 137 642 71 542 q 318 742 203 742 q 492 652 432 742 q 551 390 551 563 m 475 415 q 436 611 475 546 q 318 676 397 676 q 151 393 161 676 l 475 393 l 475 415 m 176 817 l 143 851 l 292 994 l 340 994 l 489 851 l 454 817 l 315 926 l 176 817 m 432 1068 q 492 1085 472 1071 q 511 1133 511 1100 q 458 1192 511 1192 q 426 1188 440 1192 q 394 1174 413 1183 l 374 1218 q 469 1249 415 1249 q 549 1219 519 1249 q 578 1139 578 1189 q 492 1032 578 1046 l 492 954 l 432 954 l 432 1068 z "},"ễ":{"ha":615,"x_min":71,"x_max":551,"o":"m 551 390 q 549 332 551 360 l 151 332 q 203 117 157 182 q 331 51 250 51 q 414 67 378 51 q 489 118 450 83 l 528 72 q 437 7 485 29 q 329 -15 389 -15 q 140 80 208 -15 q 71 357 71 175 q 137 642 71 542 q 318 742 203 742 q 492 652 432 742 q 551 390 551 563 m 475 415 q 436 611 475 546 q 318 676 397 676 q 151 393 161 676 l 475 393 l 475 415 m 178 803 l 144 838 l 293 981 l 342 981 l 490 838 l 456 803 l 317 913 l 178 803 m 386 1039 q 347 1048 364 1039 q 304 1074 329 1057 q 250 1100 269 1100 q 218 1088 232 1100 q 186 1044 204 1075 l 142 1067 q 249 1158 185 1158 q 286 1149 268 1158 q 325 1125 304 1140 q 358 1103 346 1110 q 383 1097 369 1097 q 416 1111 401 1097 q 447 1157 431 1125 l 492 1136 q 386 1039 454 1039 z "},"ȅ":{"ha":615,"x_min":71,"x_max":551,"o":"m 551 390 q 549 332 551 360 l 151 332 q 203 117 157 182 q 331 51 250 51 q 414 67 378 51 q 489 118 450 83 l 528 72 q 437 7 485 29 q 329 -15 389 -15 q 140 80 208 -15 q 71 357 71 175 q 137 642 71 542 q 318 742 203 742 q 492 652 432 742 q 551 390 551 563 m 475 415 q 436 611 475 546 q 318 676 397 676 q 151 393 161 676 l 475 393 l 475 415 m 186 1124 l 276 914 l 231 893 l 122 1089 l 186 1124 m 338 1122 l 419 919 l 374 899 l 274 1089 l 338 1122 z "},"ë":{"ha":615,"x_min":71,"x_max":551,"o":"m 551 390 q 549 332 551 360 l 151 332 q 203 117 157 182 q 331 51 250 51 q 414 67 378 51 q 489 118 450 83 l 528 72 q 437 7 485 29 q 329 -15 389 -15 q 140 80 208 -15 q 71 357 71 175 q 137 642 71 542 q 318 742 203 742 q 492 652 432 742 q 551 390 551 563 m 475 415 q 436 611 475 546 q 318 676 397 676 q 151 393 161 676 l 475 393 l 475 415 m 207 1028 q 245 1013 231 1028 q 260 975 260 997 q 245 936 260 951 q 207 921 231 921 q 170 936 185 921 q 156 975 156 951 q 170 1013 156 997 q 207 1028 185 1028 m 426 1028 q 465 1013 450 1028 q 479 975 479 997 q 465 936 479 951 q 426 921 450 921 q 390 936 404 921 q 375 975 375 951 q 390 1013 375 997 q 426 1028 404 1028 z "},"ė":{"ha":615,"x_min":71,"x_max":551,"o":"m 551 390 q 549 332 551 360 l 151 332 q 203 117 157 182 q 331 51 250 51 q 414 67 378 51 q 489 118 450 83 l 528 72 q 437 7 485 29 q 329 -15 389 -15 q 140 80 208 -15 q 71 357 71 175 q 137 642 71 542 q 318 742 203 742 q 492 652 432 742 q 551 390 551 563 m 475 415 q 436 611 475 546 q 318 676 397 676 q 151 393 161 676 l 475 393 l 475 415 m 317 1044 q 357 1028 342 1044 q 372 986 372 1011 q 357 947 372 964 q 317 931 342 931 q 277 947 293 931 q 261 986 261 964 q 276 1028 261 1011 q 317 1044 292 1044 z "},"ẹ":{"ha":615,"x_min":71,"x_max":551,"o":"m 551 390 q 549 332 551 360 l 151 332 q 203 117 157 182 q 331 51 250 51 q 414 67 378 51 q 489 118 450 83 l 528 72 q 437 7 485 29 q 329 -15 389 -15 q 140 80 208 -15 q 71 357 71 175 q 137 642 71 542 q 318 742 203 742 q 492 652 432 742 q 551 390 551 563 m 475 415 q 436 611 475 546 q 318 676 397 676 q 151 393 161 676 l 475 393 l 475 415 m 332 -235 q 292 -218 307 -235 q 276 -176 276 -201 q 292 -137 276 -154 q 332 -121 307 -121 q 372 -137 356 -121 q 388 -176 388 -154 q 372 -218 388 -201 q 332 -235 357 -235 z "},"è":{"ha":615,"x_min":71,"x_max":551,"o":"m 551 390 q 549 332 551 360 l 151 332 q 203 117 157 182 q 331 51 250 51 q 414 67 378 51 q 489 118 450 83 l 528 72 q 437 7 485 29 q 329 -15 389 -15 q 140 80 208 -15 q 71 357 71 175 q 137 642 71 542 q 318 742 203 742 q 492 652 432 742 q 551 390 551 563 m 475 415 q 436 611 475 546 q 318 676 397 676 q 151 393 161 676 l 475 393 l 475 415 m 235 1081 l 450 939 l 424 897 l 197 1015 l 235 1081 z "},"ẻ":{"ha":615,"x_min":71,"x_max":551,"o":"m 551 390 q 549 332 551 360 l 151 332 q 203 117 157 182 q 331 51 250 51 q 414 67 378 51 q 489 118 450 83 l 528 72 q 437 7 485 29 q 329 -15 389 -15 q 140 80 208 -15 q 71 357 71 175 q 137 642 71 542 q 318 742 203 742 q 492 652 432 742 q 551 390 551 563 m 475 415 q 436 611 475 546 q 318 676 397 676 q 151 393 161 676 l 475 393 l 475 415 m 288 971 q 347 988 328 974 q 367 1036 367 1003 q 314 1094 367 1094 q 282 1090 296 1094 q 250 1076 268 1086 l 229 1121 q 325 1151 271 1151 q 404 1122 375 1151 q 433 1042 433 1092 q 347 935 433 949 l 347 857 l 288 857 l 288 971 z "},"ȇ":{"ha":615,"x_min":71,"x_max":551,"o":"m 551 390 q 549 332 551 360 l 151 332 q 203 117 157 182 q 331 51 250 51 q 414 67 378 51 q 489 118 450 83 l 528 72 q 437 7 485 29 q 329 -15 389 -15 q 140 80 208 -15 q 71 357 71 175 q 137 642 71 542 q 318 742 203 742 q 492 652 432 742 q 551 390 551 563 m 475 415 q 436 611 475 546 q 318 676 397 676 q 151 393 161 676 l 475 393 l 475 415 m 317 1031 q 422 990 381 1031 q 471 878 464 950 l 419 867 q 317 968 399 968 q 215 867 238 968 l 165 878 q 213 990 172 950 q 317 1031 254 1031 z "},"ē":{"ha":615,"x_min":71,"x_max":551,"o":"m 551 390 q 549 332 551 360 l 151 332 q 203 117 157 182 q 331 51 250 51 q 414 67 378 51 q 489 118 450 83 l 528 72 q 437 7 485 29 q 329 -15 389 -15 q 140 80 208 -15 q 71 357 71 175 q 137 642 71 542 q 318 742 203 742 q 492 652 432 742 q 551 390 551 563 m 475 415 q 436 611 475 546 q 318 676 397 676 q 151 393 161 676 l 475 393 l 475 415 m 458 940 l 178 940 l 178 1001 l 458 1001 l 458 940 z "},"ę":{"ha":615,"x_min":71,"x_max":551,"o":"m 551 390 q 549 332 551 360 l 151 332 q 203 117 157 182 q 331 51 250 51 q 414 67 378 51 q 489 118 450 83 l 528 72 q 433 6 479 24 q 328 -72 358 -35 q 297 -157 297 -108 q 316 -210 297 -192 q 371 -229 335 -229 q 435 -221 397 -229 l 428 -285 q 360 -294 389 -294 q 265 -259 299 -294 q 231 -168 231 -224 q 329 -15 231 -75 q 140 80 208 -15 q 71 357 71 175 q 137 642 71 542 q 318 742 203 742 q 492 652 432 742 q 551 390 551 563 m 475 415 q 436 611 475 546 q 318 676 397 676 q 151 393 161 676 l 475 393 l 475 415 z "},"ɛ":{"ha":528,"x_min":71,"x_max":503,"o":"m 300 742 q 403 724 358 742 q 486 676 447 707 l 451 628 q 382 664 415 651 q 306 676 349 676 q 209 642 243 676 q 175 546 175 607 q 212 449 175 486 q 310 411 249 411 l 378 411 l 369 347 l 304 347 q 190 310 226 347 q 153 196 153 274 q 192 89 153 128 q 300 50 231 50 q 387 67 350 50 q 463 118 424 85 l 503 72 q 294 -15 418 -15 q 133 42 196 -15 q 71 197 71 99 q 113 327 71 282 q 228 385 154 372 q 129 442 164 400 q 94 550 94 485 q 152 690 94 638 q 300 742 210 742 z "},"ʚ":{"ha":640,"x_min":71,"x_max":569,"o":"m 306 -15 q 135 44 199 -15 q 71 210 71 103 q 112 335 71 293 q 231 388 153 376 q 133 442 165 403 q 101 547 101 481 q 158 688 101 635 q 306 742 215 742 q 500 644 431 742 q 569 363 569 547 q 502 81 569 176 q 306 -15 435 -15 m 307 50 q 444 125 400 50 q 489 363 489 200 q 442 601 489 525 q 307 676 396 676 q 214 642 247 676 q 181 547 181 607 q 218 447 181 482 q 322 413 256 413 l 351 413 l 356 350 l 314 350 q 194 318 236 350 q 151 210 151 286 q 307 50 151 50 z "},"ɜ":{"ha":551,"x_min":24,"x_max":481,"o":"m 249 742 q 393 690 336 742 q 450 550 450 638 q 417 443 450 482 q 318 388 385 404 q 440 334 399 375 q 481 210 481 293 q 416 44 481 103 q 247 -15 351 -15 q 24 79 118 -15 l 67 124 q 150 68 110 86 q 246 50 190 50 q 357 88 315 50 q 399 210 399 126 q 356 318 399 286 q 225 350 313 350 l 158 350 l 164 413 l 217 413 q 369 549 369 413 q 336 644 369 611 q 243 676 303 676 q 159 662 194 676 q 81 617 124 647 l 43 664 q 138 722 89 703 q 249 742 188 742 z "},"ɞ":{"ha":640,"x_min":71,"x_max":569,"o":"m 335 -15 q 138 81 206 -15 q 71 363 71 176 q 140 644 71 547 q 335 742 210 742 q 482 688 425 742 q 539 547 539 635 q 507 442 539 481 q 410 388 475 403 q 528 335 488 376 q 569 210 569 293 q 506 44 569 103 q 335 -15 442 -15 m 333 50 q 489 210 489 50 q 447 318 489 286 q 326 350 404 350 l 285 350 l 289 413 l 318 413 q 422 447 385 413 q 460 547 460 482 q 426 642 460 607 q 333 676 393 676 q 198 601 244 676 q 151 363 151 525 q 196 125 151 200 q 333 50 240 50 z "},"ɝ":{"ha":781,"x_min":24,"x_max":815,"o":"m 815 497 q 696 449 761 449 q 592 490 629 449 q 554 604 554 531 l 554 660 l 446 593 q 450 550 450 572 q 417 443 450 482 q 318 388 385 404 q 440 334 399 375 q 481 210 481 293 q 416 44 481 103 q 247 -15 351 -15 q 24 79 118 -15 l 67 124 q 150 68 110 86 q 246 50 190 50 q 357 88 315 50 q 399 210 399 126 q 356 318 399 286 q 225 350 313 350 l 158 350 l 164 413 l 217 413 q 369 549 369 413 q 336 644 369 611 q 243 676 303 676 q 159 662 194 676 q 81 617 124 647 l 43 664 q 138 722 89 703 q 249 742 188 742 q 353 717 307 742 q 425 649 400 693 l 553 726 l 625 726 l 625 610 q 701 514 625 514 q 781 543 740 514 l 815 497 z "},"ɘ":{"ha":615,"x_min":64,"x_max":544,"o":"m 303 742 q 483 646 421 742 q 544 357 544 550 q 475 80 544 175 q 285 -15 406 -15 q 86 72 174 -15 l 126 118 q 199 67 163 83 q 285 51 235 51 q 412 117 365 51 q 464 332 458 182 l 67 332 q 64 390 64 360 q 126 651 64 560 q 303 742 189 742 m 140 393 l 464 393 q 419 613 460 550 q 303 676 378 676 q 182 610 224 676 q 140 415 140 543 l 140 393 z "},"ʃ":{"ha":311,"x_min":-76,"x_max":386,"o":"m 264 1032 q 386 985 333 1032 l 353 936 q 313 959 332 951 q 269 967 294 967 q 194 867 194 967 l 194 -126 q 153 -243 194 -201 q 47 -285 113 -285 q -76 -237 -24 -285 l -42 -189 q -3 -212 -22 -204 q 42 -219 17 -219 q 117 -128 117 -219 l 117 864 q 156 989 117 946 q 264 1032 196 1032 z "},"ʆ":{"ha":335,"x_min":-94,"x_max":410,"o":"m 217 -25 q 338 -78 281 -46 l 318 -124 q 217 -81 278 -103 q 169 -231 214 -176 q 43 -285 124 -285 q -58 -248 -21 -285 q -94 -150 -94 -211 q -51 -42 -94 -81 q 65 -3 -8 -3 q 140 -11 99 -3 l 140 864 q 180 989 140 946 q 288 1032 219 1032 q 410 985 357 1032 l 376 936 q 337 959 356 951 q 293 967 318 967 q 218 867 218 967 l 218 725 l 217 -25 m 42 -228 q 117 -189 93 -228 q 140 -69 140 -150 l 140 -65 q 65 -57 106 -57 q -8 -81 17 -57 q -33 -147 -33 -104 q -14 -206 -33 -185 q 42 -228 6 -228 z "},"ƪ":{"ha":342,"x_min":-58,"x_max":418,"o":"m 418 -237 q 294 -285 365 -285 q 188 -243 229 -285 q 147 -126 147 -201 l 147 713 q 79 696 114 696 q -20 738 18 696 q -58 861 -58 781 q -19 988 -58 943 q 83 1032 19 1032 q 188 990 150 1032 q 225 874 225 949 l 225 -128 q 300 -219 225 -219 q 344 -212 325 -219 q 383 -189 364 -204 l 418 -237 m 88 760 q 147 775 119 760 l 147 876 q 83 968 147 968 q 17 864 17 968 q 35 783 17 806 q 88 760 53 760 z "},"ʅ":{"ha":464,"x_min":0,"x_max":463,"o":"m 463 32 q 339 -15 410 -15 q 233 26 274 -15 q 192 143 192 68 l 192 576 q 117 676 192 676 q 73 669 92 676 q 33 646 54 661 l 0 694 q 122 742 53 742 q 230 699 190 742 q 269 574 269 656 l 269 142 q 344 50 269 50 q 389 58 369 50 q 428 81 408 65 l 463 32 z "},"ɇ":{"ha":615,"x_min":71,"x_max":551,"o":"m 318 332 l 258 68 q 331 51 289 51 q 414 67 378 51 q 490 119 450 83 l 528 74 q 436 7 483 29 q 329 -15 389 -15 q 243 -1 281 -15 l 221 -97 l 182 -89 l 206 17 q 106 142 140 56 q 71 357 71 228 q 137 641 71 540 q 318 742 203 742 q 368 736 347 742 l 388 822 l 426 813 l 407 725 q 515 608 478 693 q 551 390 551 524 q 549 332 551 360 l 318 332 m 318 676 q 151 393 161 676 l 290 393 l 354 672 q 318 676 338 676 m 475 415 q 392 658 475 607 l 332 393 l 475 393 l 475 415 m 276 332 l 151 332 q 224 93 157 160 l 276 332 z "},"ẽ":{"ha":615,"x_min":71,"x_max":551,"o":"m 551 390 q 549 332 551 360 l 151 332 q 203 117 157 182 q 331 51 250 51 q 414 67 378 51 q 489 118 450 83 l 528 72 q 437 7 485 29 q 329 -15 389 -15 q 140 80 208 -15 q 71 357 71 175 q 137 642 71 542 q 318 742 203 742 q 492 652 432 742 q 551 390 551 563 m 475 415 q 436 611 475 546 q 318 676 397 676 q 151 393 161 676 l 475 393 l 475 415 m 388 929 q 348 938 365 929 q 306 964 331 947 q 251 990 271 990 q 219 978 233 990 q 188 935 206 965 l 143 957 q 250 1049 186 1049 q 288 1040 269 1049 q 326 1015 306 1031 q 359 994 347 1000 q 385 988 371 988 q 417 1001 403 988 q 449 1047 432 1015 l 493 1026 q 388 929 456 929 z "},"ǝ":{"ha":621,"x_min":64,"x_max":550,"o":"m 304 742 q 489 650 428 742 q 550 367 550 558 q 486 77 550 169 q 304 -15 422 -15 q 127 74 190 -15 q 64 342 64 164 q 67 394 64 367 l 471 394 q 426 610 468 544 q 306 675 383 675 q 220 659 258 675 q 140 608 182 643 l 104 658 q 304 742 192 742 m 304 50 q 427 113 386 50 q 471 333 468 176 l 140 333 l 140 325 q 182 116 140 182 q 304 50 224 50 z "},"ə":{"ha":621,"x_min":64,"x_max":550,"o":"m 304 742 q 489 650 428 742 q 550 367 550 558 q 486 77 550 169 q 304 -15 422 -15 q 127 74 190 -15 q 64 342 64 164 q 67 394 64 367 l 471 394 q 426 610 468 544 q 306 675 383 675 q 220 659 258 675 q 140 608 182 643 l 104 658 q 304 742 192 742 m 304 50 q 427 113 386 50 q 471 333 468 176 l 140 333 l 140 325 q 182 116 140 182 q 304 50 224 50 z "},"ɚ":{"ha":844,"x_min":64,"x_max":881,"o":"m 881 497 q 761 449 826 449 q 657 490 694 449 q 619 604 619 531 l 619 660 l 517 597 q 550 367 550 510 q 486 77 550 169 q 304 -15 422 -15 q 127 74 190 -15 q 64 342 64 164 q 67 394 64 367 l 471 394 q 426 610 468 544 q 306 675 383 675 q 220 659 258 675 q 140 608 182 643 l 104 658 q 304 742 192 742 q 490 649 428 742 l 618 726 l 690 726 l 690 610 q 767 514 690 514 q 846 543 806 514 l 881 497 m 304 50 q 427 113 386 50 q 471 333 468 176 l 140 333 l 140 325 q 182 116 140 182 q 304 50 224 50 z "},"ʒ":{"ha":529,"x_min":8,"x_max":493,"o":"m 221 276 q 493 6 493 276 q 424 -205 493 -125 q 238 -285 356 -285 q 109 -255 164 -285 q 8 -165 54 -225 l 56 -125 q 139 -197 97 -175 q 235 -218 181 -218 q 366 -158 321 -218 q 411 7 411 -99 q 364 167 411 118 q 213 215 317 215 l 138 215 l 138 276 l 382 660 l 36 660 l 36 726 l 465 726 l 465 665 l 214 276 l 221 276 z "},"ǯ":{"ha":529,"x_min":8,"x_max":493,"o":"m 221 276 q 493 6 493 276 q 424 -205 493 -125 q 238 -285 356 -285 q 109 -255 164 -285 q 8 -165 54 -225 l 56 -125 q 139 -197 97 -175 q 235 -218 181 -218 q 366 -158 321 -218 q 411 7 411 -99 q 364 167 411 118 q 213 215 317 215 l 138 215 l 138 276 l 382 660 l 36 660 l 36 726 l 465 726 l 465 665 l 214 276 l 221 276 m 389 1065 l 422 1029 l 274 881 l 225 881 l 76 1029 l 110 1065 l 250 944 l 389 1065 z "},"ʓ":{"ha":529,"x_min":-21,"x_max":493,"o":"m 493 10 q 450 -160 493 -89 q 325 -261 407 -231 l 354 -339 l 301 -361 l 271 -278 q 192 -285 229 -285 q 33 -241 88 -285 q -21 -117 -21 -197 q 15 -13 -21 -53 q 107 26 50 26 q 181 7 150 26 q 240 -61 211 -12 q 300 -199 268 -110 q 411 10 411 -153 q 363 167 411 118 q 211 215 315 215 l 138 215 l 138 276 l 382 660 l 36 660 l 36 726 l 465 726 l 465 665 l 214 276 l 222 276 q 493 10 493 276 m 44 -115 q 82 -194 44 -171 q 193 -218 119 -218 q 247 -214 222 -218 q 178 -69 207 -107 q 111 -31 150 -31 q 62 -53 79 -31 q 44 -115 44 -75 z "},"ƹ":{"ha":529,"x_min":36,"x_max":521,"o":"m 521 -165 q 420 -255 475 -225 q 290 -285 365 -285 q 104 -209 172 -285 q 36 -6 36 -133 q 105 203 36 129 q 308 276 174 276 l 315 276 l 64 665 l 64 726 l 493 726 l 493 660 l 147 660 l 392 276 l 392 215 l 317 215 q 166 162 214 215 q 118 -4 118 108 q 163 -163 118 -108 q 292 -218 207 -218 q 390 -197 347 -218 q 474 -125 432 -175 l 521 -165 z "},"ƺ":{"ha":525,"x_min":33,"x_max":492,"o":"m 174 -286 q 71 -209 106 -250 q 36 -114 36 -168 q 83 -14 36 -49 q 232 40 129 21 q 369 90 329 58 q 410 197 410 122 q 378 285 410 257 q 279 313 346 313 l 129 313 l 129 375 l 367 660 l 33 660 l 33 726 l 457 726 l 457 665 l 211 375 l 282 375 q 438 329 385 375 q 492 197 492 283 q 435 50 490 99 q 268 -19 379 1 q 147 -56 179 -37 q 114 -118 114 -75 q 133 -177 114 -151 q 197 -232 153 -203 l 174 -286 z "},"f":{"ha":372,"x_min":24,"x_max":439,"o":"m 304 967 q 228 941 254 967 q 203 858 203 915 l 203 726 l 360 726 l 350 663 l 203 663 l 203 0 l 125 0 l 125 663 l 24 663 l 24 726 l 125 726 l 125 860 q 172 985 125 939 q 297 1032 218 1032 q 439 993 368 1032 l 413 936 q 304 967 357 967 z "},"ḟ":{"ha":372,"x_min":24,"x_max":439,"o":"m 304 967 q 228 941 254 967 q 203 858 203 915 l 203 726 l 360 726 l 350 663 l 203 663 l 203 0 l 125 0 l 125 663 l 24 663 l 24 726 l 125 726 l 125 860 q 172 985 125 939 q 297 1032 218 1032 q 439 993 368 1032 l 413 936 q 304 967 357 967 m 293 1290 q 333 1274 318 1290 q 349 1232 349 1257 q 333 1193 349 1210 q 293 1176 318 1176 q 253 1193 269 1176 q 238 1232 238 1210 q 253 1274 238 1257 q 293 1290 268 1290 z "},"ʩ":{"ha":993,"x_min":24,"x_max":882,"o":"m 715 742 q 838 685 794 742 q 882 532 882 629 l 882 -126 q 841 -243 882 -201 q 735 -285 800 -285 q 611 -237 664 -285 l 646 -189 q 685 -212 665 -204 q 729 -219 704 -219 q 804 -128 804 -219 l 804 522 q 700 678 804 678 q 521 521 601 678 l 521 0 l 443 0 l 443 663 l 203 663 l 203 0 l 125 0 l 125 663 l 24 663 l 24 726 l 125 726 l 125 860 q 172 985 125 939 q 297 1032 218 1032 q 439 993 368 1032 l 413 936 q 304 967 357 967 q 228 941 254 967 q 203 858 203 915 l 203 726 l 510 726 l 518 601 q 604 706 558 669 q 715 742 650 742 z "},"g":{"ha":579,"x_min":35,"x_max":569,"o":"m 569 713 q 404 692 514 692 q 508 493 508 633 q 449 318 508 382 q 288 254 390 254 q 213 269 247 254 q 167 185 167 235 q 268 106 167 106 l 343 106 q 496 55 440 106 q 551 -76 551 4 q 484 -228 551 -171 q 288 -285 417 -285 q 94 -233 153 -285 q 35 -76 35 -182 l 106 -76 q 147 -187 107 -154 q 288 -219 186 -219 q 474 -81 474 -219 q 437 10 474 -21 q 329 42 400 42 l 268 42 q 138 76 181 42 q 96 168 96 111 q 164 290 96 238 q 61 496 61 356 q 123 675 61 608 q 288 742 185 742 q 444 752 393 742 q 546 786 494 763 l 569 713 m 286 681 q 139 496 139 681 q 178 361 139 410 q 285 313 218 313 q 431 494 431 313 q 394 631 431 582 q 286 681 358 681 z "},"ǵ":{"ha":579,"x_min":35,"x_max":569,"o":"m 569 713 q 404 692 514 692 q 508 493 508 633 q 449 318 508 382 q 288 254 390 254 q 213 269 247 254 q 167 185 167 235 q 268 106 167 106 l 343 106 q 496 55 440 106 q 551 -76 551 4 q 484 -228 551 -171 q 288 -285 417 -285 q 94 -233 153 -285 q 35 -76 35 -182 l 106 -76 q 147 -187 107 -154 q 288 -219 186 -219 q 474 -81 474 -219 q 437 10 474 -21 q 329 42 400 42 l 268 42 q 138 76 181 42 q 96 168 96 111 q 164 290 96 238 q 61 496 61 356 q 123 675 61 608 q 288 742 185 742 q 444 752 393 742 q 546 786 494 763 l 569 713 m 286 681 q 139 496 139 681 q 178 361 139 410 q 285 313 218 313 q 431 494 431 313 q 394 631 431 582 q 286 681 358 681 m 372 1081 l 408 1015 l 182 897 l 156 939 l 372 1081 z "},"ɣ":{"ha":551,"x_min":22,"x_max":529,"o":"m 318 74 q 371 -59 354 -4 q 388 -167 388 -114 q 358 -253 388 -222 q 276 -285 329 -285 q 194 -253 224 -285 q 165 -167 165 -222 q 182 -65 165 -119 q 235 72 199 -10 l 22 726 l 103 726 l 276 129 l 451 726 l 529 726 l 318 74 m 319 -162 q 309 -82 319 -122 q 276 18 299 -42 q 244 -83 254 -43 q 233 -162 233 -122 q 276 -222 233 -222 q 309 -208 299 -222 q 319 -162 319 -193 z "},"ğ":{"ha":579,"x_min":35,"x_max":569,"o":"m 569 713 q 404 692 514 692 q 508 493 508 633 q 449 318 508 382 q 288 254 390 254 q 213 269 247 254 q 167 185 167 235 q 268 106 167 106 l 343 106 q 496 55 440 106 q 551 -76 551 4 q 484 -228 551 -171 q 288 -285 417 -285 q 94 -233 153 -285 q 35 -76 35 -182 l 106 -76 q 147 -187 107 -154 q 288 -219 186 -219 q 474 -81 474 -219 q 437 10 474 -21 q 329 42 400 42 l 268 42 q 138 76 181 42 q 96 168 96 111 q 164 290 96 238 q 61 496 61 356 q 123 675 61 608 q 288 742 185 742 q 444 752 393 742 q 546 786 494 763 l 569 713 m 286 681 q 139 496 139 681 q 178 361 139 410 q 285 313 218 313 q 431 494 431 313 q 394 631 431 582 q 286 681 358 681 m 289 907 q 185 947 226 907 q 138 1060 144 988 l 188 1071 q 289 969 210 969 q 392 1071 371 969 l 443 1060 q 394 947 436 988 q 289 907 353 907 z "},"ǧ":{"ha":579,"x_min":35,"x_max":569,"o":"m 569 713 q 404 692 514 692 q 508 493 508 633 q 449 318 508 382 q 288 254 390 254 q 213 269 247 254 q 167 185 167 235 q 268 106 167 106 l 343 106 q 496 55 440 106 q 551 -76 551 4 q 484 -228 551 -171 q 288 -285 417 -285 q 94 -233 153 -285 q 35 -76 35 -182 l 106 -76 q 147 -187 107 -154 q 288 -219 186 -219 q 474 -81 474 -219 q 437 10 474 -21 q 329 42 400 42 l 268 42 q 138 76 181 42 q 96 168 96 111 q 164 290 96 238 q 61 496 61 356 q 123 675 61 608 q 288 742 185 742 q 444 752 393 742 q 546 786 494 763 l 569 713 m 286 681 q 139 496 139 681 q 178 361 139 410 q 285 313 218 313 q 431 494 431 313 q 394 631 431 582 q 286 681 358 681 m 429 1065 l 463 1029 l 314 881 l 265 881 l 117 1029 l 150 1065 l 290 944 l 429 1065 z "},"ĝ":{"ha":579,"x_min":35,"x_max":569,"o":"m 569 713 q 404 692 514 692 q 508 493 508 633 q 449 318 508 382 q 288 254 390 254 q 213 269 247 254 q 167 185 167 235 q 268 106 167 106 l 343 106 q 496 55 440 106 q 551 -76 551 4 q 484 -228 551 -171 q 288 -285 417 -285 q 94 -233 153 -285 q 35 -76 35 -182 l 106 -76 q 147 -187 107 -154 q 288 -219 186 -219 q 474 -81 474 -219 q 437 10 474 -21 q 329 42 400 42 l 268 42 q 138 76 181 42 q 96 168 96 111 q 164 290 96 238 q 61 496 61 356 q 123 675 61 608 q 288 742 185 742 q 444 752 393 742 q 546 786 494 763 l 569 713 m 286 681 q 139 496 139 681 q 178 361 139 410 q 285 313 218 313 q 431 494 431 313 q 394 631 431 582 q 286 681 358 681 m 150 897 l 117 932 l 265 1082 l 314 1082 l 463 932 l 428 897 l 289 1014 l 150 897 z "},"ģ":{"ha":579,"x_min":35,"x_max":569,"o":"m 569 713 q 404 692 514 692 q 508 493 508 633 q 449 318 508 382 q 288 254 390 254 q 213 269 247 254 q 167 185 167 235 q 268 106 167 106 l 343 106 q 496 55 440 106 q 551 -76 551 4 q 484 -228 551 -171 q 288 -285 417 -285 q 94 -233 153 -285 q 35 -76 35 -182 l 106 -76 q 147 -187 107 -154 q 288 -219 186 -219 q 474 -81 474 -219 q 437 10 474 -21 q 329 42 400 42 l 268 42 q 138 76 181 42 q 96 168 96 111 q 164 290 96 238 q 61 496 61 356 q 123 675 61 608 q 288 742 185 742 q 444 752 393 742 q 546 786 494 763 l 569 713 m 286 681 q 139 496 139 681 q 178 361 139 410 q 285 313 218 313 q 431 494 431 313 q 394 631 431 582 q 286 681 358 681 m 292 818 q 251 834 267 818 q 236 875 236 850 q 243 913 236 892 q 263 967 250 935 l 308 1086 l 354 1086 l 314 928 q 347 875 347 910 q 332 834 347 850 q 292 818 317 818 z "},"ġ":{"ha":579,"x_min":35,"x_max":569,"o":"m 569 713 q 404 692 514 692 q 508 493 508 633 q 449 318 508 382 q 288 254 390 254 q 213 269 247 254 q 167 185 167 235 q 268 106 167 106 l 343 106 q 496 55 440 106 q 551 -76 551 4 q 484 -228 551 -171 q 288 -285 417 -285 q 94 -233 153 -285 q 35 -76 35 -182 l 106 -76 q 147 -187 107 -154 q 288 -219 186 -219 q 474 -81 474 -219 q 437 10 474 -21 q 329 42 400 42 l 268 42 q 138 76 181 42 q 96 168 96 111 q 164 290 96 238 q 61 496 61 356 q 123 675 61 608 q 288 742 185 742 q 444 752 393 742 q 546 786 494 763 l 569 713 m 286 681 q 139 496 139 681 q 178 361 139 410 q 285 313 218 313 q 431 494 431 313 q 394 631 431 582 q 286 681 358 681 m 289 1044 q 329 1028 314 1044 q 344 986 344 1011 q 329 947 344 964 q 289 931 314 931 q 249 947 265 931 q 233 986 233 964 q 249 1028 233 1011 q 289 1044 264 1044 z "},"ɠ":{"ha":665,"x_min":71,"x_max":740,"o":"m 618 1032 q 740 985 688 1032 l 707 936 q 667 959 686 951 q 624 967 649 967 q 549 867 549 967 l 549 -31 q 490 -217 549 -149 q 314 -285 432 -285 q 138 -232 215 -285 l 168 -181 q 231 -209 199 -199 q 310 -219 264 -219 q 434 -172 397 -219 q 471 -32 471 -125 l 471 125 q 301 13 411 13 q 132 107 193 13 q 71 374 71 201 q 134 642 71 543 q 311 742 197 742 q 403 717 363 742 q 471 653 443 692 l 471 864 q 510 989 471 946 q 618 1032 550 1032 m 310 78 q 401 111 364 78 q 471 211 439 144 l 471 567 q 321 676 408 676 q 198 600 243 676 q 153 375 153 524 q 195 152 154 226 q 310 78 236 78 z "},"ƾ":{"ha":567,"x_min":26,"x_max":496,"o":"m 293 581 q 440 487 385 550 q 496 289 496 424 q 429 69 496 149 q 247 -10 363 -10 q 128 18 179 -10 q 26 103 76 46 l 71 146 q 153 79 113 101 q 246 57 193 57 q 370 116 326 57 q 414 290 414 175 q 371 451 414 399 q 253 528 328 504 l 178 550 l 178 775 l 103 775 l 103 839 l 178 839 l 178 1022 l 256 1032 l 256 839 l 390 839 l 390 775 l 256 775 l 256 592 l 293 581 z "},"ʔ":{"ha":499,"x_min":-6,"x_max":464,"o":"m 151 472 l 221 494 q 339 572 296 519 q 382 732 382 624 q 339 906 382 847 q 215 965 296 965 q 121 944 161 965 q 38 876 81 922 l -6 919 q 97 1004 44 976 q 218 1032 150 1032 q 398 953 332 1032 q 464 733 464 874 q 408 535 464 599 q 261 440 353 472 l 229 431 l 229 0 l 151 0 l 151 472 z "},"ʖ":{"ha":567,"x_min":26,"x_max":496,"o":"m 256 1032 l 256 592 l 293 581 q 440 487 385 550 q 496 289 496 424 q 429 69 496 149 q 247 -10 363 -10 q 128 18 179 -10 q 26 103 76 46 l 71 146 q 153 79 113 101 q 246 57 193 57 q 370 116 326 57 q 414 290 414 175 q 371 451 414 399 q 253 528 328 504 l 178 550 l 178 1022 l 256 1032 z "},"ʕ":{"ha":499,"x_min":36,"x_max":506,"o":"m 269 0 l 269 431 l 238 440 q 91 535 146 472 q 36 733 36 599 q 103 953 36 874 q 283 1032 169 1032 q 403 1004 351 1032 q 506 919 454 976 l 461 876 q 378 944 418 922 q 286 965 339 965 q 160 906 204 965 q 117 732 117 847 q 160 572 117 624 q 278 494 203 519 l 347 472 l 347 0 l 269 0 z "},"ɂ":{"ha":488,"x_min":4,"x_max":438,"o":"m 140 257 l 219 282 q 357 485 357 325 q 317 624 357 575 q 207 674 278 674 q 121 654 157 674 q 47 597 85 635 l 4 643 q 97 716 49 690 q 211 742 146 742 q 376 672 314 742 q 438 486 438 601 q 388 315 438 374 q 260 231 339 257 l 218 217 l 218 0 l 140 0 l 140 257 z "},"ʡ":{"ha":499,"x_min":-6,"x_max":464,"o":"m 229 431 l 229 290 l 357 290 l 357 228 l 229 228 l 229 0 l 151 0 l 151 228 l 74 228 l 74 290 l 151 290 l 151 472 l 221 494 q 339 572 296 519 q 382 732 382 624 q 339 906 382 847 q 215 965 296 965 q 121 944 161 965 q 38 876 81 922 l -6 919 q 97 1004 44 976 q 218 1032 150 1032 q 398 953 332 1032 q 464 733 464 874 q 408 535 464 599 q 261 440 353 472 l 229 431 z "}}}
